<?xml version="1.0" standalone="no"?>
<!DOCTYPE svg PUBLIC "-//W3C//DTD SVG 1.1//EN" "http://www.w3.org/Graphics/SVG/1.1/DTD/svg11.dtd" >
<svg xmlns="http://www.w3.org/2000/svg" xmlns:xlink="http://www.w3.org/1999/xlink" version="1.1">
<metadata>
Created by FontForge 20161013 at Wed Aug 10 17:31:01 2005
 By ,,,
Copyright (c) Frantisek Storm, www.stormtype.com, 2005. All rights reserved.
</metadata>
<defs>
<font id="ElektraTextPro-Bold" horiz-adv-x="628" >
  <font-face 
    font-family="Elektra Text Pro"
    font-weight="700"
    font-stretch="normal"
    units-per-em="1000"
    panose-1="2 0 8 0 4 0 0 2 0 4"
    ascent="800"
    descent="-200"
    x-height="511"
    cap-height="697"
    bbox="-199 -314 1400 899"
    underline-thickness="50"
    underline-position="-250"
    unicode-range="U+0020-FB04"
  />
<missing-glyph horiz-adv-x="545" 
d="M0 0v697h545v-697h-545zM272 432l113 168h-225zM330 350l113 -169v335zM160 99h225l-113 168zM103 516v-335l112 169z" />
    <glyph glyph-name="ff" unicode="ff" horiz-adv-x="698" 
d="M548 528v-17h158v-132h-158v-379h-154v379h-157v-379h-153v379h-83v132h83v25q0 106 55.5 148t148.5 42q105 0 176 -28q45 29 125 29q79 0 154 -25l-33 -119q-42 14 -90 14q-38 0 -55 -16t-17 -53zM237 526v-15h157v27q0 32 5 49q-43 10 -79 10q-44 0 -63.5 -15.5
t-19.5 -55.5z" />
    <glyph glyph-name="fi" unicode="fi" horiz-adv-x="614" 
d="M548 511v-511h-154v379h-157v-379h-153v379h-83v132h83v25q0 108 64.5 149.5t192.5 41.5q104 0 198 -30l-34 -118q-60 18 -140 18q-65 0 -96.5 -15t-31.5 -56v-15h311z" />
    <glyph glyph-name="fl" unicode="fl" horiz-adv-x="620" 
d="M548 697v-548q0 -78 34 -125l-139 -48q-49 60 -49 168v445q-38 8 -74 8q-43 0 -63 -15.5t-20 -55.5v-15h113v-132h-113v-379h-153v379h-83v132h83v25q0 108 60.5 149.5t178.5 41.5q109 0 225 -30z" />
    <glyph glyph-name="ffi" unicode="ffi" horiz-adv-x="924" 
d="M858 511v-511h-153v379h-157v-379h-154v379h-157v-379h-153v379h-83v132h83v25q0 106 55 148.5t149 42.5q102 0 183 -35q61 35 181 35q103 0 197 -30l-33 -118q-62 18 -140 18q-65 0 -96.5 -15t-31.5 -56v-15h310zM237 526v-15h157v25q0 29 6 50q-41 11 -80 11
q-44 0 -63.5 -15.5t-19.5 -55.5z" />
    <glyph glyph-name="ffl" unicode="ffl" horiz-adv-x="930" 
d="M858 697v-548q0 -78 35 -125l-139 -48q-49 60 -49 168v445q-40 8 -75 8q-42 0 -62 -15.5t-20 -55.5v-15h113v-132h-113v-379h-154v379h-157v-379h-153v379h-83v132h83v25q0 106 55 148.5t149 42.5q91 0 180 -33q56 33 166 33q108 0 224 -30zM394 536q0 29 6 50
q-41 11 -80 11q-46 0 -64.5 -17t-18.5 -59v-10h157v25z" />
    <glyph glyph-name="Th" unicode="Th" horiz-adv-x="1108" 
d="M1047 298v-298h-154v288q0 60 -22 81t-65 21q-32 0 -54 -8.5t-22 -23.5v-358h-154v556h-180v-556h-162v556h-233v141h729v-203q68 32 136 32q45 0 75.5 -9t56 -32.5t37.5 -69.5t12 -117z" />
    <glyph glyph-name="ffk" unicode="ffk" horiz-adv-x="1227" 
d="M1227 0h-178q-159 254 -191 270v-270h-153v589q-40 8 -75 8q-42 0 -62 -15.5t-20 -55.5v-15h113v-132h-113v-379h-154v379h-157v-379h-153v379h-83v132h83v25q0 56 16 94.5t45.5 58.5t64 28.5t79.5 8.5q94 0 179 -32q56 33 166 33q115 0 224 -30v-427q44 40 177 241h178
q-121 -184 -176 -232q20 -14 72 -88t118 -191zM394 536q0 29 6 50q-41 11 -80 11q-46 0 -64.5 -17t-18.5 -59v-10h157v25z" />
    <glyph glyph-name="fk" unicode="fk" horiz-adv-x="916" 
d="M548 0h-154v589q-38 8 -74 8q-42 0 -62.5 -16t-20.5 -55v-15h113v-132h-113v-379h-153v379h-83v132h83v25q0 108 60.5 149.5t178.5 41.5q114 0 225 -30v-697zM917 0h-178q-159 253 -191 270q44 40 177 241h177q-124 -189 -176 -232q21 -14 73 -87.5t118 -191.5z" />
    <glyph glyph-name="fj" unicode="fj" horiz-adv-x="614" 
d="M394 -6v385h-157v-379h-153v379h-83v132h83v25q0 108 64.5 149.5t192.5 41.5q104 0 198 -30l-34 -118q-60 18 -140 18q-65 0 -96.5 -15t-31.5 -56v-15h311v-515q0 -106 -55.5 -155t-176.5 -44v125q40 0 59 17t19 55z" />
    <glyph glyph-name=".notdef" horiz-adv-x="545" 
d="M0 0v697h545v-697h-545zM272 432l113 168h-225zM330 350l113 -169v335zM160 99h225l-113 168zM103 516v-335l112 169z" />
    <glyph glyph-name=".null" horiz-adv-x="0" 
 />
    <glyph glyph-name="nonmarkingreturn" horiz-adv-x="333" 
 />
    <glyph glyph-name="space" unicode=" " horiz-adv-x="257" 
 />
    <glyph glyph-name="exclam" unicode="!" horiz-adv-x="333" 
d="M74 697h184l-37 -462h-110zM167 164q55 0 74 -15.5t19 -66.5q0 -55 -19 -72t-74 -17q-53 0 -72 17t-19 72q0 51 19 66.5t72 15.5z" />
    <glyph glyph-name="quotedbl" unicode="&#x22;" horiz-adv-x="402" 
d="M45 697h129l-19 -245h-99zM231 697h126l-19 -245h-98z" />
    <glyph glyph-name="numbersign" unicode="#" horiz-adv-x="738" 
d="M39 425l8 122h123l10 151h141l-10 -151h125l10 151h141l-10 -151h131l-7 -122h-132l-10 -142h133l-8 -121h-132l-11 -162h-141l11 162h-125l-11 -162h-141l11 162h-123l9 121h121l10 142h-123zM303 425l-9 -142h124l10 142h-125z" />
    <glyph glyph-name="dollar" unicode="$" horiz-adv-x="622" 
d="M257 825h102v-137q116 -2 193 -29l-32 -132q-64 19 -161 22v-136q103 -16 154 -62.5t51 -132.5q0 -102 -48.5 -150t-156.5 -59v-146h-102v142q-118 2 -197 29l33 133q65 -20 164 -23v141q-100 14 -152 56t-52 124q0 100 50 152.5t154 65.5v142zM200 485q0 -25 12 -37.5
t45 -19.5v116q-57 -11 -57 -59zM415 208q0 27 -11 40.5t-45 20.5v-121q56 11 56 60z" />
    <glyph glyph-name="percent" unicode="%" horiz-adv-x="1008" 
d="M654 697h140l-446 -697h-139zM223 714q110 0 153.5 -47.5t43.5 -178.5q0 -134 -44 -185t-153 -51q-108 0 -152 51t-44 185q0 131 43.5 178.5t152.5 47.5zM223 359q39 0 51 23t12 105q0 79 -12 100t-51 21t-51 -21t-12 -100q0 -81 12 -104.5t51 -23.5zM784 448
q110 0 153.5 -47.5t43.5 -179.5q0 -134 -44 -184.5t-153 -50.5t-152.5 50.5t-43.5 184.5q0 132 43 179.5t153 47.5zM784 93q39 0 50.5 23t11.5 105q0 79 -11.5 100t-50.5 21t-51 -21.5t-12 -99.5q0 -81 12 -104.5t51 -23.5z" />
    <glyph glyph-name="ampersand" unicode="&#x26;" horiz-adv-x="815" 
d="M783 394q0 -130 -98 -241q19 -25 112 -153h-185q-28 42 -42 61q-119 -75 -256 -75q-153 0 -212 42.5t-59 152.5q0 167 191 176q-88 7 -117 46t-29 119q0 101 53.5 146.5t199.5 45.5q145 0 199.5 -40t54.5 -137q0 -76 -38 -116.5t-129 -47.5q65 -5 157 -107q32 59 32 128
h166zM314 117q98 0 172 51q-102 131 -168 131q-54 0 -78.5 -22.5t-24.5 -72.5t20.5 -68.5t78.5 -18.5zM336 424q48 0 72 18.5t24 61.5q0 45 -20.5 60.5t-69.5 15.5q-51 0 -71 -15.5t-20 -59.5q0 -45 19 -63t66 -18z" />
    <glyph glyph-name="quotesingle" unicode="'" horiz-adv-x="219" 
d="M45 697h129l-19 -245h-99z" />
    <glyph glyph-name="parenleft" unicode="(" horiz-adv-x="327" 
d="M68 249q0 425 230 522l70 -113q-68 -37 -103 -127t-35 -282t35 -282t103 -127l-70 -113q-230 97 -230 522z" />
    <glyph glyph-name="parenright" unicode=")" horiz-adv-x="327" 
d="M259 249q0 -425 -230 -522l-70 113q68 37 103 127t35 282q0 131 -18.5 217.5t-47 127t-72.5 64.5l70 113q230 -97 230 -522z" />
    <glyph glyph-name="asterisk" unicode="*" horiz-adv-x="532" 
d="M30 459v124h127l-64 111l109 62l64 -111l63 111l109 -62l-65 -111h128v-124h-128l64 -111l-109 -61l-62 109l-64 -109l-109 62l64 110h-127z" />
    <glyph glyph-name="plus" unicode="+" horiz-adv-x="563" 
d="M36 290v147h171v172h147v-172h172v-147h-172v-171h-147v171h-171z" />
    <glyph glyph-name="comma" unicode="," horiz-adv-x="299" 
d="M258 105l-118 -264h-137l79 264h176z" />
    <glyph glyph-name="hyphen" unicode="-" horiz-adv-x="317" 
d="M27 211v147h263v-147h-263z" />
    <glyph glyph-name="hyphen" unicode="&#xad;" horiz-adv-x="317" 
d="M27 211v147h263v-147h-263z" />
    <glyph glyph-name="period" unicode="." horiz-adv-x="299" 
d="M149 164q54 0 73 -15.5t19 -66.5q0 -55 -19 -72t-73 -17q-53 0 -72 17t-19 72q0 51 19 66.5t72 15.5z" />
    <glyph glyph-name="slash" unicode="/" horiz-adv-x="487" 
d="M358 697h164l-357 -697h-163z" />
    <glyph glyph-name="zero" unicode="0" 
d="M314 714q93 0 149.5 -29.5t88 -109t31.5 -217.5q0 -141 -31.5 -224t-88.5 -115.5t-149 -32.5t-149.5 32.5t-89 115.5t-31.5 224q0 104 17 174t52.5 110t83 56t117.5 16zM314 134q48 0 70 16.5t30.5 61.5t8.5 146q0 74 -3.5 113t-17 62.5t-32.5 29t-56 5.5
q-48 0 -69 -13.5t-30 -56.5t-9 -140q0 -76 4 -117.5t16.5 -67t32 -32.5t55.5 -7z" />
    <glyph glyph-name="one" unicode="1" 
d="M430 0h-159v523l-156 -63l-42 136l357 133v-729z" />
    <glyph glyph-name="two" unicode="2" 
d="M96 542l-34 137q100 35 237 35q139 0 200 -44t61 -165q0 -46 -7 -78t-23 -62.5t-53 -64t-84.5 -69t-130.5 -90.5h301v-141h-523v131q94 70 141.5 105.5t94 74.5t63.5 56t31.5 41t16.5 39t2 41q0 47 -23 64t-84 17q-101 0 -186 -27z" />
    <glyph glyph-name="three" unicode="3" 
d="M186 293v138h105q50 0 69 14t19 55q0 39 -26 53t-109 14q-104 0 -167 -19l-30 141q113 25 235 25q153 0 211 -40t58 -141q0 -79 -31 -119t-119 -47q94 -4 129 -48t35 -132q0 -111 -65 -156t-219 -45q-127 0 -237 24l30 143q63 -19 169 -19q90 0 118 16t28 63q0 46 -21 63
t-74 17h-108z" />
    <glyph glyph-name="four" unicode="4" horiz-adv-x="626" 
d="M353 166h-345v55q162 291 293 476h206v-396h90v-135h-90v-166h-154v166zM353 301v247q-76 -103 -153 -247h153z" />
    <glyph glyph-name="five" unicode="5" 
d="M89 697h451v-141h-299v-120q35 3 69 3q146 0 201 -48.5t55 -169.5q0 -135 -60 -185t-215 -50q-139 0 -233 24l30 143q59 -19 165 -19q86 0 111.5 15t25.5 66q0 54 -24 70t-112 16q-90 0 -165 -10v406z" />
    <glyph glyph-name="six" unicode="6" 
d="M566 688l-31 -142q-58 20 -168 20q-74 0 -107 -26.5t-37 -108.5q53 8 107 8q148 0 204 -49t56 -169q0 -136 -58 -185.5t-210 -49.5q-153 0 -213 78.5t-60 289.5q0 144 31 221t97.5 108t189.5 31q107 0 199 -26zM322 134q60 0 80 18t20 65q0 50 -20 67.5t-73 17.5
q-57 0 -109 -6q3 -101 25 -131.5t77 -30.5z" />
    <glyph glyph-name="seven" unicode="7" 
d="M611 697v-46q-63 -101 -157 -305.5t-140 -345.5h-183q58 158 133 319.5t132 236.5h-340v141h555z" />
    <glyph glyph-name="eight" unicode="8" 
d="M315 117q58 0 79 18.5t21 68.5q0 52 -21.5 74t-78.5 22q-58 0 -80 -22t-22 -74q0 -50 21.5 -68.5t80.5 -18.5zM315 425q49 0 70.5 18t21.5 62t-20.5 59.5t-71.5 15.5q-53 0 -73.5 -15.5t-20.5 -59.5t22 -62t72 -18zM315 -14h-1q-151 0 -210 45t-59 156q0 88 34.5 132
t128.5 48q-88 7 -119 47t-31 119q0 67 20 104t76.5 57t159.5 20t159.5 -20t76.5 -57t20 -104q0 -79 -31 -119t-119 -47q94 -4 128.5 -48t34.5 -132q0 -111 -58.5 -156t-209.5 -45z" />
    <glyph glyph-name="nine" unicode="9" 
d="M162 0q154 157 207 264q-24 -2 -62 -2q-148 0 -203.5 47t-55.5 167q0 136 58 187t210 51q111 0 168.5 -22.5t80 -72.5t22.5 -145q0 -136 -59.5 -249.5t-168.5 -224.5h-197zM328 398q46 0 82 4q5 22 5 57q0 69 -19 88.5t-80 19.5t-81 -18.5t-20 -67.5q0 -52 20.5 -67.5
t92.5 -15.5z" />
    <glyph glyph-name="colon" unicode=":" horiz-adv-x="299" 
d="M149 164q54 0 73 -15.5t19 -66.5q0 -55 -19 -72t-73 -17q-53 0 -72 17t-19 72q0 51 19 66.5t72 15.5zM149 520q55 0 73.5 -15t18.5 -66q0 -55 -19 -72t-73 -17q-53 0 -72 17t-19 72q0 51 19 66t72 15z" />
    <glyph glyph-name="semicolon" unicode=";" horiz-adv-x="299" 
d="M258 105l-118 -264h-137l79 264h176zM149 520q55 0 73.5 -15t18.5 -66q0 -55 -19 -72t-73 -17q-53 0 -72 17t-19 72q0 51 19 66t72 15z" />
    <glyph glyph-name="less" unicode="&#x3c;" horiz-adv-x="563" 
d="M514 570l-242 -205l242 -209l-79 -112l-364 282v74l363 281z" />
    <glyph glyph-name="equal" unicode="=" horiz-adv-x="563" 
d="M36 141v147h490v-147h-490zM36 440v147h490v-147h-490z" />
    <glyph glyph-name="greater" unicode="&#x3e;" horiz-adv-x="563" 
d="M71 156l242 205l-242 208l79 113l365 -282v-74l-363 -281z" />
    <glyph glyph-name="question" unicode="?" horiz-adv-x="506" 
d="M246 163q55 0 74 -15t19 -66q0 -55 -19 -71.5t-74 -16.5q-53 0 -72 16.5t-19 71.5q0 51 19 66t72 15zM321 223h-154q75 87 106 145t31 133q0 65 -110 65q-95 0 -146 -19l-31 142q88 25 193 25q149 0 214 -49.5t65 -157.5q0 -76 -43.5 -143t-124.5 -141z" />
    <glyph glyph-name="at" unicode="@" horiz-adv-x="942" 
d="M433 508q-77 0 -120.5 -8t-74.5 -34t-41.5 -71.5t-10.5 -124.5q0 -83 11.5 -130.5t45.5 -77t86 -39t142 -9.5q173 0 231 58.5t58 234.5q0 121 -20 173h133q19 -70 19 -178q0 -232 -96.5 -322t-323.5 -90q-116 0 -192.5 17t-130 60t-76.5 115.5t-23 183.5q0 108 25.5 181
t78 113t119 56t160.5 16q75 0 120.5 -10.5t78 -41.5t45 -85.5t12.5 -144.5q0 -85 -9.5 -133.5t-38 -76.5t-69 -36.5t-114.5 -8.5q-120 0 -161.5 34.5t-41.5 134.5t38.5 133t144.5 33q60 0 112 -10q-2 52 -24.5 70t-92.5 18zM473 326q-43 0 -58 -10.5t-15 -47.5t15 -48.5
t62 -11.5q41 0 57 14t16 55v44q-38 5 -77 5z" />
    <glyph glyph-name="A" unicode="A" horiz-adv-x="689" 
d="M543 0q-30 71 -59 154h-287q-20 -65 -45 -154h-172q101 339 247 697h249q117 -386 245 -697h-178zM355 557h-26q-36 -98 -91 -264h200q-51 152 -83 264z" />
    <glyph glyph-name="B" unicode="B" horiz-adv-x="723" 
d="M243 137h195q51 0 51 77q0 83 -55 83h-191v-160zM243 560v-132h190q24 0 34.5 15t10.5 51t-10.5 51t-34.5 15h-190zM502 367q94 -4 128 -47t34 -132q0 -101 -47 -144.5t-137 -43.5h-398v697h395q100 0 137 -40t37 -127q0 -79 -30.5 -117.5t-118.5 -45.5z" />
    <glyph glyph-name="C" unicode="C" horiz-adv-x="588" 
d="M49 355q0 106 19.5 176t62 110.5t101.5 56.5t147 16q114 0 202 -25l-31 -142q-54 19 -137 19q-58 0 -90 -6t-57.5 -28t-35 -64.5t-9.5 -114.5t9.5 -115t34.5 -66t58 -30t90 -7q78 0 137 19l31 -145q-89 -23 -202 -23q-174 0 -252 81t-78 288z" />
    <glyph glyph-name="D" unicode="D" horiz-adv-x="753" 
d="M82 697h291q87 0 146.5 -16t102 -54.5t62.5 -106t20 -168.5q0 -197 -78.5 -274.5t-252.5 -77.5h-291v697zM532 350q0 71 -7 111t-30 61.5t-53 27.5t-88 6h-111v-414h111q75 0 110.5 15t51.5 58.5t16 134.5z" />
    <glyph glyph-name="E" unicode="E" horiz-adv-x="626" 
d="M82 697h520v-141h-359v-125h257v-138h-257v-152h359v-141h-520v697z" />
    <glyph glyph-name="F" unicode="F" horiz-adv-x="590" 
d="M82 697h508v-141h-347v-162h257v-138h-257v-256h-161v697z" />
    <glyph glyph-name="G" unicode="G" horiz-adv-x="712" 
d="M479 140v146h-138v138h303v-405q-44 -14 -121 -23.5t-144 -9.5q-174 0 -252 81t-78 288q0 105 22.5 176t70 110.5t111 56t154.5 16.5q130 0 218 -25l-29 -142q-24 8 -80 14t-93 6q-62 0 -96 -6.5t-60.5 -28.5t-36 -64t-9.5 -115q0 -72 9.5 -115t34.5 -66t58 -30t90 -7
q21 0 66 5z" />
    <glyph glyph-name="H" unicode="H" horiz-adv-x="748" 
d="M243 294v-294h-161v697h161v-254h262v254h161v-697h-161v294h-262z" />
    <glyph glyph-name="I" unicode="I" horiz-adv-x="325" 
d="M82 697h161v-697h-161v697z" />
    <glyph glyph-name="J" unicode="J" horiz-adv-x="472" 
d="M394 697v-505q0 -58 -18.5 -100t-51.5 -64t-70.5 -32t-81.5 -10q-93 0 -169 26l27 144q57 -20 123 -20q78 0 78 82v479h163z" />
    <glyph glyph-name="K" unicode="K" horiz-adv-x="684" 
d="M243 697v-697h-161v697h161zM700 0h-194q-88 161 -159.5 257.5t-102.5 110.5q33 27 101 116t144 213h192q-79 -123 -143.5 -208.5t-92.5 -111.5q29 -23 100 -123t155 -254z" />
    <glyph glyph-name="L" unicode="L" horiz-adv-x="553" 
d="M82 697h161v-555h314v-142h-475v697z" />
    <glyph glyph-name="M" unicode="M" horiz-adv-x="939" 
d="M477 289q80 212 174 408h206v-697h-156v471q-79 -174 -172 -413h-128q-121 318 -163 413v-471h-156v697h216q83 -165 179 -408z" />
    <glyph glyph-name="N" unicode="N" horiz-adv-x="796" 
d="M714 697v-697h-200q-118 218 -274 476v-476h-158v697h210q136 -222 262 -459v459h160z" />
    <glyph glyph-name="O" unicode="O" horiz-adv-x="775" 
d="M388 714q88 0 148 -16.5t104.5 -56.5t65.5 -110t21 -175q0 -106 -21 -178.5t-65.5 -114.5t-105 -59.5t-147.5 -17.5t-148 17.5t-105 59.5t-65 114t-21 179q0 105 21 175t65.5 110t104.5 56.5t148 16.5zM388 133q56 0 86 7t50 32t25.5 65.5t5.5 116.5q0 60 -4.5 95.5
t-13.5 60.5t-30 36.5t-47 15.5t-72 4t-72 -4t-47 -15.5t-30 -36.5t-13.5 -60.5t-4.5 -95.5q0 -76 5.5 -116.5t25.5 -65.5t50 -32t86 -7z" />
    <glyph glyph-name="P" unicode="P" horiz-adv-x="684" 
d="M243 350h172q70 0 70 102q0 107 -68 107h-174v-209zM243 0h-161v697h389q191 0 191 -245q0 -101 -48.5 -168t-141.5 -67h-229v-217z" />
    <glyph glyph-name="Q" unicode="Q" horiz-adv-x="782" 
d="M391 714q88 0 148 -16.5t104.5 -56.5t65.5 -110t21 -175q0 -152 -45 -230.5t-135 -99.5q66 -20 205 -218h-186q-105 170 -179 178q-175 0 -256.5 81.5t-81.5 288.5q0 105 21 175t65.5 110t104.5 56.5t148 16.5zM391 133q56 0 86 7t50 32t25.5 65.5t5.5 116.5
q0 60 -4.5 95.5t-13.5 60.5t-30 36.5t-47 15.5t-72 4t-72 -4t-47 -15.5t-30 -36.5t-13.5 -60.5t-4.5 -95.5q0 -76 5.5 -116.5t25.5 -65.5t50 -32t86 -7z" />
    <glyph glyph-name="R" unicode="R" horiz-adv-x="722" 
d="M243 560v-179h179q61 0 61 87q0 92 -59 92h-181zM488 299q36 -13 85 -76t144 -223h-201q-80 141 -124 195t-77 54h-72v-249h-161v697h389q191 0 191 -204q0 -83 -40.5 -136t-133.5 -58z" />
    <glyph glyph-name="S" unicode="S" horiz-adv-x="622" 
d="M571 681l-33 -138q-81 23 -191 23q-76 0 -105 -15.5t-29 -52.5q0 -34 26.5 -49t114.5 -24q120 -14 175 -63.5t55 -148.5q0 -127 -71.5 -177t-237.5 -50q-134 0 -226 33l33 138q86 -23 191 -23q79 0 108 14.5t29 53.5q0 24 -10 37.5t-43 24t-97 17.5q-115 12 -167 56
t-52 138q0 128 74.5 183.5t232.5 55.5q132 0 223 -33z" />
    <glyph glyph-name="T" unicode="T" horiz-adv-x="629" 
d="M396 0h-162v556h-233v141h627v-141h-232v-556z" />
    <glyph glyph-name="U" unicode="U" horiz-adv-x="745" 
d="M509 697h162v-502q0 -62 -20.5 -103.5t-61.5 -64t-93 -32t-124 -9.5q-149 0 -224 45t-75 164v502h163v-421q0 -29 1 -43.5t4.5 -33.5t12 -28t23.5 -18.5t38.5 -13t56.5 -3.5q40 0 66 6.5t40 15.5t21 29.5t8.5 37.5t1.5 51v421z" />
    <glyph glyph-name="V" unicode="V" horiz-adv-x="653" 
d="M-32 697h178q43 -102 97.5 -257t86.5 -267q77 197 171 524h172q-41 -143 -114 -344t-137 -353h-206q-127 421 -248 697z" />
    <glyph glyph-name="W" unicode="W" horiz-adv-x="1011" 
d="M509 421q-40 -180 -113 -421h-205q-105 433 -197 697h175q78 -230 137 -488q96 318 130 488h146q90 -302 130 -488q76 236 128 488h169q-75 -318 -199 -697h-206q-31 162 -95 421z" />
    <glyph glyph-name="X" unicode="X" horiz-adv-x="688" 
d="M200 697q39 -51 151 -202q81 114 134 202h201q-83 -126 -234 -342q177 -252 246 -355h-203q-73 110 -145 212q-104 -140 -161 -212h-201q85 106 261 352q-176 241 -260 345h211z" />
    <glyph glyph-name="Y" unicode="Y" horiz-adv-x="653" 
d="M159 697q84 -110 179 -247q120 169 166 247h199q-135 -207 -287 -413v-284h-161v283q-210 294 -310 414h214z" />
    <glyph glyph-name="Z" unicode="Z" 
d="M15 0v34q166 237 343 522h-323v141h579v-32q-60 -104 -171 -273.5t-173 -250.5h342v-141h-597z" />
    <glyph glyph-name="bracketleft" unicode="[" horiz-adv-x="378" 
d="M92 755h305v-133h-146v-750h146v-132h-305v1015z" />
    <glyph glyph-name="backslash" unicode="\" horiz-adv-x="487" 
d="M-20 697h164l356 -697h-163z" />
    <glyph glyph-name="bracketright" unicode="]" horiz-adv-x="378" 
d="M-19 755h305v-1015h-305v132h146v750h-146v133z" />
    <glyph glyph-name="asciicircum" unicode="^" horiz-adv-x="561" 
d="M380 296l-101 231l-100 -231h-164l192 401h144l195 -401h-166z" />
    <glyph glyph-name="underscore" unicode="_" horiz-adv-x="507" 
d="M27 -184v147h453v-147h-453z" />
    <glyph glyph-name="grave" unicode="`" horiz-adv-x="475" 
d="M368 568h-129l-151 129h158z" />
    <glyph glyph-name="a" unicode="a" horiz-adv-x="569" 
d="M508 327v-301q-110 -40 -243 -40q-127 0 -173 35t-46 135t48.5 133.5t151.5 33.5q53 0 116 -13q0 55 -21.5 73t-94.5 18q-80 0 -159 -24l-24 122q106 27 220 27q119 0 172 -44t53 -155zM204 161q0 -39 14 -50t59 -11q48 0 85 14v97q-27 7 -83 7q-44 0 -59.5 -10.5
t-15.5 -46.5z" />
    <glyph glyph-name="b" unicode="b" horiz-adv-x="596" 
d="M220 358v-236q35 -13 78 -13q39 0 58 10t29 42t10 97q0 80 -19.5 108t-73.5 28q-35 0 -58.5 -10t-23.5 -26zM66 22v700h154v-225q56 29 127 29q105 0 153.5 -58t48.5 -207q0 -154 -58.5 -214.5t-192.5 -60.5q-138 0 -232 36z" />
    <glyph glyph-name="c" unicode="c" horiz-adv-x="472" 
d="M430 141l32 -129q-63 -26 -161 -26q-124 0 -189.5 62t-65.5 211q0 147 65.5 207t189.5 60q98 0 161 -22l-32 -130q-55 21 -116 21q-63 0 -88 -25.5t-25 -113.5q0 -85 26 -111.5t87 -26.5q60 0 116 23z" />
    <glyph glyph-name="d" unicode="d" horiz-adv-x="596" 
d="M376 127v235q0 16 -23 27.5t-57 11.5q-54 0 -74.5 -30t-20.5 -111q0 -90 20 -117.5t77 -27.5q50 0 78 12zM530 722v-700q-96 -36 -232 -36q-135 0 -193.5 59.5t-58.5 212.5q0 146 57 207t160 61q60 0 113 -22v218h154z" />
    <glyph glyph-name="e" unicode="e" horiz-adv-x="556" 
d="M459 131l23 -117q-84 -28 -185 -28q-118 0 -184.5 62.5t-66.5 210.5q0 147 61.5 207t179.5 60q68 0 110.5 -12.5t73 -46.5t41 -96t5.5 -160h-313q1 -58 27 -77.5t86 -19.5q77 0 142 17zM298 410q-47 0 -66.5 -18.5t-26.5 -67.5h178q-1 52 -19.5 69t-65.5 17z" />
    <glyph glyph-name="f" unicode="f" horiz-adv-x="387" 
d="M237 528v-17h158v-132h-158v-379h-153v379h-83v132h83v27q0 55 15.5 93.5t44 58.5t62 28t76.5 8q83 0 150 -24l-33 -119q-42 13 -97 13q-34 0 -49.5 -16t-15.5 -52z" />
    <glyph glyph-name="g" unicode="g" horiz-adv-x="596" 
d="M376 154v236q-34 14 -78 14q-39 0 -58 -10t-29 -42t-10 -97q0 -81 19.5 -109t73.5 -28q35 0 58.5 10t23.5 26zM376 18q-58 -29 -124 -29q-105 0 -155.5 57.5t-50.5 205.5q0 153 59 213.5t193 60.5q136 0 232 -36v-449q0 -74 -20.5 -124t-61 -75.5t-88 -35.5t-113.5 -10
q-104 0 -187 30l27 120q87 -23 157 -23q66 0 99 21t33 74z" />
    <glyph glyph-name="h" unicode="h" horiz-adv-x="597" 
d="M356 526q45 0 75 -9t55.5 -33t37.5 -70t12 -117v-297h-153v291q0 53 -21 76t-66 23q-32 0 -54.5 -8.5t-22.5 -23.5v-358h-153v722h153v-228q74 32 137 32z" />
    <glyph glyph-name="i" unicode="i" horiz-adv-x="284" 
d="M220 512v-512h-154v512h154zM143 734q51 0 69 -13.5t18 -59.5q0 -50 -18 -65.5t-69 -15.5t-69 15.5t-18 65.5q0 46 18 59.5t69 13.5z" />
    <glyph glyph-name="j" unicode="j" horiz-adv-x="284" 
d="M143 734q51 0 69 -13.5t18 -59.5q0 -50 -18 -65.5t-69 -15.5t-69 15.5t-18 65.5q0 46 18 59.5t69 13.5zM220 512v-514q0 -112 -54 -156.5t-178 -44.5v124q78 0 78 73v518h154z" />
    <glyph glyph-name="k" unicode="k" horiz-adv-x="588" 
d="M589 0h-178q-160 255 -191 271v-271h-154v722h154v-451q44 40 177 241h177q-122 -187 -176 -232q20 -14 72 -88t119 -192z" />
    <glyph glyph-name="l" unicode="l" horiz-adv-x="292" 
d="M220 722v-573q0 -72 34 -124l-138 -50q-50 61 -50 170v577h154z" />
    <glyph glyph-name="m" unicode="m" horiz-adv-x="891" 
d="M220 380v-380h-154v480q126 46 254 46q84 0 128 -33q94 33 177 33q109 0 157 -54t48 -189v-283h-153v271q0 71 -16.5 94.5t-68.5 23.5q-40 0 -77 -9q10 -45 10 -97v-283h-153v271q0 71 -16.5 94.5t-68.5 23.5q-37 0 -67 -9z" />
    <glyph glyph-name="n" unicode="n" horiz-adv-x="597" 
d="M220 380v-380h-154v480q126 46 260 46q110 0 160.5 -54.5t50.5 -188.5v-283h-154v271q0 71 -17.5 94.5t-72.5 23.5q-35 0 -73 -9z" />
    <glyph glyph-name="o" unicode="o" horiz-adv-x="590" 
d="M294 -14q-129 0 -188.5 60.5t-59.5 212.5q0 151 59.5 209t188.5 58q131 0 190.5 -58t59.5 -209q0 -152 -60 -212.5t-190 -60.5zM294 406q-57 0 -75 -26.5t-18 -123.5q0 -94 18.5 -122t74.5 -28t75 28t19 122q0 67 -9 99t-27 41.5t-58 9.5z" />
    <glyph glyph-name="p" unicode="p" horiz-adv-x="596" 
d="M220 386v-235q0 -17 22.5 -28t56.5 -11q55 0 75.5 29.5t20.5 110.5q0 90 -20 118t-77 28q-47 0 -78 -12zM66 -192v682q94 36 232 36q135 0 193 -58.5t58 -211.5q0 -147 -57 -208.5t-160 -61.5q-58 0 -112 23v-201h-154z" />
    <glyph glyph-name="q" unicode="q" horiz-adv-x="596" 
d="M376 154v236q-34 14 -78 14q-39 0 -58 -10t-29 -42t-10 -97q0 -81 19.5 -109t73.5 -28q35 0 58.5 10t23.5 26zM530 490v-682h-154v209q-58 -31 -128 -31q-105 0 -153.5 58.5t-48.5 207.5q0 153 59 213.5t193 60.5q136 0 232 -36z" />
    <glyph glyph-name="r" unicode="r" horiz-adv-x="397" 
d="M66 0v512h154v-40q31 54 124 54q24 0 51 -3v-143q-27 8 -72 8q-44 0 -73.5 -14t-29.5 -38v-336h-154z" />
    <glyph glyph-name="s" unicode="s" horiz-adv-x="484" 
d="M439 498l-30 -114q-80 22 -151 22q-40 0 -56 -8t-16 -36q0 -20 17 -28.5t76 -15.5q92 -12 132 -46t40 -110q0 -97 -61 -136.5t-168 -39.5q-105 0 -182 28l30 116q73 -21 145 -21q49 0 68.5 8.5t19.5 36.5q0 22 -20 31.5t-82 15.5q-86 8 -125 40t-39 110q0 97 60 136
t167 39q96 0 175 -28z" />
    <glyph glyph-name="t" unicode="t" horiz-adv-x="427" 
d="M405 380h-160v-191q0 -40 14.5 -56.5t54.5 -16.5t82 14l25 -118q-62 -26 -154 -26q-91 0 -133.5 39t-42.5 148v207h-83v132h83v76l154 62v-138h160v-132z" />
    <glyph glyph-name="u" unicode="u" horiz-adv-x="597" 
d="M379 132v380h152v-481q-130 -46 -259 -46q-110 0 -160 54.5t-50 188.5v284h152v-272q0 -70 18 -94t73 -24q29 0 74 10z" />
    <glyph glyph-name="v" unicode="v" horiz-adv-x="512" 
d="M256 156q72 205 109 355h153q-76 -258 -180 -511h-183q-81 285 -166 511h155q61 -161 112 -355z" />
    <glyph glyph-name="w" unicode="w" horiz-adv-x="838" 
d="M418 297q-28 -131 -83 -297h-184q-69 255 -163 512h157q61 -164 107 -352q53 157 100 352h139q53 -165 95 -352q74 216 105 352h154q-86 -294 -176 -512h-184q-34 171 -67 297z" />
    <glyph glyph-name="x" unicode="x" horiz-adv-x="520" 
d="M529 0h-169q-28 48 -92 140q-70 -96 -107 -140h-167q60 70 195 255q-114 160 -193 256h176q30 -37 100 -135q27 38 89 135h167q-54 -83 -174 -252q113 -161 175 -259z" />
    <glyph glyph-name="y" unicode="y" horiz-adv-x="512" 
d="M165 -25q-72 260 -176 536h155q59 -154 112 -356q75 214 109 356h153q-78 -272 -195 -542q-46 -108 -73 -161h-169q37 63 84 167z" />
    <glyph glyph-name="z" unicode="z" horiz-adv-x="498" 
d="M27 512h458v-25q-107 -179 -238 -355h226v-132h-463v25q63 84 136 192t104 163h-223v132z" />
    <glyph glyph-name="braceleft" unicode="{" horiz-adv-x="378" 
d="M395 659q-35 -13 -54.5 -32t-31.5 -61.5t-12 -112.5q0 -101 -27 -147.5t-61 -56.5q34 -10 61 -58t27 -150q0 -71 11.5 -112t31 -60t55.5 -33l-73 -111q-172 58 -172 259q0 200 -111 200v128q111 0 111 201q0 202 172 260z" />
    <glyph glyph-name="bar" unicode="|" horiz-adv-x="401" 
d="M120 755h161v-1011h-161v1011z" />
    <glyph glyph-name="braceright" unicode="}" horiz-adv-x="378" 
d="M339 312v-127q-111 0 -111 -200q0 -202 -172 -260l-72 114q35 14 54 32.5t31 60.5t12 112q0 101 27 148t61 57q-34 10 -61 57.5t-27 149.5q0 70 -11 111.5t-30.5 60.5t-55.5 33l72 112q172 -58 172 -260q0 -201 111 -201z" />
    <glyph glyph-name="asciitilde" unicode="~" horiz-adv-x="563" 
d="M446 455l96 -77q-19 -52 -62 -86.5t-102 -34.5q-28 0 -58.5 13t-52 28.5t-48 28.5t-47.5 13q-38 0 -62 -57l-87 85q60 102 145 102q41 0 81.5 -20t74 -40.5t57.5 -20.5q23 0 37 14t28 52z" />
    <glyph glyph-name="nbspace" unicode="&#xa0;" horiz-adv-x="257" 
 />
    <glyph glyph-name="exclamdown" unicode="&#xa1;" horiz-adv-x="333" 
d="M259 -177h-183l36 461h111zM166 356q-55 0 -74 15t-19 66q0 55 19 72t74 17q53 0 72 -17t19 -72q0 -51 -19 -66t-72 -15z" />
    <glyph glyph-name="cent" unicode="&#xa2;" horiz-adv-x="455" 
d="M236 748h117v-106q55 -5 95 -19l-31 -116q-25 10 -64 12v-287q38 2 64 14l31 -115q-34 -14 -95 -22v-119h-117v119q-92 14 -141.5 77t-49.5 192q0 128 49.5 189.5t141.5 73.5v107zM187 375q0 -101 49 -124v250q-49 -23 -49 -126z" />
    <glyph glyph-name="sterling" unicode="&#xa3;" horiz-adv-x="615" 
d="M30 280v127h56v64q0 124 69 183.5t222 59.5q127 0 223 -33l-33 -138q-81 23 -191 23q-75 0 -102 -19t-27 -64v-76h199v-127h-199v-139h328v-141h-489v280h-56z" />
    <glyph glyph-name="currency" unicode="&#xa4;" horiz-adv-x="688" 
d="M349 83q-53 0 -87 11l-73 -94l-132 90l74 98q-31 59 -31 168q0 100 27 159l-72 94l143 88l64 -84q39 11 87 11q43 0 85 -10l54 83l143 -87l-62 -89q30 -60 30 -165q0 -107 -30 -167l69 -99l-143 -90l-62 93q-36 -10 -84 -10zM349 496q-41 0 -60 -7.5t-30 -38.5t-11 -97
q0 -64 11 -94.5t30.5 -39t59.5 -8.5t59.5 8.5t30.5 39t11 94.5q0 66 -11 97t-30 38.5t-60 7.5z" />
    <glyph glyph-name="yen" unicode="&#xa5;" horiz-adv-x="653" 
d="M90 260v109h103q-172 234 -248 328h214q84 -110 179 -247q120 169 166 247h199q-108 -164 -226 -328h94v-109h-155v-68h155v-109h-155v-83h-161v83h-165v109h165v68h-165z" />
    <glyph glyph-name="brokenbar" unicode="&#xa6;" horiz-adv-x="401" 
d="M120 755h161v-367h-161v367zM120 111h161v-367h-161v367z" />
    <glyph glyph-name="section" unicode="&#xa7;" horiz-adv-x="622" 
d="M560 682l-31 -129q-72 22 -178 22q-71 0 -99 -15t-28 -49q0 -32 25 -45.5t108 -22.5q116 -13 174.5 -59.5t58.5 -136.5q0 -65 -49 -119q33 -40 33 -106q0 -117 -76 -171t-225 -54q-125 0 -208 31l31 130q75 -23 178 -23q71 0 99 15.5t28 49.5q0 32 -25 45.5t-108 22.5
q-116 13 -174.5 59.5t-58.5 136.5q0 70 45 123q-30 39 -30 102q0 117 76.5 171t225.5 54q122 0 208 -32zM215 316q-19 -13 -19 -42q0 -23 11 -35t45 -20.5t103 -15.5q34 -3 54 -10q20 18 20 44q0 33 -29.5 47.5t-129.5 23.5q-30 1 -55 8z" />
    <glyph glyph-name="dieresis" unicode="&#xa8;" horiz-adv-x="490" 
d="M124 694q41 0 55 -12t14 -52q0 -44 -14.5 -57.5t-54.5 -13.5t-54 13.5t-14 57.5q0 40 14 52t54 12zM350 694q40 0 54 -12t14 -52q0 -44 -14 -57.5t-54 -13.5q-41 0 -55 13.5t-14 57.5q0 40 14 52t55 12z" />
    <glyph glyph-name="copyright" unicode="&#xa9;" horiz-adv-x="819" 
d="M410 714q90 0 153.5 -16.5t111 -56t70 -110t22.5 -175.5q0 -106 -22.5 -178.5t-70 -114.5t-111 -59.5t-153.5 -17.5q-91 0 -154.5 17.5t-111 59.5t-70 114.5t-22.5 178.5q0 105 22.5 175.5t70 110t111 56t154.5 16.5zM409 94q93 0 138.5 18t68 74t22.5 170
q0 84 -10.5 132.5t-40 74.5t-68.5 33.5t-110 7.5q-70 0 -109 -7.5t-68.5 -33.5t-40 -74.5t-10.5 -132.5q0 -114 22.5 -170t68 -74t137.5 -18zM539 266l26 -102q-55 -21 -127 -21q-112 0 -158.5 43t-46.5 167q0 123 46.5 165t158.5 42q75 0 127 -19l-26 -103q-37 13 -91 13
q-50 0 -67.5 -18t-17.5 -82q0 -60 18.5 -79.5t66.5 -19.5q55 0 91 14z" />
    <glyph glyph-name="ordfeminine" unicode="&#xaa;" horiz-adv-x="450" 
d="M390 578v-219q-76 -28 -176 -28q-90 0 -122 24.5t-32 95.5t34.5 94.5t106.5 23.5q38 0 80 -8q0 38 -14.5 50t-65.5 12q-63 0 -111 -16l-17 88q78 19 154 19q84 0 123.5 -30.5t39.5 -105.5zM281 421v69q-19 5 -56 5q-29 0 -40.5 -7.5t-11.5 -32.5q0 -26 10 -35t40 -9
q31 0 58 10z" />
    <glyph glyph-name="guillemotleft" unicode="&#xab;" horiz-adv-x="705" 
d="M382 516l-156 -195l156 -199l-86 -90l-273 286l271 286zM682 516l-157 -195l157 -199l-87 -90l-272 286l271 286z" />
    <glyph glyph-name="logicalnot" unicode="&#xac;" horiz-adv-x="531" 
d="M502 0h-160v294h-315v147h475v-441z" />
    <glyph glyph-name="registered" unicode="&#xae;" horiz-adv-x="573" 
d="M418 505q0 -44 -17 -61t-53 -17q48 -22 58 -102h-94q-2 28 -13 49t-21 21h-14v-70h-89v269h170q36 0 54.5 -25t18.5 -64zM326 500q0 23 -17 23h-45v-47h45q17 0 17 24zM534 459q0 -144 -58 -200.5t-189 -56.5q-132 0 -190 56.5t-58 200.5q0 145 58 199.5t190 54.5
q131 0 189 -54.5t58 -199.5zM441 459q0 74 -15.5 110.5t-46 48t-92.5 11.5q-90 0 -121.5 -31.5t-31.5 -138.5q0 -102 32.5 -136t120.5 -34q89 0 121.5 34t32.5 136z" />
    <glyph glyph-name="macron" unicode="&#xaf;" horiz-adv-x="514" 
d="M116 572v106h292v-106h-292z" />
    <glyph glyph-name="macron" unicode="&#x2c9;" horiz-adv-x="514" 
d="M116 572v106h292v-106h-292z" />
    <glyph glyph-name="degree" unicode="&#xb0;" horiz-adv-x="448" 
d="M223 714q110 0 153.5 -47.5t43.5 -178.5q0 -134 -44 -185t-153 -51q-108 0 -152 51t-44 185q0 131 43.5 178.5t152.5 47.5zM223 359q39 0 51 23t12 105q0 79 -12 100t-51 21t-51 -21t-12 -100q0 -81 12 -104.5t51 -23.5z" />
    <glyph glyph-name="plusminus" unicode="&#xb1;" horiz-adv-x="563" 
d="M36 371v147h171v171h147v-171h172v-147h-172v-171h-147v171h-171zM36 8v147h490v-147h-490z" />
    <glyph glyph-name="twosuperior" unicode="&#xb2;" horiz-adv-x="454" 
d="M69 582l-20 110q61 21 153 21q96 0 142.5 -32t46.5 -107q0 -105 -79 -134q-11 -4 -25 -8.5t-22.5 -7t-19 -6.5t-17 -6.5t-13.5 -6t-11 -6.5t-8 -7t-6 -8t-3 -9h205v-107h-356q6 95 36.5 143t98.5 80q7 3 20 8.5t20 8.5t16.5 8t15 9.5t10.5 10t7.5 11.5t2.5 14
q0 22 -15.5 30t-56.5 8q-65 0 -122 -17z" />
    <glyph glyph-name="threesuperior" unicode="&#xb3;" horiz-adv-x="447" 
d="M135 442v97h61q31 0 41.5 8t10.5 29q0 19 -15 26t-64 7q-64 0 -103 -13l-19 101q62 16 147 16q100 0 146 -26t46 -88q0 -50 -22 -75.5t-79 -29.5q60 -3 85.5 -30.5t25.5 -82.5q0 -68 -50.5 -97t-151.5 -29q-81 0 -149 15l19 103q41 -13 106 -13q52 0 68.5 8t16.5 31
q0 26 -12 34.5t-45 8.5h-63z" />
    <glyph glyph-name="acute" unicode="&#xb4;" horiz-adv-x="475" 
d="M218 568h-130l123 129h157z" />
    <glyph glyph-name="mu" unicode="&#xb5;" horiz-adv-x="597" 
d="M200 -192h-148l9 414v289h153v-271q0 -64 18 -91t72 -27q37 0 74 10v379h153v-480q-124 -45 -259 -45q-50 0 -76 10z" />
    <glyph glyph-name="mu" unicode="&#x3bc;" horiz-adv-x="597" 
d="M200 -192h-148l9 414v289h153v-271q0 -64 18 -91t72 -27q37 0 74 10v379h153v-480q-124 -45 -259 -45q-50 0 -76 10z" />
    <glyph glyph-name="paragraph" unicode="&#xb6;" horiz-adv-x="684" 
d="M602 0h-139v217h-80v-217h-139v217h-32q-93 0 -141.5 67t-48.5 168q0 245 191 245h389v-697z" />
    <glyph glyph-name="periodcentered" unicode="&#xb7;" horiz-adv-x="314" 
d="M156 391q59 0 79.5 -16.5t20.5 -70.5q0 -59 -20.5 -77.5t-79.5 -18.5q-57 0 -77.5 18.5t-20.5 77.5q0 54 20 70.5t78 16.5z" />
    <glyph glyph-name="periodcentered" unicode="&#x2219;" horiz-adv-x="314" 
d="M156 391q59 0 79.5 -16.5t20.5 -70.5q0 -59 -20.5 -77.5t-79.5 -18.5q-57 0 -77.5 18.5t-20.5 77.5q0 54 20 70.5t78 16.5z" />
    <glyph glyph-name="cedilla" unicode="&#xb8;" horiz-adv-x="635" 
d="M331 0h57v-39q54 0 79.5 -18.5t25.5 -60.5q0 -48 -31.5 -66.5t-111.5 -18.5q-59 0 -94 13l24 60q20 -9 62 -9q19 0 26.5 5t7.5 18q0 16 -18 21t-63 1z" />
    <glyph glyph-name="onesuperior" unicode="&#xb9;" horiz-adv-x="397" 
d="M285 270h-125v284l-95 -39l-34 105l254 103v-453z" />
    <glyph glyph-name="ordmasculine" unicode="&#xba;" horiz-adv-x="470" 
d="M234 316q-90 0 -135.5 46t-45.5 154q0 107 45.5 152.5t135.5 45.5q92 0 137.5 -45t45.5 -153t-45.5 -154t-137.5 -46zM234 622q-39 0 -52.5 -20t-13.5 -88q0 -65 14 -86t52 -21q39 0 53 21t14 86q0 68 -13.5 88t-53.5 20z" />
    <glyph glyph-name="guillemotright" unicode="&#xbb;" horiz-adv-x="705" 
d="M323 121l156 195l-156 199l87 90l272 -287l-271 -285zM24 121l156 195l-156 199l86 90l272 -287l-271 -285z" />
    <glyph glyph-name="onequarter" unicode="&#xbc;" horiz-adv-x="901" 
d="M553 697h148l-449 -697h-148zM682 91h-229v56q84 144 192 292h160v-239h57v-109h-57v-91h-123v91zM682 200v139q-57 -75 -93 -139h93zM263 270h-124v284l-96 -39l-33 105l253 103v-453z" />
    <glyph glyph-name="onehalf" unicode="&#xbd;" horiz-adv-x="901" 
d="M554 314l-20 110q60 21 152 21q96 0 143 -32t47 -107q0 -105 -79 -134l-31.5 -10.5t-28 -9.5t-21.5 -7.5t-19 -8t-12.5 -8t-9.5 -10t-4 -11.5h206v-107h-356q6 95 36 143.5t99 79.5q7 3 27 12t27 12.5t18.5 11t15.5 16t4 18.5q0 22 -15.5 30t-56.5 8q-65 0 -122 -17z
M551 697h148l-449 -697h-148zM261 270h-124v284l-96 -39l-33 105l253 103v-453z" />
    <glyph glyph-name="threequarters" unicode="&#xbe;" horiz-adv-x="901" 
d="M619 697h148l-449 -697h-147zM704 91h-229v56q84 144 192 292h160v-239h56v-109h-56v-91h-123v91zM704 200v139q-53 -68 -93 -139h93zM106 442v97h61q31 0 41.5 8t10.5 29q0 19 -14.5 26t-63.5 7q-63 0 -104 -13l-18 101q62 16 147 16q99 0 145 -26t46 -88
q0 -50 -22 -75.5t-78 -29.5q60 -3 85 -30.5t25 -82.5q0 -68 -50.5 -97t-150.5 -29q-82 0 -150 15l19 103q41 -13 106 -13q52 0 69 8t17 31q0 26 -12 34.5t-46 8.5h-63z" />
    <glyph glyph-name="questiondown" unicode="&#xbf;" horiz-adv-x="506" 
d="M262 356q-55 0 -74 15t-19 66q0 55 19 71.5t74 16.5q53 0 72 -16.5t19 -71.5q0 -51 -19 -66t-72 -15zM187 296h154q-75 -87 -106 -145t-31 -133q0 -65 110 -65q95 0 146 19l31 -142q-87 -25 -193 -25q-149 0 -214 49.5t-65 157.5q0 76 43.5 143t124.5 141z" />
    <glyph glyph-name="Agrave" unicode="&#xc0;" horiz-adv-x="689" 
d="M543 0q-30 71 -59 154h-287q-20 -65 -45 -154h-172q101 339 247 697h249q117 -386 245 -697h-178zM355 557h-26q-36 -98 -91 -264h200q-51 152 -83 264zM450 747h-132l-157 129h160z" />
    <glyph glyph-name="Aacute" unicode="&#xc1;" horiz-adv-x="689" 
d="M543 0q-30 71 -59 154h-287q-20 -65 -45 -154h-172q101 339 247 697h249q117 -386 245 -697h-178zM355 557h-26q-36 -98 -91 -264h200q-51 152 -83 264zM366 747h-130l127 129h159z" />
    <glyph glyph-name="Acircumflex" unicode="&#xc2;" horiz-adv-x="689" 
d="M543 0q-30 71 -59 154h-287q-20 -65 -45 -154h-172q101 339 247 697h249q117 -386 245 -697h-178zM355 557h-26q-36 -98 -91 -264h200q-51 152 -83 264zM411 747l-67 72l-64 -72h-130l122 129h147l126 -129h-134z" />
    <glyph glyph-name="Atilde" unicode="&#xc3;" horiz-adv-x="689" 
d="M543 0q-30 71 -59 154h-287q-20 -65 -45 -154h-172q101 339 247 697h249q117 -386 245 -697h-178zM355 557h-26q-36 -98 -91 -264h200q-51 152 -83 264zM459 885l72 -58q-14 -41 -47 -67.5t-78 -26.5q-33 0 -77 23.5t-66 23.5q-28 0 -48 -45l-65 64q45 79 110 79
q40 0 84.5 -22.5t64.5 -22.5q18 0 28.5 11t21.5 41z" />
    <glyph glyph-name="Adieresis" unicode="&#xc4;" horiz-adv-x="689" 
d="M543 0q-30 71 -59 154h-287q-20 -65 -45 -154h-172q101 339 247 697h249q117 -386 245 -697h-178zM355 557h-26q-36 -98 -91 -264h200q-51 152 -83 264zM231 872q41 0 55 -11.5t14 -51.5q0 -44 -14 -57.5t-55 -13.5q-40 0 -54 13.5t-14 57.5q0 40 13.5 51.5t54.5 11.5z
M457 872q40 0 54 -11.5t14 -51.5q0 -44 -14 -57.5t-54 -13.5q-41 0 -55 13.5t-14 57.5q0 40 14 51.5t55 11.5z" />
    <glyph glyph-name="Aring" unicode="&#xc5;" horiz-adv-x="689" 
d="M543 0q-30 71 -59 154h-287q-20 -65 -45 -154h-172q101 339 247 697h249q117 -386 245 -697h-178zM355 557h-26q-36 -98 -91 -264h200q-51 152 -83 264zM345 899q65 0 94 -22t29 -78t-29 -78t-94 -22q-66 0 -95.5 22t-29.5 78t28.5 78t96.5 22zM345 837q-28 0 -37.5 -8.5
t-9.5 -30.5t9.5 -30.5t37.5 -8.5q27 0 36.5 9t9.5 30q0 22 -9 30.5t-37 8.5z" />
    <glyph glyph-name="AE" unicode="&#xc6;" horiz-adv-x="972" 
d="M327 697h621v-141h-358v-125h209v-138h-209v-152h358v-141h-519v154h-295q-19 -30 -97 -154h-194q95 148 235 350t249 347zM429 557h-25q-79 -111 -180 -264h205v264z" />
    <glyph glyph-name="Ccedilla" unicode="&#xc7;" horiz-adv-x="588" 
d="M49 355q0 106 19.5 176t62 110.5t101.5 56.5t147 16q114 0 202 -25l-31 -142q-54 19 -137 19q-58 0 -90 -6t-57.5 -28t-35 -64.5t-9.5 -114.5t9.5 -115t34.5 -66t58 -30t90 -7q78 0 137 19l31 -145q-84 -21 -190 -23v-25q54 0 79.5 -18.5t25.5 -60.5q0 -48 -31.5 -66.5
t-111.5 -18.5q-59 0 -94 13l24 60q19 -9 62 -9q19 0 26.5 5t7.5 18q0 16 -18 21t-63 1l31 82q-147 9 -213.5 92t-66.5 275z" />
    <glyph glyph-name="Egrave" unicode="&#xc8;" horiz-adv-x="626" 
d="M82 697h520v-141h-359v-125h257v-138h-257v-152h359v-141h-520v697zM482 747h-132l-157 129h160z" />
    <glyph glyph-name="Eacute" unicode="&#xc9;" horiz-adv-x="626" 
d="M82 697h520v-141h-359v-125h257v-138h-257v-152h359v-141h-520v697zM375 747h-130l127 129h159z" />
    <glyph glyph-name="Ecircumflex" unicode="&#xca;" horiz-adv-x="626" 
d="M82 697h520v-141h-359v-125h257v-138h-257v-152h359v-141h-520v697zM414 747l-67 72l-64 -72h-130l122 129h147l126 -129h-134z" />
    <glyph glyph-name="Edieresis" unicode="&#xcb;" horiz-adv-x="626" 
d="M82 697h520v-141h-359v-125h257v-138h-257v-152h359v-141h-520v697zM234 872q41 0 55 -11.5t14 -51.5q0 -44 -14 -57.5t-55 -13.5q-40 0 -54 13.5t-14 57.5q0 40 13.5 51.5t54.5 11.5zM460 872q40 0 54 -11.5t14 -51.5q0 -44 -14 -57.5t-54 -13.5q-41 0 -55 13.5
t-14 57.5q0 40 14 51.5t55 11.5z" />
    <glyph glyph-name="Igrave" unicode="&#xcc;" horiz-adv-x="325" 
d="M82 697h161v-697h-161v697zM260 747h-132l-157 129h160z" />
    <glyph glyph-name="Iacute" unicode="&#xcd;" horiz-adv-x="325" 
d="M82 697h161v-697h-161v697zM199 747h-130l127 129h159z" />
    <glyph glyph-name="Icircumflex" unicode="&#xce;" horiz-adv-x="325" 
d="M82 697h161v-697h-161v697zM227 747l-67 72l-64 -72h-130l122 129h147l126 -129h-134z" />
    <glyph glyph-name="Idieresis" unicode="&#xcf;" horiz-adv-x="325" 
d="M82 697h161v-697h-161v697zM51 872q41 0 55 -11.5t14 -51.5q0 -44 -14 -57.5t-55 -13.5q-40 0 -54 13.5t-14 57.5q0 40 13.5 51.5t54.5 11.5zM277 872q40 0 54 -11.5t14 -51.5q0 -44 -14 -57.5t-54 -13.5q-41 0 -55 13.5t-14 57.5q0 40 14 51.5t55 11.5z" />
    <glyph glyph-name="Eth" unicode="&#xd0;" horiz-adv-x="753" 
d="M30 300v110h52v287h291q87 0 146.5 -16t102 -54.5t62.5 -106t20 -168.5q0 -197 -78.5 -274.5t-252.5 -77.5h-291v300h-52zM532 350q0 71 -7 110.5t-30 61.5t-53 27.5t-88 5.5h-111v-145h158v-110h-158v-158h111q75 0 110.5 15t51.5 58.5t16 134.5z" />
    <glyph glyph-name="Ntilde" unicode="&#xd1;" horiz-adv-x="796" 
d="M714 697v-697h-200q-118 218 -274 476v-476h-158v697h210q136 -222 262 -459v459h160zM517 885l72 -58q-14 -41 -47 -67.5t-78 -26.5q-33 0 -77 23.5t-66 23.5q-28 0 -48 -45l-65 64q45 79 110 79q40 0 84.5 -22.5t64.5 -22.5q18 0 28.5 11t21.5 41z" />
    <glyph glyph-name="Ograve" unicode="&#xd2;" horiz-adv-x="775" 
d="M388 714q88 0 148 -16.5t104.5 -56.5t65.5 -110t21 -175q0 -106 -21 -178.5t-65.5 -114.5t-105 -59.5t-147.5 -17.5t-148 17.5t-105 59.5t-65 114t-21 179q0 105 21 175t65.5 110t104.5 56.5t148 16.5zM388 133q56 0 86 7t50 32t25.5 65.5t5.5 116.5q0 60 -4.5 95.5
t-13.5 60.5t-30 36.5t-47 15.5t-72 4t-72 -4t-47 -15.5t-30 -36.5t-13.5 -60.5t-4.5 -95.5q0 -76 5.5 -116.5t25.5 -65.5t50 -32t86 -7zM494 747h-132l-157 129h160z" />
    <glyph glyph-name="Oacute" unicode="&#xd3;" horiz-adv-x="775" 
d="M388 714q88 0 148 -16.5t104.5 -56.5t65.5 -110t21 -175q0 -106 -21 -178.5t-65.5 -114.5t-105 -59.5t-147.5 -17.5t-148 17.5t-105 59.5t-65 114t-21 179q0 105 21 175t65.5 110t104.5 56.5t148 16.5zM388 133q56 0 86 7t50 32t25.5 65.5t5.5 116.5q0 60 -4.5 95.5
t-13.5 60.5t-30 36.5t-47 15.5t-72 4t-72 -4t-47 -15.5t-30 -36.5t-13.5 -60.5t-4.5 -95.5q0 -76 5.5 -116.5t25.5 -65.5t50 -32t86 -7zM375 747h-130l127 129h159z" />
    <glyph glyph-name="Ocircumflex" unicode="&#xd4;" horiz-adv-x="775" 
d="M388 714q88 0 148 -16.5t104.5 -56.5t65.5 -110t21 -175q0 -106 -21 -178.5t-65.5 -114.5t-105 -59.5t-147.5 -17.5t-148 17.5t-105 59.5t-65 114t-21 179q0 105 21 175t65.5 110t104.5 56.5t148 16.5zM388 133q56 0 86 7t50 32t25.5 65.5t5.5 116.5q0 60 -4.5 95.5
t-13.5 60.5t-30 36.5t-47 15.5t-72 4t-72 -4t-47 -15.5t-30 -36.5t-13.5 -60.5t-4.5 -95.5q0 -76 5.5 -116.5t25.5 -65.5t50 -32t86 -7zM450 747l-67 72l-64 -72h-130l122 129h147l126 -129h-134z" />
    <glyph glyph-name="Otilde" unicode="&#xd5;" horiz-adv-x="775" 
d="M388 714q88 0 148 -16.5t104.5 -56.5t65.5 -110t21 -175q0 -106 -21 -178.5t-65.5 -114.5t-105 -59.5t-147.5 -17.5t-148 17.5t-105 59.5t-65 114t-21 179q0 105 21 175t65.5 110t104.5 56.5t148 16.5zM388 133q56 0 86 7t50 32t25.5 65.5t5.5 116.5q0 60 -4.5 95.5
t-13.5 60.5t-30 36.5t-47 15.5t-72 4t-72 -4t-47 -15.5t-30 -36.5t-13.5 -60.5t-4.5 -95.5q0 -76 5.5 -116.5t25.5 -65.5t50 -32t86 -7zM506 885l72 -58q-14 -41 -47 -67.5t-78 -26.5q-33 0 -77 23.5t-66 23.5q-28 0 -48 -45l-65 64q45 79 110 79q40 0 84.5 -22.5
t64.5 -22.5q18 0 28.5 11t21.5 41z" />
    <glyph glyph-name="Odieresis" unicode="&#xd6;" horiz-adv-x="775" 
d="M388 714q88 0 148 -16.5t104.5 -56.5t65.5 -110t21 -175q0 -106 -21 -178.5t-65.5 -114.5t-105 -59.5t-147.5 -17.5t-148 17.5t-105 59.5t-65 114t-21 179q0 105 21 175t65.5 110t104.5 56.5t148 16.5zM388 133q56 0 86 7t50 32t25.5 65.5t5.5 116.5q0 60 -4.5 95.5
t-13.5 60.5t-30 36.5t-47 15.5t-72 4t-72 -4t-47 -15.5t-30 -36.5t-13.5 -60.5t-4.5 -95.5q0 -76 5.5 -116.5t25.5 -65.5t50 -32t86 -7zM273 872q41 0 55 -11.5t14 -51.5q0 -44 -14 -57.5t-55 -13.5q-40 0 -54 13.5t-14 57.5q0 40 13.5 51.5t54.5 11.5zM499 872
q40 0 54 -11.5t14 -51.5q0 -44 -14 -57.5t-54 -13.5q-41 0 -55 13.5t-14 57.5q0 40 14 51.5t55 11.5z" />
    <glyph glyph-name="multiply" unicode="&#xd7;" horiz-adv-x="563" 
d="M160 139l-104 104l121 121l-122 121l105 104l120 -121l121 122l105 -105l-122 -121l121 -121l-103 -104l-121 121z" />
    <glyph glyph-name="Oslash" unicode="&#xd8;" horiz-adv-x="775" 
d="M612 697h164q-16 -18 -48 -54.5t-48 -54.5q46 -80 46 -232q0 -106 -21 -178.5t-65 -114.5t-104.5 -59.5t-147.5 -17.5q-126 0 -200 39q-21 -24 -22 -25h-163q11 13 44 50.5t51 58.5q-50 86 -50 247q0 105 21 175t65.5 110t105 56.5t148.5 16.5q130 0 204 -41q4 4 10 12
t10 12zM388 566q-98 0 -130 -29t-36 -130q0 -7 -0.5 -23t-0.5 -25q0 -4 0.5 -12.5t0.5 -13.5q2 -48 7 -76q28 33 80 92.5t94.5 108.5t80.5 93q-31 15 -96 15zM388 133q98 0 130.5 31.5t35.5 139.5v71q-2 38 -7 61q-168 -192 -251 -289q28 -14 92 -14z" />
    <glyph glyph-name="Ugrave" unicode="&#xd9;" horiz-adv-x="745" 
d="M509 697h162v-502q0 -62 -20.5 -103.5t-61.5 -64t-93 -32t-124 -9.5q-149 0 -224 45t-75 164v502h163v-421q0 -29 1 -43.5t4.5 -33.5t12 -28t23.5 -18.5t38.5 -13t56.5 -3.5q40 0 66 6.5t40 15.5t21 29.5t8.5 37.5t1.5 51v421zM491 747h-132l-157 129h160z" />
    <glyph glyph-name="Uacute" unicode="&#xda;" horiz-adv-x="745" 
d="M509 697h162v-502q0 -62 -20.5 -103.5t-61.5 -64t-93 -32t-124 -9.5q-149 0 -224 45t-75 164v502h163v-421q0 -29 1 -43.5t4.5 -33.5t12 -28t23.5 -18.5t38.5 -13t56.5 -3.5q40 0 66 6.5t40 15.5t21 29.5t8.5 37.5t1.5 51v421zM385 747h-130l127 129h159z" />
    <glyph glyph-name="Ucircumflex" unicode="&#xdb;" horiz-adv-x="745" 
d="M509 697h162v-502q0 -62 -20.5 -103.5t-61.5 -64t-93 -32t-124 -9.5q-149 0 -224 45t-75 164v502h163v-421q0 -29 1 -43.5t4.5 -33.5t12 -28t23.5 -18.5t38.5 -13t56.5 -3.5q40 0 66 6.5t40 15.5t21 29.5t8.5 37.5t1.5 51v421zM433 747l-67 72l-64 -72h-130l122 129h147
l126 -129h-134z" />
    <glyph glyph-name="Udieresis" unicode="&#xdc;" horiz-adv-x="745" 
d="M509 697h162v-502q0 -62 -20.5 -103.5t-61.5 -64t-93 -32t-124 -9.5q-149 0 -224 45t-75 164v502h163v-421q0 -29 1 -43.5t4.5 -33.5t12 -28t23.5 -18.5t38.5 -13t56.5 -3.5q40 0 66 6.5t40 15.5t21 29.5t8.5 37.5t1.5 51v421zM257 872q41 0 55 -11.5t14 -51.5
q0 -44 -14 -57.5t-55 -13.5q-40 0 -54 13.5t-14 57.5q0 40 13.5 51.5t54.5 11.5zM483 872q40 0 54 -11.5t14 -51.5q0 -44 -14 -57.5t-54 -13.5q-41 0 -55 13.5t-14 57.5q0 40 14 51.5t55 11.5z" />
    <glyph glyph-name="Yacute" unicode="&#xdd;" horiz-adv-x="653" 
d="M159 697q84 -110 179 -247q120 169 166 247h199q-135 -207 -287 -413v-284h-161v283q-210 294 -310 414h214zM363 747h-130l127 129h159z" />
    <glyph glyph-name="Thorn" unicode="&#xde;" horiz-adv-x="684" 
d="M82 697h161v-96h228q191 0 191 -245q0 -101 -48.5 -167.5t-141.5 -66.5h-229v-122h-161v697zM243 254h172q71 0 71 102q0 107 -69 107h-174v-209z" />
    <glyph glyph-name="germandbls" unicode="&#xdf;" horiz-adv-x="673" 
d="M333 714q151 0 215 -41t64 -140q0 -80 -30.5 -119.5t-118.5 -46.5q94 -4 128.5 -48t34.5 -132q0 -111 -64.5 -156t-218.5 -45q-43 0 -78 4l18 131q38 -4 68 -4q63 0 85 19t22 68q0 54 -23 75t-78 21h-46v124h42q55 0 75.5 20t20.5 61q0 43 -24.5 58.5t-92.5 15.5
q-112 0 -112 -83v-496h-154v523q0 104 68 147.5t199 43.5z" />
    <glyph glyph-name="agrave" unicode="&#xe0;" horiz-adv-x="569" 
d="M508 327v-301q-110 -40 -243 -40q-127 0 -173 35t-46 135t48.5 133.5t151.5 33.5q53 0 116 -13q0 55 -21.5 73t-94.5 18q-80 0 -159 -24l-24 122q106 27 220 27q119 0 172 -44t53 -155zM204 161q0 -39 14 -50t59 -11q48 0 85 14v97q-27 7 -83 7q-44 0 -59.5 -10.5
t-15.5 -46.5zM379 568h-129l-151 129h158z" />
    <glyph glyph-name="aacute" unicode="&#xe1;" horiz-adv-x="569" 
d="M508 327v-301q-110 -40 -243 -40q-127 0 -173 35t-46 135t48.5 133.5t151.5 33.5q53 0 116 -13q0 55 -21.5 73t-94.5 18q-80 0 -159 -24l-24 122q106 27 220 27q119 0 172 -44t53 -155zM204 161q0 -39 14 -50t59 -11q48 0 85 14v97q-27 7 -83 7q-44 0 -59.5 -10.5
t-15.5 -46.5zM314 568h-130l123 129h157z" />
    <glyph glyph-name="acircumflex" unicode="&#xe2;" horiz-adv-x="569" 
d="M508 327v-301q-110 -40 -243 -40q-127 0 -173 35t-46 135t48.5 133.5t151.5 33.5q53 0 116 -13q0 55 -21.5 73t-94.5 18q-80 0 -159 -24l-24 122q106 27 220 27q119 0 172 -44t53 -155zM204 161q0 -39 14 -50t59 -11q48 0 85 14v97q-27 7 -83 7q-44 0 -59.5 -10.5
t-15.5 -46.5zM349 568q-22 23 -66 71q-12 -13 -33 -36.5t-31 -34.5h-131q20 21 61 64t61 65h147l126 -129h-134z" />
    <glyph glyph-name="atilde" unicode="&#xe3;" horiz-adv-x="569" 
d="M508 327v-301q-110 -40 -243 -40q-127 0 -173 35t-46 135t48.5 133.5t151.5 33.5q53 0 116 -13q0 55 -21.5 73t-94.5 18q-80 0 -159 -24l-24 122q106 27 220 27q119 0 172 -44t53 -155zM204 161q0 -39 14 -50t59 -11q48 0 85 14v97q-27 7 -83 7q-44 0 -59.5 -10.5
t-15.5 -46.5zM393 708l72 -58q-15 -41 -47 -67.5t-77 -26.5q-33 0 -76 23.5t-65 23.5q-28 0 -48 -46l-66 65q45 80 111 80q41 0 84 -23t62 -23q18 0 28.5 11t21.5 41z" />
    <glyph glyph-name="adieresis" unicode="&#xe4;" horiz-adv-x="569" 
d="M508 327v-301q-110 -40 -243 -40q-127 0 -173 35t-46 135t48.5 133.5t151.5 33.5q53 0 116 -13q0 55 -21.5 73t-94.5 18q-80 0 -159 -24l-24 122q106 27 220 27q119 0 172 -44t53 -155zM204 161q0 -39 14 -50t59 -11q48 0 85 14v97q-27 7 -83 7q-44 0 -59.5 -10.5
t-15.5 -46.5zM164 694q41 0 55 -12t14 -52q0 -44 -14.5 -57.5t-54.5 -13.5t-54 13.5t-14 57.5q0 40 14 52t54 12zM390 694q40 0 54 -12t14 -52q0 -44 -14 -57.5t-54 -13.5q-41 0 -55 13.5t-14 57.5q0 40 14 52t55 12z" />
    <glyph glyph-name="aring" unicode="&#xe5;" horiz-adv-x="569" 
d="M508 327v-301q-110 -40 -243 -40q-127 0 -173 35t-46 135t48.5 133.5t151.5 33.5q53 0 116 -13q0 55 -21.5 73t-94.5 18q-80 0 -159 -24l-24 122q106 27 220 27q119 0 172 -44t53 -155zM204 161q0 -39 14 -50t59 -11q48 0 85 14v97q-27 7 -83 7q-44 0 -59.5 -10.5
t-15.5 -46.5zM283 742q65 0 94 -22t29 -78t-29 -78t-94 -22q-66 0 -95.5 22t-29.5 78t28.5 78t96.5 22zM283 680q-28 0 -37.5 -8.5t-9.5 -30.5t9.5 -30t37.5 -8q27 0 36.5 8.5t9.5 29.5q0 22 -9 30.5t-37 8.5z" />
    <glyph glyph-name="ae" unicode="&#xe6;" horiz-adv-x="863" 
d="M766 131l24 -117q-86 -28 -185 -28q-87 0 -139 31q-88 -31 -201 -31q-127 0 -173 35t-46 135t48.5 133.5t151.5 33.5q53 0 116 -13q0 55 -20.5 71.5t-95.5 16.5q-90 0 -159 -21l-24 122q106 27 220 27q115 0 161 -46q47 46 150 46q68 0 110.5 -12.5t73 -46.5t41.5 -96
t5 -160h-313q1 -58 27 -77.5t86 -19.5q79 0 142 17zM376 118q-16 41 -16 93q-27 7 -79 7q-45 0 -60 -10t-15 -47q0 -38 13 -49.5t59 -11.5q60 0 98 18zM606 410q-48 0 -67.5 -18t-26.5 -68h178q-1 52 -19 69t-65 17z" />
    <glyph glyph-name="ccedilla" unicode="&#xe7;" horiz-adv-x="472" 
d="M430 141l32 -129q-59 -24 -151 -26v-25q54 0 79.5 -18.5t25.5 -60.5q0 -48 -31.5 -66.5t-111.5 -18.5q-59 0 -94 13l24 60q19 -9 62 -9q19 0 26.5 5t7.5 18q0 16 -18 21t-63 1l31 83q-99 10 -151 73.5t-52 196.5q0 147 65.5 207t189.5 60q98 0 161 -22l-32 -130
q-55 21 -116 21q-63 0 -88 -25.5t-25 -113.5q0 -85 26 -111.5t87 -26.5q60 0 116 23z" />
    <glyph glyph-name="egrave" unicode="&#xe8;" horiz-adv-x="556" 
d="M459 131l23 -117q-84 -28 -185 -28q-118 0 -184.5 62.5t-66.5 210.5q0 147 61.5 207t179.5 60q68 0 110.5 -12.5t73 -46.5t41 -96t5.5 -160h-313q1 -58 27 -77.5t86 -19.5q77 0 142 17zM298 410q-47 0 -66.5 -18.5t-26.5 -67.5h178q-1 52 -19.5 69t-65.5 17zM396 568
h-129l-151 129h158z" />
    <glyph glyph-name="eacute" unicode="&#xe9;" horiz-adv-x="556" 
d="M459 131l23 -117q-84 -28 -185 -28q-118 0 -184.5 62.5t-66.5 210.5q0 147 61.5 207t179.5 60q68 0 110.5 -12.5t73 -46.5t41 -96t5.5 -160h-313q1 -58 27 -77.5t86 -19.5q77 0 142 17zM298 410q-47 0 -66.5 -18.5t-26.5 -67.5h178q-1 52 -19.5 69t-65.5 17zM326 568
h-130l123 129h157z" />
    <glyph glyph-name="ecircumflex" unicode="&#xea;" horiz-adv-x="556" 
d="M459 131l23 -117q-84 -28 -185 -28q-118 0 -184.5 62.5t-66.5 210.5q0 147 61.5 207t179.5 60q68 0 110.5 -12.5t73 -46.5t41 -96t5.5 -160h-313q1 -58 27 -77.5t86 -19.5q77 0 142 17zM298 410q-47 0 -66.5 -18.5t-26.5 -67.5h178q-1 52 -19.5 69t-65.5 17zM361 568
q-22 23 -66 71q-12 -13 -33 -36.5t-31 -34.5h-131q21 21 61 64t61 65h147l126 -129h-134z" />
    <glyph glyph-name="edieresis" unicode="&#xeb;" horiz-adv-x="556" 
d="M459 131l23 -117q-84 -28 -185 -28q-118 0 -184.5 62.5t-66.5 210.5q0 147 61.5 207t179.5 60q68 0 110.5 -12.5t73 -46.5t41 -96t5.5 -160h-313q1 -58 27 -77.5t86 -19.5q77 0 142 17zM298 410q-47 0 -66.5 -18.5t-26.5 -67.5h178q-1 52 -19.5 69t-65.5 17zM182 694
q41 0 55 -12t14 -52q0 -44 -14.5 -57.5t-54.5 -13.5t-54 13.5t-14 57.5q0 40 14 52t54 12zM408 694q40 0 54 -12t14 -52q0 -44 -14 -57.5t-54 -13.5q-41 0 -55 13.5t-14 57.5q0 40 14 52t55 12z" />
    <glyph glyph-name="igrave" unicode="&#xec;" horiz-adv-x="284" 
d="M220 512v-512h-154v512h154zM240 568h-129l-151 129h158z" />
    <glyph glyph-name="iacute" unicode="&#xed;" horiz-adv-x="284" 
d="M220 512v-512h-154v512h154zM170 568h-130l123 129h157z" />
    <glyph glyph-name="icircumflex" unicode="&#xee;" horiz-adv-x="284" 
d="M220 512v-512h-154v512h154zM207 568q-22 23 -66 71q-12 -13 -33 -36.5t-31 -34.5h-131q20 21 61 64t61 65h147l126 -129h-134z" />
    <glyph glyph-name="idieresis" unicode="&#xef;" horiz-adv-x="284" 
d="M220 512v-512h-154v512h154zM31 694q41 0 55 -12t14 -52q0 -44 -14.5 -57.5t-54.5 -13.5t-54 13.5t-14 57.5q0 40 14 52t54 12zM257 694q40 0 54 -12t14 -52q0 -44 -14 -57.5t-54 -13.5q-41 0 -55 13.5t-14 57.5q0 40 14 52t55 12z" />
    <glyph glyph-name="eth" unicode="&#xf0;" 
d="M248 475l-57 74l69 40q-31 38 -98 108h197q21 -21 31 -32l54 33l57 -73l-51 -30q137 -176 137 -372q0 -95 -22.5 -145t-80 -72.5t-168.5 -22.5q-152 0 -210 51t-58 187q0 120 55.5 167t203.5 47q38 0 62 -2q-21 40 -53 83zM328 299q-72 0 -92.5 -15.5t-20.5 -67.5
q0 -49 20 -67.5t81 -18.5t80 19.5t19 88.5q0 33 -5 57q-36 4 -82 4z" />
    <glyph glyph-name="ntilde" unicode="&#xf1;" horiz-adv-x="597" 
d="M220 380v-380h-154v480q126 46 260 46q110 0 160.5 -54.5t50.5 -188.5v-283h-154v271q0 71 -17.5 94.5t-72.5 23.5q-35 0 -73 -9zM417 708l72 -58q-15 -41 -47 -67.5t-77 -26.5q-33 0 -76 23.5t-65 23.5q-28 0 -48 -46l-66 65q45 80 111 80q41 0 84 -23t62 -23
q18 0 28.5 11t21.5 41z" />
    <glyph glyph-name="ograve" unicode="&#xf2;" horiz-adv-x="590" 
d="M294 -14q-129 0 -188.5 60.5t-59.5 212.5q0 151 59.5 209t188.5 58q131 0 190.5 -58t59.5 -209q0 -152 -60 -212.5t-190 -60.5zM294 406q-57 0 -75 -26.5t-18 -123.5q0 -94 18.5 -122t74.5 -28t75 28t19 122q0 67 -9 99t-27 41.5t-58 9.5zM402 568h-129l-151 129h158z
" />
    <glyph glyph-name="oacute" unicode="&#xf3;" horiz-adv-x="590" 
d="M294 -14q-129 0 -188.5 60.5t-59.5 212.5q0 151 59.5 209t188.5 58q131 0 190.5 -58t59.5 -209q0 -152 -60 -212.5t-190 -60.5zM294 406q-57 0 -75 -26.5t-18 -123.5q0 -94 18.5 -122t74.5 -28t75 28t19 122q0 67 -9 99t-27 41.5t-58 9.5zM318 568h-130l123 129h157z" />
    <glyph glyph-name="ocircumflex" unicode="&#xf4;" horiz-adv-x="590" 
d="M294 -14q-129 0 -188.5 60.5t-59.5 212.5q0 151 59.5 209t188.5 58q131 0 190.5 -58t59.5 -209q0 -152 -60 -212.5t-190 -60.5zM294 406q-57 0 -75 -26.5t-18 -123.5q0 -94 18.5 -122t74.5 -28t75 28t19 122q0 67 -9 99t-27 41.5t-58 9.5zM356 568q-22 23 -66 71
q-12 -13 -33 -36.5t-31 -34.5h-131q21 21 61 64t61 65h147l126 -129h-134z" />
    <glyph glyph-name="otilde" unicode="&#xf5;" horiz-adv-x="590" 
d="M294 -14q-129 0 -188.5 60.5t-59.5 212.5q0 151 59.5 209t188.5 58q131 0 190.5 -58t59.5 -209q0 -152 -60 -212.5t-190 -60.5zM294 406q-57 0 -75 -26.5t-18 -123.5q0 -94 18.5 -122t74.5 -28t75 28t19 122q0 67 -9 99t-27 41.5t-58 9.5zM411 708l72 -58
q-15 -41 -47 -67.5t-77 -26.5q-33 0 -76 23.5t-65 23.5q-28 0 -48 -46l-66 65q45 80 111 80q41 0 84 -23t62 -23q18 0 28.5 11t21.5 41z" />
    <glyph glyph-name="odieresis" unicode="&#xf6;" horiz-adv-x="590" 
d="M294 -14q-129 0 -188.5 60.5t-59.5 212.5q0 151 59.5 209t188.5 58q131 0 190.5 -58t59.5 -209q0 -152 -60 -212.5t-190 -60.5zM294 406q-57 0 -75 -26.5t-18 -123.5q0 -94 18.5 -122t74.5 -28t75 28t19 122q0 67 -9 99t-27 41.5t-58 9.5zM181 694q41 0 55 -12t14 -52
q0 -44 -14.5 -57.5t-54.5 -13.5t-54 13.5t-14 57.5q0 40 14 52t54 12zM407 694q40 0 54 -12t14 -52q0 -44 -14 -57.5t-54 -13.5q-41 0 -55 13.5t-14 57.5q0 40 14 52t55 12z" />
    <glyph glyph-name="divide" unicode="&#xf7;" horiz-adv-x="563" 
d="M36 290v147h490v-147h-490zM278 232q55 0 73.5 -15t18.5 -66q0 -55 -19 -72t-73 -17q-53 0 -72 17t-19 72q0 51 19 66t72 15zM278 664q55 0 73.5 -15t18.5 -67q0 -55 -19 -71.5t-73 -16.5q-53 0 -72 17t-19 71q0 51 19 66.5t72 15.5z" />
    <glyph glyph-name="oslash" unicode="&#xf8;" horiz-adv-x="590" 
d="M453 511h136l-76 -85q31 -61 31 -168q0 -152 -59.5 -212t-190.5 -60q-88 0 -144 27l-12 -13h-136l75 85q-32 62 -32 173q0 151 60 209.5t189 58.5q94 0 147 -28zM294 406q-53 0 -73.5 -22t-20.5 -93q0 -35 3 -65l147 169q-19 11 -56 11zM294 106q56 0 74.5 31.5
t18.5 103.5q0 27 -1 41l-146 -167q17 -9 54 -9z" />
    <glyph glyph-name="ugrave" unicode="&#xf9;" horiz-adv-x="597" 
d="M379 132v380h152v-481q-130 -46 -259 -46q-110 0 -160 54.5t-50 188.5v284h152v-272q0 -70 18 -94t73 -24q29 0 74 10zM401 568h-129l-151 129h158z" />
    <glyph glyph-name="uacute" unicode="&#xfa;" horiz-adv-x="597" 
d="M379 132v380h152v-481q-130 -46 -259 -46q-110 0 -160 54.5t-50 188.5v284h152v-272q0 -70 18 -94t73 -24q29 0 74 10zM326 568h-130l123 129h157z" />
    <glyph glyph-name="ucircumflex" unicode="&#xfb;" horiz-adv-x="597" 
d="M379 132v380h152v-481q-130 -46 -259 -46q-110 0 -160 54.5t-50 188.5v284h152v-272q0 -70 18 -94t73 -24q29 0 74 10zM365 568q-22 23 -66 71q-12 -13 -33 -36.5t-31 -34.5h-131q21 21 61.5 64t60.5 65h147l126 -129h-134z" />
    <glyph glyph-name="udieresis" unicode="&#xfc;" horiz-adv-x="597" 
d="M379 132v380h152v-481q-130 -46 -259 -46q-110 0 -160 54.5t-50 188.5v284h152v-272q0 -70 18 -94t73 -24q29 0 74 10zM184 694q41 0 55 -12t14 -52q0 -44 -14.5 -57.5t-54.5 -13.5t-54 13.5t-14 57.5q0 40 14 52t54 12zM410 694q40 0 54 -12t14 -52q0 -44 -14 -57.5
t-54 -13.5q-41 0 -55 13.5t-14 57.5q0 40 14 52t55 12z" />
    <glyph glyph-name="yacute" unicode="&#xfd;" horiz-adv-x="512" 
d="M165 -25q-72 260 -176 536h155q59 -154 112 -356q75 214 109 356h153q-78 -272 -195 -542q-46 -108 -73 -161h-169q37 63 84 167zM300 568h-130l123 129h157z" />
    <glyph glyph-name="thorn" unicode="&#xfe;" horiz-adv-x="596" 
d="M66 -192v895h154v-183q37 6 78 6q135 0 193 -58.5t58 -211.5q0 -147 -57 -208.5t-160 -61.5q-58 0 -112 23v-201h-154zM220 386v-235q0 -17 22.5 -28t56.5 -11q55 0 75.5 29.5t20.5 110.5q0 90 -20 118t-77 28q-47 0 -78 -12z" />
    <glyph glyph-name="ydieresis" unicode="&#xff;" horiz-adv-x="512" 
d="M165 -25q-72 260 -176 536h155q59 -154 112 -356q75 214 109 356h153q-78 -272 -195 -542q-46 -108 -73 -161h-169q37 63 84 167zM148 694q41 0 55 -12t14 -52q0 -44 -14.5 -57.5t-54.5 -13.5t-54 13.5t-14 57.5q0 40 14 52t54 12zM374 694q40 0 54 -12t14 -52
q0 -44 -14 -57.5t-54 -13.5q-41 0 -55 13.5t-14 57.5q0 40 14 52t55 12z" />
    <glyph glyph-name="Amacron" unicode="&#x100;" horiz-adv-x="689" 
d="M543 0q-30 71 -59 154h-287q-20 -65 -45 -154h-172q101 339 247 697h249q117 -386 245 -697h-178zM355 557h-26q-36 -98 -91 -264h200q-51 152 -83 264zM199 745v107h292v-107h-292z" />
    <glyph glyph-name="amacron" unicode="&#x101;" horiz-adv-x="569" 
d="M508 327v-301q-110 -40 -243 -40q-127 0 -173 35t-46 135t48.5 133.5t151.5 33.5q53 0 116 -13q0 55 -21.5 73t-94.5 18q-80 0 -159 -24l-24 122q106 27 220 27q119 0 172 -44t53 -155zM204 161q0 -39 14 -50t59 -11q48 0 85 14v97q-27 7 -83 7q-44 0 -59.5 -10.5
t-15.5 -46.5zM135 572v106h292v-106h-292z" />
    <glyph glyph-name="Abreve" unicode="&#x102;" horiz-adv-x="689" 
d="M543 0q-30 71 -59 154h-287q-20 -65 -45 -154h-172q101 339 247 697h249q117 -386 245 -697h-178zM355 557h-26q-36 -98 -91 -264h200q-51 152 -83 264zM185 871h101q0 -31 14 -41.5t46 -10.5t46 10.5t14 41.5h94q0 -143 -158 -143q-157 0 -157 143z" />
    <glyph glyph-name="abreve" unicode="&#x103;" horiz-adv-x="569" 
d="M508 327v-301q-110 -40 -243 -40q-127 0 -173 35t-46 135t48.5 133.5t151.5 33.5q53 0 116 -13q0 55 -21.5 73t-94.5 18q-80 0 -159 -24l-24 122q106 27 220 27q119 0 172 -44t53 -155zM204 161q0 -39 14 -50t59 -11q48 0 85 14v97q-27 7 -83 7q-44 0 -59.5 -10.5
t-15.5 -46.5zM124 697h101q0 -31 14 -41.5t46 -10.5t46 10.5t14 41.5h94q0 -143 -158 -143q-157 0 -157 143z" />
    <glyph glyph-name="Aogonek" unicode="&#x104;" horiz-adv-x="689" 
d="M543 0q-30 71 -59 154h-287q-20 -65 -45 -154h-172q101 339 247 697h249q117 -386 245 -697h-64q-35 -23 -47.5 -42t-12.5 -44q0 -20 12 -29t45 -9q47 0 78 26l39 -70q-50 -35 -134 -35q-76 0 -105.5 21.5t-29.5 67.5q0 76 95 114h-54zM355 557h-26q-36 -98 -91 -264h200
q-51 152 -83 264z" />
    <glyph glyph-name="aogonek" unicode="&#x105;" horiz-adv-x="569" 
d="M508 327v-301q-26 -9 -45 -14h2q-48 -29 -64 -49.5t-16 -48.5q0 -20 12 -29t45 -9q47 0 78 26l39 -70q-50 -35 -134 -35q-76 0 -105.5 21.5t-29.5 67.5q0 70 81 108q-59 -8 -106 -8q-127 0 -173 35t-46 135t48.5 133.5t151.5 33.5q53 0 116 -13q0 55 -21.5 73t-94.5 18
q-80 0 -159 -24l-24 122q106 27 220 27q119 0 172 -44t53 -155zM204 161q0 -39 14 -50t59 -11q48 0 85 14v97q-27 7 -83 7q-44 0 -59.5 -10.5t-15.5 -46.5z" />
    <glyph glyph-name="Cacute" unicode="&#x106;" horiz-adv-x="588" 
d="M49 355q0 106 19.5 176t62 110.5t101.5 56.5t147 16q114 0 202 -25l-31 -142q-54 19 -137 19q-58 0 -90 -6t-57.5 -28t-35 -64.5t-9.5 -114.5t9.5 -115t34.5 -66t58 -30t90 -7q78 0 137 19l31 -145q-89 -23 -202 -23q-174 0 -252 81t-78 288zM367 747h-130l127 129h159z
" />
    <glyph glyph-name="cacute" unicode="&#x107;" horiz-adv-x="472" 
d="M430 141l32 -129q-63 -26 -161 -26q-124 0 -189.5 62t-65.5 211q0 147 65.5 207t189.5 60q98 0 161 -22l-32 -130q-55 21 -116 21q-63 0 -88 -25.5t-25 -113.5q0 -85 26 -111.5t87 -26.5q60 0 116 23zM307 568h-130l123 129h157z" />
    <glyph glyph-name="Ccircumflex" unicode="&#x108;" horiz-adv-x="588" 
d="M49 355q0 106 19.5 176t62 110.5t101.5 56.5t147 16q114 0 202 -25l-31 -142q-54 19 -137 19q-58 0 -90 -6t-57.5 -28t-35 -64.5t-9.5 -114.5t9.5 -115t34.5 -66t58 -30t90 -7q78 0 137 19l31 -145q-89 -23 -202 -23q-174 0 -252 81t-78 288zM438 747l-67 72l-64 -72
h-130l122 129h147l126 -129h-134z" />
    <glyph glyph-name="ccircumflex" unicode="&#x109;" horiz-adv-x="472" 
d="M430 141l32 -129q-63 -26 -161 -26q-124 0 -189.5 62t-65.5 211q0 147 65.5 207t189.5 60q98 0 161 -22l-32 -130q-55 21 -116 21q-63 0 -88 -25.5t-25 -113.5q0 -85 26 -111.5t87 -26.5q60 0 116 23zM357 568q-22 23 -66 71q-12 -13 -33 -36.5t-31 -34.5h-131
q21 21 61.5 64t60.5 65h147l126 -129h-134z" />
    <glyph glyph-name="Cdotaccent" unicode="&#x10a;" horiz-adv-x="588" 
d="M49 355q0 106 19.5 176t62 110.5t101.5 56.5t147 16q114 0 202 -25l-31 -142q-54 19 -137 19q-58 0 -90 -6t-57.5 -28t-35 -64.5t-9.5 -114.5t9.5 -115t34.5 -66t58 -30t90 -7q78 0 137 19l31 -145q-89 -23 -202 -23q-174 0 -252 81t-78 288zM380 877q41 0 55 -12t14 -52
q0 -44 -14.5 -57.5t-54.5 -13.5t-54 13.5t-14 57.5q0 40 14 52t54 12z" />
    <glyph glyph-name="cdotaccent" unicode="&#x10b;" horiz-adv-x="472" 
d="M430 141l32 -129q-63 -26 -161 -26q-124 0 -189.5 62t-65.5 211q0 147 65.5 207t189.5 60q98 0 161 -22l-32 -130q-55 21 -116 21q-63 0 -88 -25.5t-25 -113.5q0 -85 26 -111.5t87 -26.5q60 0 116 23zM292 694q40 0 54 -12t14 -52q0 -44 -14 -57.5t-54 -13.5t-54.5 13.5
t-14.5 57.5q0 40 14 52t55 12z" />
    <glyph glyph-name="Ccaron" unicode="&#x10c;" horiz-adv-x="588" 
d="M49 355q0 106 19.5 176t62 110.5t101.5 56.5t147 16q114 0 202 -25l-31 -142q-54 19 -137 19q-58 0 -90 -6t-57.5 -28t-35 -64.5t-9.5 -114.5t9.5 -115t34.5 -66t58 -30t90 -7q78 0 137 19l31 -145q-89 -23 -202 -23q-174 0 -252 81t-78 288zM299 876l67 -72l65 72h130
l-122 -129h-147l-126 129h133z" />
    <glyph glyph-name="ccaron" unicode="&#x10d;" horiz-adv-x="472" 
d="M430 141l32 -129q-63 -26 -161 -26q-124 0 -189.5 62t-65.5 211q0 147 65.5 207t189.5 60q98 0 161 -22l-32 -130q-55 21 -116 21q-63 0 -88 -25.5t-25 -113.5q0 -85 26 -111.5t87 -26.5q60 0 116 23zM227 697q44 -48 66 -71q10 11 31 34.5t33 36.5h130q-20 -22 -61 -65
t-61 -64h-147l-126 129h135z" />
    <glyph glyph-name="Dcaron" unicode="&#x10e;" horiz-adv-x="753" 
d="M82 697h291q87 0 146.5 -16t102 -54.5t62.5 -106t20 -168.5q0 -197 -78.5 -274.5t-252.5 -77.5h-291v697zM532 350q0 71 -7 111t-30 61.5t-53 27.5t-88 6h-111v-414h111q75 0 110.5 15t51.5 58.5t16 134.5zM286 876l67 -72l65 72h130l-122 -129h-147l-126 129h133z" />
    <glyph glyph-name="dcaron" unicode="&#x10f;" horiz-adv-x="596" 
d="M376 127v235q0 16 -23 27.5t-57 11.5q-54 0 -74.5 -30t-20.5 -111q0 -90 20 -117.5t77 -27.5q50 0 78 12zM530 722v-700q-96 -36 -232 -36q-135 0 -193.5 59.5t-58.5 212.5q0 146 57 207t160 61q60 0 113 -22v218h154zM586 722h130l-58 -192h-91z" />
    <glyph glyph-name="Dcroat" unicode="&#x110;" horiz-adv-x="753" 
d="M30 300v110h52v287h291q87 0 146.5 -16t102 -54.5t62.5 -106t20 -168.5q0 -197 -78.5 -274.5t-252.5 -77.5h-291v300h-52zM532 350q0 71 -7 110.5t-30 61.5t-53 27.5t-88 5.5h-111v-145h158v-110h-158v-158h111q75 0 110.5 15t51.5 58.5t16 134.5z" />
    <glyph glyph-name="dcroat" unicode="&#x111;" horiz-adv-x="596" 
d="M297 572v105h79v45h154v-45h50v-105h-50v-550q-96 -36 -232 -36q-135 0 -193.5 59.5t-58.5 212.5q0 146 57 207t160 61q60 0 113 -22v68h-79zM376 127v235q0 16 -23 27.5t-57 11.5q-54 0 -74.5 -30t-20.5 -111q0 -90 20 -117.5t77 -27.5q50 0 78 12z" />
    <glyph glyph-name="Emacron" unicode="&#x112;" horiz-adv-x="626" 
d="M82 697h520v-141h-359v-125h257v-138h-257v-152h359v-141h-520v697zM196 745v107h292v-107h-292z" />
    <glyph glyph-name="emacron" unicode="&#x113;" horiz-adv-x="556" 
d="M459 131l23 -117q-84 -28 -185 -28q-118 0 -184.5 62.5t-66.5 210.5q0 147 61.5 207t179.5 60q68 0 110.5 -12.5t73 -46.5t41 -96t5.5 -160h-313q1 -58 27 -77.5t86 -19.5q77 0 142 17zM298 410q-47 0 -66.5 -18.5t-26.5 -67.5h178q-1 52 -19.5 69t-65.5 17zM152 572v106
h292v-106h-292z" />
    <glyph glyph-name="Ebreve" unicode="&#x114;" horiz-adv-x="626" 
d="M82 697h520v-141h-359v-125h257v-138h-257v-152h359v-141h-520v697zM198 871h101q0 -31 14 -41.5t46 -10.5t46 10.5t14 41.5h94q0 -143 -158 -143q-157 0 -157 143z" />
    <glyph glyph-name="ebreve" unicode="&#x115;" horiz-adv-x="556" 
d="M459 131l23 -117q-84 -28 -185 -28q-118 0 -184.5 62.5t-66.5 210.5q0 147 61.5 207t179.5 60q68 0 110.5 -12.5t73 -46.5t41 -96t5.5 -160h-313q1 -58 27 -77.5t86 -19.5q77 0 142 17zM298 410q-47 0 -66.5 -18.5t-26.5 -67.5h178q-1 52 -19.5 69t-65.5 17zM135 697h101
q0 -31 14 -41.5t46 -10.5t46 10.5t14 41.5h94q0 -143 -158 -143q-157 0 -157 143z" />
    <glyph glyph-name="Edotaccent" unicode="&#x116;" horiz-adv-x="626" 
d="M82 697h520v-141h-359v-125h257v-138h-257v-152h359v-141h-520v697zM362 877q41 0 55 -12t14 -52q0 -44 -14.5 -57.5t-54.5 -13.5t-54 13.5t-14 57.5q0 40 14 52t54 12z" />
    <glyph glyph-name="edotaccent" unicode="&#x117;" horiz-adv-x="556" 
d="M459 131l23 -117q-84 -28 -185 -28q-118 0 -184.5 62.5t-66.5 210.5q0 147 61.5 207t179.5 60q68 0 110.5 -12.5t73 -46.5t41 -96t5.5 -160h-313q1 -58 27 -77.5t86 -19.5q77 0 142 17zM298 410q-47 0 -66.5 -18.5t-26.5 -67.5h178q-1 52 -19.5 69t-65.5 17zM295 694
q40 0 54 -12t14 -52q0 -44 -14 -57.5t-54 -13.5t-54.5 13.5t-14.5 57.5q0 40 14 52t55 12z" />
    <glyph glyph-name="Eogonek" unicode="&#x118;" horiz-adv-x="626" 
d="M82 697h520v-141h-359v-125h257v-138h-257v-152h359v-141h-56q-35 -23 -47.5 -42t-12.5 -44q0 -20 12 -29t45 -9q47 0 78 26l39 -70q-50 -35 -134 -35q-76 0 -105.5 21.5t-29.5 67.5q0 76 95 114h-404v697z" />
    <glyph glyph-name="eogonek" unicode="&#x119;" horiz-adv-x="556" 
d="M459 131l23 -117q-5 -2 -43 -12q-38 -24 -51 -43t-13 -45q0 -20 12 -29t45 -9q47 0 78 26l39 -70q-50 -35 -134 -35q-76 0 -105.5 21.5t-29.5 67.5q0 65 72 103q-28 -3 -55 -3q-118 0 -184.5 62.5t-66.5 210.5q0 147 61.5 207t179.5 60q68 0 110.5 -12.5t73 -46.5t41 -96
t5.5 -160h-313q1 -58 27 -77.5t86 -19.5q77 0 142 17zM298 410q-47 0 -66.5 -18.5t-26.5 -67.5h178q-1 52 -19.5 69t-65.5 17z" />
    <glyph glyph-name="Ecaron" unicode="&#x11a;" horiz-adv-x="626" 
d="M82 697h520v-141h-359v-125h257v-138h-257v-152h359v-141h-520v697zM286 876l67 -72l65 72h130l-122 -129h-147l-126 129h133z" />
    <glyph glyph-name="ecaron" unicode="&#x11b;" horiz-adv-x="556" 
d="M459 131l23 -117q-84 -28 -185 -28q-118 0 -184.5 62.5t-66.5 210.5q0 147 61.5 207t179.5 60q68 0 110.5 -12.5t73 -46.5t41 -96t5.5 -160h-313q1 -58 27 -77.5t86 -19.5q77 0 142 17zM298 410q-47 0 -66.5 -18.5t-26.5 -67.5h178q-1 52 -19.5 69t-65.5 17zM229 697
q44 -48 66 -71q10 11 31 34.5t33 36.5h130q-20 -22 -60.5 -65t-61.5 -64h-147l-126 129h135z" />
    <glyph glyph-name="Gcircumflex" unicode="&#x11c;" horiz-adv-x="712" 
d="M479 140v146h-138v138h303v-405q-44 -14 -121 -23.5t-144 -9.5q-174 0 -252 81t-78 288q0 105 22.5 176t70 110.5t111 56t154.5 16.5q130 0 218 -25l-29 -142q-24 8 -80 14t-93 6q-62 0 -96 -6.5t-60.5 -28.5t-36 -64t-9.5 -115q0 -72 9.5 -115t34.5 -66t58 -30t90 -7
q21 0 66 5zM454 747l-67 72l-64 -72h-130l122 129h147l126 -129h-134z" />
    <glyph glyph-name="gcircumflex" unicode="&#x11d;" horiz-adv-x="596" 
d="M376 154v236q-34 14 -78 14q-39 0 -58 -10t-29 -42t-10 -97q0 -81 19.5 -109t73.5 -28q35 0 58.5 10t23.5 26zM376 18q-58 -29 -124 -29q-105 0 -155.5 57.5t-50.5 205.5q0 153 59 213.5t193 60.5q136 0 232 -36v-449q0 -74 -20.5 -124t-61 -75.5t-88 -35.5t-113.5 -10
q-104 0 -187 30l27 120q87 -23 157 -23q66 0 99 21t33 74zM367 568q-22 23 -66 71q-12 -13 -33 -36.5t-31 -34.5h-131q21 21 61.5 64t60.5 65h147l126 -129h-134z" />
    <glyph glyph-name="Gbreve" unicode="&#x11e;" horiz-adv-x="712" 
d="M479 140v146h-138v138h303v-405q-44 -14 -121 -23.5t-144 -9.5q-174 0 -252 81t-78 288q0 105 22.5 176t70 110.5t111 56t154.5 16.5q130 0 218 -25l-29 -142q-24 8 -80 14t-93 6q-62 0 -96 -6.5t-60.5 -28.5t-36 -64t-9.5 -115q0 -72 9.5 -115t34.5 -66t58 -30t90 -7
q21 0 66 5zM227 871h101q0 -31 14 -41.5t46 -10.5t46 10.5t14 41.5h94q0 -143 -158 -143q-157 0 -157 143z" />
    <glyph glyph-name="gbreve" unicode="&#x11f;" horiz-adv-x="596" 
d="M376 154v236q-34 14 -78 14q-39 0 -58 -10t-29 -42t-10 -97q0 -81 19.5 -109t73.5 -28q35 0 58.5 10t23.5 26zM376 18q-58 -29 -124 -29q-105 0 -155.5 57.5t-50.5 205.5q0 153 59 213.5t193 60.5q136 0 232 -36v-449q0 -74 -20.5 -124t-61 -75.5t-88 -35.5t-113.5 -10
q-104 0 -187 30l27 120q87 -23 157 -23q66 0 99 21t33 74zM143 697h101q0 -31 14 -41.5t46 -10.5t46 10.5t14 41.5h94q0 -143 -158 -143q-157 0 -157 143z" />
    <glyph glyph-name="Gdotaccent" unicode="&#x120;" horiz-adv-x="712" 
d="M479 140v146h-138v138h303v-405q-44 -14 -121 -23.5t-144 -9.5q-174 0 -252 81t-78 288q0 105 22.5 176t70 110.5t111 56t154.5 16.5q130 0 218 -25l-29 -142q-24 8 -80 14t-93 6q-62 0 -96 -6.5t-60.5 -28.5t-36 -64t-9.5 -115q0 -72 9.5 -115t34.5 -66t58 -30t90 -7
q21 0 66 5zM401 877q41 0 55 -12t14 -52q0 -44 -14.5 -57.5t-54.5 -13.5t-54 13.5t-14 57.5q0 40 14 52t54 12z" />
    <glyph glyph-name="gdotaccent" unicode="&#x121;" horiz-adv-x="596" 
d="M376 154v236q-34 14 -78 14q-39 0 -58 -10t-29 -42t-10 -97q0 -81 19.5 -109t73.5 -28q35 0 58.5 10t23.5 26zM376 18q-58 -29 -124 -29q-105 0 -155.5 57.5t-50.5 205.5q0 153 59 213.5t193 60.5q136 0 232 -36v-449q0 -74 -20.5 -124t-61 -75.5t-88 -35.5t-113.5 -10
q-104 0 -187 30l27 120q87 -23 157 -23q66 0 99 21t33 74zM295 694q40 0 54 -12t14 -52q0 -44 -14 -57.5t-54 -13.5t-54.5 13.5t-14.5 57.5q0 40 14 52t55 12z" />
    <glyph glyph-name="Gcommaaccent" unicode="&#x122;" horiz-adv-x="712" 
d="M479 140v146h-138v138h303v-405q-44 -14 -121 -23.5t-144 -9.5q-174 0 -252 81t-78 288q0 105 22.5 176t70 110.5t111 56t154.5 16.5q130 0 218 -25l-29 -142q-24 8 -80 14t-93 6q-62 0 -96 -6.5t-60.5 -28.5t-36 -64t-9.5 -115q0 -72 9.5 -115t34.5 -66t58 -30t90 -7
q21 0 66 5zM488 -51l-111 -167h-120l72 167h159z" />
    <glyph glyph-name="gcommaaccent" unicode="&#x123;" horiz-adv-x="596" 
d="M376 154v236q-34 14 -78 14q-39 0 -58 -10t-29 -42t-10 -97q0 -81 19.5 -109t73.5 -28q35 0 58.5 10t23.5 26zM376 18q-58 -29 -124 -29q-105 0 -155.5 57.5t-50.5 205.5q0 153 59 213.5t193 60.5q136 0 232 -36v-449q0 -74 -20.5 -124t-61 -75.5t-88 -35.5t-113.5 -10
q-104 0 -187 30l27 120q87 -23 157 -23q66 0 99 21t33 74zM446 754l-111 -167h-120l72 167h159z" />
    <glyph glyph-name="Hcircumflex" unicode="&#x124;" horiz-adv-x="748" 
d="M243 294v-294h-161v697h161v-254h262v254h161v-697h-161v294h-262zM435 747l-67 72l-64 -72h-130l122 129h147l126 -129h-134z" />
    <glyph glyph-name="hcircumflex" unicode="&#x125;" horiz-adv-x="597" 
d="M356 526q45 0 75 -9t55.5 -33t37.5 -70t12 -117v-297h-153v291q0 53 -21 76t-66 23q-32 0 -54.5 -8.5t-22.5 -23.5v-358h-153v722h153v-228q74 32 137 32zM285 747l-67 72l-64 -72h-130l122 129h147l126 -129h-134z" />
    <glyph glyph-name="Hbar" unicode="&#x126;" horiz-adv-x="748" 
d="M27 511v129h55v57h161v-57h262v57h161v-57h55v-129h-55v-511h-161v294h-262v-294h-161v511h-55zM243 443h262v68h-262v-68z" />
    <glyph glyph-name="hbar" unicode="&#x127;" horiz-adv-x="597" 
d="M21 574v104h45v44h154v-44h92v-104h-92v-80q68 32 136 32q45 0 75.5 -9t56 -32.5t37.5 -69.5t12 -117v-298h-154v288q0 60 -22 81t-65 21q-32 0 -54 -8.5t-22 -23.5v-358h-154v574h-45z" />
    <glyph glyph-name="Itilde" unicode="&#x128;" horiz-adv-x="325" 
d="M82 697h161v-697h-161v697zM282 885l72 -58q-14 -41 -47 -67.5t-78 -26.5q-33 0 -77 23.5t-66 23.5q-28 0 -48 -45l-65 64q45 79 110 79q40 0 84.5 -22.5t64.5 -22.5q18 0 28.5 11t21.5 41z" />
    <glyph glyph-name="itilde" unicode="&#x129;" horiz-adv-x="284" 
d="M220 512v-512h-154v512h154zM261 708l72 -58q-15 -41 -47 -67.5t-77 -26.5q-33 0 -76 23.5t-65 23.5q-28 0 -48 -46l-66 65q45 80 111 80q40 0 83.5 -23t62.5 -23q18 0 28.5 11t21.5 41z" />
    <glyph glyph-name="Imacron" unicode="&#x12a;" horiz-adv-x="325" 
d="M82 697h161v-697h-161v697zM17 745v107h292v-107h-292z" />
    <glyph glyph-name="imacron" unicode="&#x12b;" horiz-adv-x="284" 
d="M220 512v-512h-154v512h154zM-3 572v106h292v-106h-292z" />
    <glyph glyph-name="Ibreve" unicode="&#x12c;" horiz-adv-x="325" 
d="M82 697h161v-697h-161v697zM6 871h101q0 -31 14 -41.5t46 -10.5t46 10.5t14 41.5h94q0 -143 -158 -143q-157 0 -157 143z" />
    <glyph glyph-name="ibreve" unicode="&#x12d;" horiz-adv-x="284" 
d="M220 512v-512h-154v512h154zM-15 697h101q0 -31 14 -41.5t46 -10.5t46 10.5t14 41.5h94q0 -143 -158 -143q-157 0 -157 143z" />
    <glyph glyph-name="Iogonek" unicode="&#x12e;" horiz-adv-x="325" 
d="M82 697h161v-697h-57q-35 -23 -47.5 -42t-12.5 -44q0 -20 12 -29t45 -9q47 0 78 26l39 -70q-50 -35 -134 -35q-76 0 -105.5 21.5t-29.5 67.5q0 76 95 114h-44v697z" />
    <glyph glyph-name="iogonek" unicode="&#x12f;" horiz-adv-x="284" 
d="M220 512v-512h-42q-35 -23 -47.5 -42t-12.5 -44q0 -20 12 -29t45 -9q47 0 78 26l39 -70q-50 -35 -134 -35q-76 0 -105.5 21.5t-29.5 67.5q0 76 95 114h-52v512h154zM143 734q51 0 69 -13.5t18 -59.5q0 -50 -18 -65.5t-69 -15.5t-69 15.5t-18 65.5q0 46 18 59.5t69 13.5z
" />
    <glyph glyph-name="Idotaccent" unicode="&#x130;" horiz-adv-x="325" 
d="M82 697h161v-697h-161v697zM161 877q41 0 55 -12t14 -52q0 -44 -14.5 -57.5t-54.5 -13.5t-54 13.5t-14 57.5q0 40 14 52t54 12z" />
    <glyph glyph-name="dotlessi" unicode="&#x131;" horiz-adv-x="284" 
d="M220 512v-512h-154v512h154z" />
    <glyph glyph-name="IJ" unicode="&#x132;" horiz-adv-x="796" 
d="M82 697h161v-697h-161v697zM717 697l1 -505q0 -58 -18.5 -100t-51.5 -64t-70.5 -32t-81.5 -10q-93 0 -169 26l27 144q57 -20 122 -20q79 0 79 82v479h162z" />
    <glyph glyph-name="ij" unicode="&#x133;" horiz-adv-x="570" 
d="M220 512v-512h-154v512h154zM143 734q51 0 69 -13.5t18 -59.5q0 -50 -18 -65.5t-69 -15.5t-69 15.5t-18 65.5q0 46 18 59.5t69 13.5zM427 734q51 0 69 -13.5t18 -59.5q0 -50 -18 -65.5t-69 -15.5t-69 15.5t-18 65.5q0 46 18 59.5t69 13.5zM504 512v-514
q0 -112 -54 -156.5t-178 -44.5v124q78 0 78 73v518h154z" />
    <glyph glyph-name="Jcircumflex" unicode="&#x134;" horiz-adv-x="472" 
d="M394 697v-505q0 -58 -18.5 -100t-51.5 -64t-70.5 -32t-81.5 -10q-93 0 -169 26l27 144q57 -20 123 -20q78 0 78 82v479h163zM374 747l-67 72l-64 -72h-130l122 129h147l126 -129h-134z" />
    <glyph glyph-name="jcircumflex" unicode="&#x135;" horiz-adv-x="284" 
d="M202 568q-22 23 -66 71q-42 -48 -64 -71h-130q21 21 61 64t61 65h147l126 -129h-135zM-12 -203v125q78 0 78 72v517h153v-512q0 -113 -53.5 -157.5t-177.5 -44.5z" />
    <glyph glyph-name="Kcommaaccent" unicode="&#x136;" horiz-adv-x="684" 
d="M243 697v-697h-161v697h161zM700 0h-194q-88 161 -159.5 257.5t-102.5 110.5q33 27 101 116t144 213h192q-79 -123 -143.5 -208.5t-92.5 -111.5q29 -23 100 -123t155 -254zM438 -51l-111 -167h-120l72 167h159z" />
    <glyph glyph-name="kcommaaccent" unicode="&#x137;" horiz-adv-x="588" 
d="M589 0h-178q-160 255 -191 271v-271h-154v722h154v-451q44 40 177 241h177q-122 -187 -176 -232q20 -14 72 -88t119 -192zM390 -51l-111 -167h-120l72 167h159z" />
    <glyph glyph-name="Lacute" unicode="&#x139;" horiz-adv-x="553" 
d="M82 697h161v-555h314v-142h-475v697zM231 747h-130l127 129h159z" />
    <glyph glyph-name="lacute" unicode="&#x13a;" horiz-adv-x="292" 
d="M220 722v-573q0 -72 34 -124l-138 -50q-50 61 -50 170v577h154zM188 747h-130l127 129h159z" />
    <glyph glyph-name="Lcommaaccent" unicode="&#x13b;" horiz-adv-x="553" 
d="M82 697h161v-555h314v-142h-475v697zM408 -51l-111 -167h-120l72 167h159z" />
    <glyph glyph-name="lcommaaccent" unicode="&#x13c;" horiz-adv-x="292" 
d="M220 722v-573q0 -72 34 -124l-138 -50q-50 61 -50 170v577h154zM266 -51l-111 -167h-120l72 167h159z" />
    <glyph glyph-name="Lcaron" unicode="&#x13d;" horiz-adv-x="553" 
d="M82 697h161v-555h314v-142h-475v697zM337 722h130l-58 -192h-91z" />
    <glyph glyph-name="lcaron" unicode="&#x13e;" horiz-adv-x="292" 
d="M220 722v-573q0 -72 34 -124l-138 -50q-50 61 -50 170v577h154zM286 722h130l-58 -192h-91z" />
    <glyph glyph-name="Ldot" unicode="&#x13f;" horiz-adv-x="553" 
d="M82 697h161v-555h314v-142h-475v697zM375 484q40 0 54 -12t14 -52q0 -44 -14 -57.5t-54 -13.5t-54.5 13.5t-14.5 57.5q0 40 14 52t55 12z" />
    <glyph glyph-name="ldot" unicode="&#x140;" horiz-adv-x="292" 
d="M220 722v-573q0 -72 34 -124l-138 -50q-50 61 -50 170v577h154zM313 474q40 0 54 -12t14 -52q0 -44 -14 -57.5t-54 -13.5t-54.5 13.5t-14.5 57.5q0 40 14 52t55 12z" />
    <glyph glyph-name="Lslash" unicode="&#x141;" horiz-adv-x="553" 
d="M395 574v-148l-152 -127v-157h314v-142h-475v169l-64 -53v148l64 53v380h161v-250z" />
    <glyph glyph-name="lslash" unicode="&#x142;" horiz-adv-x="312" 
d="M229 722v-212l65 70v-148l-65 -70v-213q0 -75 35 -125l-139 -48q-49 56 -49 129v94l-60 -64v148l60 63v376h153z" />
    <glyph glyph-name="Nacute" unicode="&#x143;" horiz-adv-x="796" 
d="M714 697v-697h-200q-118 218 -274 476v-476h-158v697h210q136 -222 262 -459v459h160zM425 747h-130l127 129h159z" />
    <glyph glyph-name="nacute" unicode="&#x144;" horiz-adv-x="597" 
d="M220 380v-380h-154v480q126 46 260 46q110 0 160.5 -54.5t50.5 -188.5v-283h-154v271q0 71 -17.5 94.5t-72.5 23.5q-35 0 -73 -9zM315 568h-130l123 129h157z" />
    <glyph glyph-name="Ncommaaccent" unicode="&#x145;" horiz-adv-x="796" 
d="M714 697v-697h-200q-118 218 -274 476v-476h-158v697h210q136 -222 262 -459v459h160zM482 -51l-111 -167h-120l72 167h159z" />
    <glyph glyph-name="ncommaaccent" unicode="&#x146;" horiz-adv-x="597" 
d="M220 380v-380h-154v480q126 46 260 46q110 0 160.5 -54.5t50.5 -188.5v-283h-154v271q0 71 -17.5 94.5t-72.5 23.5q-35 0 -73 -9zM383 -51l-111 -167h-120l72 167h159z" />
    <glyph glyph-name="Ncaron" unicode="&#x147;" horiz-adv-x="796" 
d="M714 697v-697h-200q-118 218 -274 476v-476h-158v697h210q136 -222 262 -459v459h160zM347 876l67 -72l65 72h130l-122 -129h-147l-126 129h133z" />
    <glyph glyph-name="ncaron" unicode="&#x148;" horiz-adv-x="597" 
d="M220 380v-380h-154v480q126 46 260 46q110 0 160.5 -54.5t50.5 -188.5v-283h-154v271q0 71 -17.5 94.5t-72.5 23.5q-35 0 -73 -9zM234 697q44 -48 66 -71q10 11 31 34.5t33 36.5h130q-21 -22 -61.5 -65t-60.5 -64h-147l-126 129h135z" />
    <glyph glyph-name="Omacron" unicode="&#x14c;" horiz-adv-x="775" 
d="M388 714q88 0 148 -16.5t104.5 -56.5t65.5 -110t21 -175q0 -106 -21 -178.5t-65.5 -114.5t-105 -59.5t-147.5 -17.5t-148 17.5t-105 59.5t-65 114t-21 179q0 105 21 175t65.5 110t104.5 56.5t148 16.5zM388 133q56 0 86 7t50 32t25.5 65.5t5.5 116.5q0 60 -4.5 95.5
t-13.5 60.5t-30 36.5t-47 15.5t-72 4t-72 -4t-47 -15.5t-30 -36.5t-13.5 -60.5t-4.5 -95.5q0 -76 5.5 -116.5t25.5 -65.5t50 -32t86 -7zM242 745v107h292v-107h-292z" />
    <glyph glyph-name="omacron" unicode="&#x14d;" horiz-adv-x="590" 
d="M294 -14q-129 0 -188.5 60.5t-59.5 212.5q0 151 59.5 209t188.5 58q131 0 190.5 -58t59.5 -209q0 -152 -60 -212.5t-190 -60.5zM294 406q-57 0 -75 -26.5t-18 -123.5q0 -94 18.5 -122t74.5 -28t75 28t19 122q0 67 -9 99t-27 41.5t-58 9.5zM148 572v106h292v-106h-292z
" />
    <glyph glyph-name="Obreve" unicode="&#x14e;" horiz-adv-x="775" 
d="M388 714q88 0 148 -16.5t104.5 -56.5t65.5 -110t21 -175q0 -106 -21 -178.5t-65.5 -114.5t-105 -59.5t-147.5 -17.5t-148 17.5t-105 59.5t-65 114t-21 179q0 105 21 175t65.5 110t104.5 56.5t148 16.5zM388 133q56 0 86 7t50 32t25.5 65.5t5.5 116.5q0 60 -4.5 95.5
t-13.5 60.5t-30 36.5t-47 15.5t-72 4t-72 -4t-47 -15.5t-30 -36.5t-13.5 -60.5t-4.5 -95.5q0 -76 5.5 -116.5t25.5 -65.5t50 -32t86 -7zM231 871h101q0 -31 14 -41.5t46 -10.5t46 10.5t14 41.5h94q0 -143 -158 -143q-157 0 -157 143z" />
    <glyph glyph-name="obreve" unicode="&#x14f;" horiz-adv-x="590" 
d="M294 -14q-129 0 -188.5 60.5t-59.5 212.5q0 151 59.5 209t188.5 58q131 0 190.5 -58t59.5 -209q0 -152 -60 -212.5t-190 -60.5zM294 406q-57 0 -75 -26.5t-18 -123.5q0 -94 18.5 -122t74.5 -28t75 28t19 122q0 67 -9 99t-27 41.5t-58 9.5zM136 697h101q0 -31 14 -41.5
t46 -10.5t46 10.5t14 41.5h94q0 -143 -158 -143q-157 0 -157 143z" />
    <glyph glyph-name="Ohungarumlaut" unicode="&#x150;" horiz-adv-x="775" 
d="M388 714q88 0 148 -16.5t104.5 -56.5t65.5 -110t21 -175q0 -106 -21 -178.5t-65.5 -114.5t-105 -59.5t-147.5 -17.5t-148 17.5t-105 59.5t-65 114t-21 179q0 105 21 175t65.5 110t104.5 56.5t148 16.5zM388 133q56 0 86 7t50 32t25.5 65.5t5.5 116.5q0 60 -4.5 95.5
t-13.5 60.5t-30 36.5t-47 15.5t-72 4t-72 -4t-47 -15.5t-30 -36.5t-13.5 -60.5t-4.5 -95.5q0 -76 5.5 -116.5t25.5 -65.5t50 -32t86 -7zM313 747h-102l94 129h126zM491 747h-102l93 129h127z" />
    <glyph glyph-name="ohungarumlaut" unicode="&#x151;" horiz-adv-x="590" 
d="M294 -14q-129 0 -188.5 60.5t-59.5 212.5q0 151 59.5 209t188.5 58q131 0 190.5 -58t59.5 -209q0 -152 -60 -212.5t-190 -60.5zM294 406q-57 0 -75 -26.5t-18 -123.5q0 -94 18.5 -122t74.5 -28t75 28t19 122q0 67 -9 99t-27 41.5t-58 9.5zM222 568h-102l94 129h126z
M400 568h-102l93 129h127z" />
    <glyph glyph-name="OE" unicode="&#x152;" horiz-adv-x="1093" 
d="M537 697h532v-141h-377q25 -47 31 -125h197v-138h-196q-6 -96 -36 -152h381v-141h-546q-56 -14 -135 -14q-87 0 -148 17.5t-105 59.5t-65 114t-21 179q0 105 21 175t65.5 110t104.5 56.5t148 16.5t149 -17zM388 133q56 0 86 7t50 32t25.5 65.5t5.5 116.5q0 60 -4.5 95.5
t-13.5 60.5t-30 36.5t-47 15.5t-72 4t-72 -4t-47 -15.5t-30 -36.5t-13.5 -60.5t-4.5 -95.5q0 -76 5.5 -116.5t25.5 -65.5t50 -32t86 -7z" />
    <glyph glyph-name="oe" unicode="&#x153;" horiz-adv-x="895" 
d="M798 131l23 -117q-84 -28 -184 -28q-115 0 -168 57q-50 -57 -175 -57q-129 0 -188.5 60.5t-59.5 212.5q0 151 59.5 209t188.5 58q121 0 172 -52q51 52 160 52q68 0 110.5 -12.5t73 -46.5t41 -96t5.5 -160h-313q1 -58 27 -77.5t86 -19.5q77 0 142 17zM294 406
q-57 0 -75 -26.5t-18 -123.5q0 -94 18.5 -122t74.5 -28t75 28t19 122q0 67 -9 99t-27 41.5t-58 9.5zM637 410q-47 0 -66.5 -18t-26.5 -68h178q-1 52 -19.5 69t-65.5 17z" />
    <glyph glyph-name="Racute" unicode="&#x154;" horiz-adv-x="722" 
d="M243 560v-179h179q61 0 61 87q0 92 -59 92h-181zM488 299q36 -13 85 -76t144 -223h-201q-80 141 -124 195t-77 54h-72v-249h-161v697h389q191 0 191 -204q0 -83 -40.5 -136t-133.5 -58zM361 747h-130l127 129h159z" />
    <glyph glyph-name="racute" unicode="&#x155;" horiz-adv-x="397" 
d="M66 0v512h154v-40q31 54 124 54q24 0 51 -3v-143q-27 8 -72 8q-44 0 -73.5 -14t-29.5 -38v-336h-154zM279 568h-130l123 129h157z" />
    <glyph glyph-name="Rcommaaccent" unicode="&#x156;" horiz-adv-x="722" 
d="M243 560v-179h179q61 0 61 87q0 92 -59 92h-181zM488 299q36 -13 85 -76t144 -223h-201q-80 141 -124 195t-77 54h-72v-249h-161v697h389q191 0 191 -204q0 -83 -40.5 -136t-133.5 -58zM457 -51l-111 -167h-120l72 167h159z" />
    <glyph glyph-name="rcommaaccent" unicode="&#x157;" horiz-adv-x="397" 
d="M66 0v512h154v-40q31 54 124 54q24 0 51 -3v-143q-27 8 -72 8q-44 0 -73.5 -14t-29.5 -38v-336h-154zM252 -51l-111 -167h-120l72 167h159z" />
    <glyph glyph-name="Rcaron" unicode="&#x158;" horiz-adv-x="722" 
d="M243 560v-179h179q61 0 61 87q0 92 -59 92h-181zM488 299q36 -13 85 -76t144 -223h-201q-80 141 -124 195t-77 54h-72v-249h-161v697h389q191 0 191 -204q0 -83 -40.5 -136t-133.5 -58zM284 876l67 -72l65 72h130l-122 -129h-147l-126 129h133z" />
    <glyph glyph-name="rcaron" unicode="&#x159;" horiz-adv-x="397" 
d="M66 0v512h154v-40q31 54 124 54q24 0 51 -3v-143q-27 8 -72 8q-44 0 -73.5 -14t-29.5 -38v-336h-154zM178 697q44 -48 66 -71q10 11 31 34.5t33 36.5h130q-20 -22 -60.5 -65t-61.5 -64h-147l-126 129h135z" />
    <glyph glyph-name="Sacute" unicode="&#x15a;" horiz-adv-x="622" 
d="M571 681l-33 -138q-81 23 -191 23q-76 0 -105 -15.5t-29 -52.5q0 -34 26.5 -49t114.5 -24q120 -14 175 -63.5t55 -148.5q0 -127 -71.5 -177t-237.5 -50q-134 0 -226 33l33 138q86 -23 191 -23q79 0 108 14.5t29 53.5q0 24 -10 37.5t-43 24t-97 17.5q-115 12 -167 56
t-52 138q0 128 74.5 183.5t232.5 55.5q132 0 223 -33zM341 747h-130l127 129h159z" />
    <glyph glyph-name="sacute" unicode="&#x15b;" horiz-adv-x="484" 
d="M439 498l-30 -114q-80 22 -151 22q-40 0 -56 -8t-16 -36q0 -20 17 -28.5t76 -15.5q92 -12 132 -46t40 -110q0 -97 -61 -136.5t-168 -39.5q-105 0 -182 28l30 116q73 -21 145 -21q49 0 68.5 8.5t19.5 36.5q0 22 -20 31.5t-82 15.5q-86 8 -125 40t-39 110q0 97 60 136
t167 39q96 0 175 -28zM267 568h-130l123 129h157z" />
    <glyph glyph-name="Scircumflex" unicode="&#x15c;" horiz-adv-x="622" 
d="M571 681l-33 -138q-81 23 -191 23q-76 0 -105 -15.5t-29 -52.5q0 -34 26.5 -49t114.5 -24q120 -14 175 -63.5t55 -148.5q0 -127 -71.5 -177t-237.5 -50q-134 0 -226 33l33 138q86 -23 191 -23q79 0 108 14.5t29 53.5q0 24 -10 37.5t-43 24t-97 17.5q-115 12 -167 56
t-52 138q0 128 74.5 183.5t232.5 55.5q132 0 223 -33zM392 747l-67 72l-64 -72h-130l122 129h147l126 -129h-134z" />
    <glyph glyph-name="scircumflex" unicode="&#x15d;" horiz-adv-x="484" 
d="M439 498l-30 -114q-80 22 -151 22q-40 0 -56 -8t-16 -36q0 -20 17 -28.5t76 -15.5q92 -12 132 -46t40 -110q0 -97 -61 -136.5t-168 -39.5q-105 0 -182 28l30 116q73 -21 145 -21q49 0 68.5 8.5t19.5 36.5q0 22 -20 31.5t-82 15.5q-86 8 -125 40t-39 110q0 97 60 136
t167 39q96 0 175 -28zM321 568q-22 23 -66 71q-12 -13 -33 -36.5t-31 -34.5h-131q20 21 61 64t61 65h147l126 -129h-134z" />
    <glyph glyph-name="Scedilla" unicode="&#x15e;" horiz-adv-x="622" 
d="M571 681l-33 -138q-81 23 -191 23q-76 0 -105 -15.5t-29 -52.5q0 -34 26.5 -49t114.5 -24q120 -14 175 -63.5t55 -148.5q0 -115 -59 -166t-192 -59v-27q54 0 79.5 -18.5t25.5 -60.5q0 -48 -31.5 -66.5t-111.5 -18.5q-59 0 -94 13l24 60q19 -9 62 -9q19 0 26.5 5t7.5 18
q0 16 -18 21t-63 1l30 80q-130 2 -221 33l33 138q86 -23 191 -23q79 0 108 14.5t29 53.5q0 24 -10 37.5t-43 24t-97 17.5q-115 12 -167 56t-52 138q0 128 74.5 183.5t232.5 55.5q132 0 223 -33z" />
    <glyph glyph-name="Scedilla" unicode="&#xf6c1;" horiz-adv-x="622" 
d="M571 681l-33 -138q-81 23 -191 23q-76 0 -105 -15.5t-29 -52.5q0 -34 26.5 -49t114.5 -24q120 -14 175 -63.5t55 -148.5q0 -115 -59 -166t-192 -59v-27q54 0 79.5 -18.5t25.5 -60.5q0 -48 -31.5 -66.5t-111.5 -18.5q-59 0 -94 13l24 60q19 -9 62 -9q19 0 26.5 5t7.5 18
q0 16 -18 21t-63 1l30 80q-130 2 -221 33l33 138q86 -23 191 -23q79 0 108 14.5t29 53.5q0 24 -10 37.5t-43 24t-97 17.5q-115 12 -167 56t-52 138q0 128 74.5 183.5t232.5 55.5q132 0 223 -33z" />
    <glyph glyph-name="scedilla" unicode="&#x15f;" horiz-adv-x="484" 
d="M439 498l-30 -114q-80 22 -151 22q-40 0 -56 -8t-16 -36q0 -20 17 -28.5t76 -15.5q92 -12 132 -46t40 -110q0 -160 -185 -174v-27q54 0 79.5 -18.5t25.5 -60.5q0 -48 -31.5 -66.5t-111.5 -18.5q-59 0 -94 13l24 60q20 -9 62 -9q19 0 26.5 5t7.5 18q0 16 -18 21t-63 1
l30 80q-95 4 -163 28l30 116q73 -21 145 -21q49 0 68.5 8.5t19.5 36.5q0 22 -20 31.5t-82 15.5q-86 8 -125 40t-39 110q0 97 60 136t167 39q96 0 175 -28z" />
    <glyph glyph-name="scedilla" unicode="&#xf6c2;" horiz-adv-x="484" 
d="M439 498l-30 -114q-80 22 -151 22q-40 0 -56 -8t-16 -36q0 -20 17 -28.5t76 -15.5q92 -12 132 -46t40 -110q0 -160 -185 -174v-27q54 0 79.5 -18.5t25.5 -60.5q0 -48 -31.5 -66.5t-111.5 -18.5q-59 0 -94 13l24 60q20 -9 62 -9q19 0 26.5 5t7.5 18q0 16 -18 21t-63 1
l30 80q-95 4 -163 28l30 116q73 -21 145 -21q49 0 68.5 8.5t19.5 36.5q0 22 -20 31.5t-82 15.5q-86 8 -125 40t-39 110q0 97 60 136t167 39q96 0 175 -28z" />
    <glyph glyph-name="Scaron" unicode="&#x160;" horiz-adv-x="622" 
d="M571 681l-33 -138q-81 23 -191 23q-76 0 -105 -15.5t-29 -52.5q0 -34 26.5 -49t114.5 -24q120 -14 175 -63.5t55 -148.5q0 -127 -71.5 -177t-237.5 -50q-134 0 -226 33l33 138q86 -23 191 -23q79 0 108 14.5t29 53.5q0 24 -10 37.5t-43 24t-97 17.5q-115 12 -167 56
t-52 138q0 128 74.5 183.5t232.5 55.5q132 0 223 -33zM259 876l67 -72l65 72h130l-122 -129h-147l-126 129h133z" />
    <glyph glyph-name="scaron" unicode="&#x161;" horiz-adv-x="484" 
d="M439 498l-30 -114q-80 22 -151 22q-40 0 -56 -8t-16 -36q0 -20 17 -28.5t76 -15.5q92 -12 132 -46t40 -110q0 -97 -61 -136.5t-168 -39.5q-105 0 -182 28l30 116q73 -21 145 -21q49 0 68.5 8.5t19.5 36.5q0 22 -20 31.5t-82 15.5q-86 8 -125 40t-39 110q0 97 60 136
t167 39q96 0 175 -28zM187 697q44 -48 66 -71q10 11 31 34.5t33 36.5h130q-20 -22 -60.5 -65t-61.5 -64h-147l-126 129h135z" />
    <glyph glyph-name="Tcommaaccent" unicode="&#x162;" horiz-adv-x="629" 
d="M396 0h-162v556h-233v141h627v-141h-232v-556zM421 -51l-111 -167h-120l72 167h159z" />
    <glyph glyph-name="Tcommaaccent" unicode="&#x21a;" horiz-adv-x="629" 
d="M396 0h-162v556h-233v141h627v-141h-232v-556zM421 -51l-111 -167h-120l72 167h159z" />
    <glyph glyph-name="tcommaaccent" unicode="&#x163;" horiz-adv-x="427" 
d="M405 380h-160v-191q0 -40 14.5 -56.5t54.5 -16.5t82 14l25 -118q-62 -26 -154 -26q-91 0 -133.5 39t-42.5 148v207h-83v132h83v76l154 62v-138h160v-132zM321 -51l-111 -167h-120l72 167h159z" />
    <glyph glyph-name="tcommaaccent" unicode="&#x21b;" horiz-adv-x="427" 
d="M405 380h-160v-191q0 -40 14.5 -56.5t54.5 -16.5t82 14l25 -118q-62 -26 -154 -26q-91 0 -133.5 39t-42.5 148v207h-83v132h83v76l154 62v-138h160v-132zM321 -51l-111 -167h-120l72 167h159z" />
    <glyph glyph-name="Tcaron" unicode="&#x164;" horiz-adv-x="629" 
d="M396 0h-162v556h-233v141h627v-141h-232v-556zM254 876l67 -72l65 72h130l-122 -129h-147l-126 129h133z" />
    <glyph glyph-name="tcaron" unicode="&#x165;" horiz-adv-x="427" 
d="M405 380h-160v-191q0 -40 14.5 -56.5t54.5 -16.5t82 14l25 -118q-62 -26 -154 -26q-91 0 -133.5 39t-42.5 148v207h-83v132h83v76l154 62v-138h160v-132zM331 771h130l-58 -192h-91z" />
    <glyph glyph-name="Tbar" unicode="&#x166;" horiz-adv-x="629" 
d="M165 227v107h69v221h-233v142h627v-142h-232v-221h62v-107h-62v-227h-162v227h-69z" />
    <glyph glyph-name="tbar" unicode="&#x167;" horiz-adv-x="427" 
d="M39 212v92h52v76h-83v132h83v76l154 62v-138h160v-132h-160v-76h86v-92h-86v-23q0 -40 15.5 -56.5t55.5 -16.5q38 0 80 14l25 -118q-62 -26 -152 -26q-92 0 -135 39.5t-43 147.5v39h-52z" />
    <glyph glyph-name="Utilde" unicode="&#x168;" horiz-adv-x="745" 
d="M509 697h162v-502q0 -62 -20.5 -103.5t-61.5 -64t-93 -32t-124 -9.5q-149 0 -224 45t-75 164v502h163v-421q0 -29 1 -43.5t4.5 -33.5t12 -28t23.5 -18.5t38.5 -13t56.5 -3.5q40 0 66 6.5t40 15.5t21 29.5t8.5 37.5t1.5 51v421zM492 885l72 -58q-14 -41 -47 -67.5
t-78 -26.5q-33 0 -77 23.5t-66 23.5q-28 0 -48 -45l-65 64q45 79 110 79q40 0 84.5 -22.5t64.5 -22.5q18 0 28.5 11t21.5 41z" />
    <glyph glyph-name="utilde" unicode="&#x169;" horiz-adv-x="597" 
d="M379 132v380h152v-481q-130 -46 -259 -46q-110 0 -160 54.5t-50 188.5v284h152v-272q0 -70 18 -94t73 -24q29 0 74 10zM416 708l72 -58q-15 -41 -47 -67.5t-77 -26.5q-33 0 -76 23.5t-65 23.5q-28 0 -48 -46l-66 65q45 80 111 80q40 0 83 -23t63 -23q18 0 28.5 11
t21.5 41z" />
    <glyph glyph-name="Umacron" unicode="&#x16a;" horiz-adv-x="745" 
d="M509 697h162v-502q0 -62 -20.5 -103.5t-61.5 -64t-93 -32t-124 -9.5q-149 0 -224 45t-75 164v502h163v-421q0 -29 1 -43.5t4.5 -33.5t12 -28t23.5 -18.5t38.5 -13t56.5 -3.5q40 0 66 6.5t40 15.5t21 29.5t8.5 37.5t1.5 51v421zM223 745v107h292v-107h-292z" />
    <glyph glyph-name="umacron" unicode="&#x16b;" horiz-adv-x="597" 
d="M379 132v380h152v-481q-130 -46 -259 -46q-110 0 -160 54.5t-50 188.5v284h152v-272q0 -70 18 -94t73 -24q29 0 74 10zM148 572v106h292v-106h-292z" />
    <glyph glyph-name="Ubreve" unicode="&#x16c;" horiz-adv-x="745" 
d="M509 697h162v-502q0 -62 -20.5 -103.5t-61.5 -64t-93 -32t-124 -9.5q-149 0 -224 45t-75 164v502h163v-421q0 -29 1 -43.5t4.5 -33.5t12 -28t23.5 -18.5t38.5 -13t56.5 -3.5q40 0 66 6.5t40 15.5t21 29.5t8.5 37.5t1.5 51v421zM213 871h101q0 -31 14 -41.5t46 -10.5
t46 10.5t14 41.5h94q0 -143 -158 -143q-157 0 -157 143z" />
    <glyph glyph-name="ubreve" unicode="&#x16d;" horiz-adv-x="597" 
d="M379 132v380h152v-481q-130 -46 -259 -46q-110 0 -160 54.5t-50 188.5v284h152v-272q0 -70 18 -94t73 -24q29 0 74 10zM137 697h101q0 -31 14 -41.5t46 -10.5t46 10.5t14 41.5h94q0 -143 -158 -143q-157 0 -157 143z" />
    <glyph glyph-name="Uring" unicode="&#x16e;" horiz-adv-x="745" 
d="M509 697h162v-502q0 -62 -20.5 -103.5t-61.5 -64t-93 -32t-124 -9.5q-149 0 -224 45t-75 164v502h163v-421q0 -29 1 -43.5t4.5 -33.5t12 -28t23.5 -18.5t38.5 -13t56.5 -3.5q40 0 66 6.5t40 15.5t21 29.5t8.5 37.5t1.5 51v421zM370 899q65 0 94 -22t29 -78t-29 -78
t-94 -22q-66 0 -95.5 22t-29.5 78t28.5 78t96.5 22zM370 837q-28 0 -37.5 -8.5t-9.5 -30.5t9.5 -30.5t37.5 -8.5q27 0 36.5 9t9.5 30q0 22 -9 30.5t-37 8.5z" />
    <glyph glyph-name="uring" unicode="&#x16f;" horiz-adv-x="597" 
d="M379 132v380h152v-481q-130 -46 -259 -46q-110 0 -160 54.5t-50 188.5v284h152v-272q0 -70 18 -94t73 -24q29 0 74 10zM298 742q65 0 94 -22t29 -78t-29 -78t-94 -22q-66 0 -95.5 22t-29.5 78t28.5 78t96.5 22zM298 680q-28 0 -37.5 -8.5t-9.5 -30.5t9.5 -30t37.5 -8
q27 0 36.5 8.5t9.5 29.5q0 22 -9 30.5t-37 8.5z" />
    <glyph glyph-name="Uhungarumlaut" unicode="&#x170;" horiz-adv-x="745" 
d="M509 697h162v-502q0 -62 -20.5 -103.5t-61.5 -64t-93 -32t-124 -9.5q-149 0 -224 45t-75 164v502h163v-421q0 -29 1 -43.5t4.5 -33.5t12 -28t23.5 -18.5t38.5 -13t56.5 -3.5q40 0 66 6.5t40 15.5t21 29.5t8.5 37.5t1.5 51v421zM302 747h-102l94 129h126zM480 747h-102
l93 129h127z" />
    <glyph glyph-name="uhungarumlaut" unicode="&#x171;" horiz-adv-x="597" 
d="M379 132v380h152v-481q-130 -46 -259 -46q-110 0 -160 54.5t-50 188.5v284h152v-272q0 -70 18 -94t73 -24q29 0 74 10zM220 568h-102l94 129h126zM398 568h-102l93 129h127z" />
    <glyph glyph-name="Uogonek" unicode="&#x172;" horiz-adv-x="745" 
d="M509 697h162v-502q0 -109 -63.5 -155.5t-187.5 -52.5q-42 -31 -42 -73q0 -20 12 -29t45 -9q47 0 78 26l39 -70q-50 -35 -134 -35q-76 0 -105.5 21.5t-29.5 67.5q0 62 67 100q-138 3 -207.5 49t-69.5 160v502h163v-421q0 -29 1 -43.5t4.5 -33.5t12 -28t23.5 -18.5
t38.5 -13t56.5 -3.5q40 0 66 6.5t40 15.5t21 29.5t8.5 37.5t1.5 51v421z" />
    <glyph glyph-name="uogonek" unicode="&#x173;" horiz-adv-x="597" 
d="M418 12h43q-48 -29 -64 -49.5t-16 -48.5q0 -20 12 -29t45 -9q47 0 78 26l39 -70q-50 -35 -134 -35q-76 0 -105.5 21.5t-29.5 67.5q0 66 77 106q-54 -7 -91 -7q-110 0 -160 54.5t-50 188.5v284h152v-272q0 -70 18 -94t73 -24q29 0 74 10v380h152v-481q-75 -27 -168 -39
q20 10 55 20z" />
    <glyph glyph-name="Wcircumflex" unicode="&#x174;" horiz-adv-x="1011" 
d="M509 421q-40 -180 -113 -421h-205q-105 433 -197 697h175q78 -230 137 -488q96 318 130 488h146q90 -302 130 -488q76 236 128 488h169q-75 -318 -199 -697h-206q-31 162 -95 421zM572 747l-67 72l-64 -72h-130l122 129h147l126 -129h-134z" />
    <glyph glyph-name="wcircumflex" unicode="&#x175;" horiz-adv-x="838" 
d="M418 297q-28 -131 -83 -297h-184q-69 255 -163 512h157q61 -164 107 -352q53 157 100 352h139q53 -165 95 -352q74 216 105 352h154q-86 -294 -176 -512h-184q-34 171 -67 297zM483 568q-22 23 -66 71q-12 -13 -33 -36.5t-31 -34.5h-131q20 21 61 64t61 65h147l126 -129
h-134z" />
    <glyph glyph-name="Ycircumflex" unicode="&#x176;" horiz-adv-x="653" 
d="M159 697q84 -110 179 -247q120 169 166 247h199q-135 -207 -287 -413v-284h-161v283q-210 294 -310 414h214zM401 747l-67 72l-64 -72h-130l122 129h147l126 -129h-134z" />
    <glyph glyph-name="ycircumflex" unicode="&#x177;" horiz-adv-x="512" 
d="M165 -25q-72 260 -176 536h155q59 -154 112 -356q75 214 109 356h153q-78 -272 -195 -542q-46 -108 -73 -161h-169q37 63 84 167zM321 568q-22 23 -66 71q-12 -13 -33 -36.5t-31 -34.5h-131q20 21 61 64t61 65h147l126 -129h-134z" />
    <glyph glyph-name="Ydieresis" unicode="&#x178;" horiz-adv-x="653" 
d="M159 697q84 -110 179 -247q120 169 166 247h199q-135 -207 -287 -413v-284h-161v283q-210 294 -310 414h214zM224 872q41 0 55 -11.5t14 -51.5q0 -44 -14 -57.5t-55 -13.5q-40 0 -54 13.5t-14 57.5q0 40 13.5 51.5t54.5 11.5zM450 872q40 0 54 -11.5t14 -51.5
q0 -44 -14 -57.5t-54 -13.5q-41 0 -55 13.5t-14 57.5q0 40 14 51.5t55 11.5z" />
    <glyph glyph-name="Zacute" unicode="&#x179;" 
d="M15 0v34q166 237 343 522h-323v141h579v-32q-60 -104 -171 -273.5t-173 -250.5h342v-141h-597zM341 747h-130l127 129h159z" />
    <glyph glyph-name="zacute" unicode="&#x17a;" horiz-adv-x="498" 
d="M27 512h458v-25q-107 -179 -238 -355h226v-132h-463v25q63 84 136 192t104 163h-223v132zM294 568h-130l123 129h157z" />
    <glyph glyph-name="Zdotaccent" unicode="&#x17b;" 
d="M15 0v34q166 237 343 522h-323v141h579v-32q-60 -104 -171 -273.5t-173 -250.5h342v-141h-597zM322 877q41 0 55 -12t14 -52q0 -44 -14.5 -57.5t-54.5 -13.5t-54 13.5t-14 57.5q0 40 14 52t54 12z" />
    <glyph glyph-name="zdotaccent" unicode="&#x17c;" horiz-adv-x="498" 
d="M27 512h458v-25q-107 -179 -238 -355h226v-132h-463v25q63 84 136 192t104 163h-223v132zM254 694q40 0 54 -12t14 -52q0 -44 -14 -57.5t-54 -13.5t-54.5 13.5t-14.5 57.5q0 40 14 52t55 12z" />
    <glyph glyph-name="Zcaron" unicode="&#x17d;" 
d="M15 0v34q166 237 343 522h-323v141h579v-32q-60 -104 -171 -273.5t-173 -250.5h342v-141h-597zM265 876l67 -72l65 72h130l-122 -129h-147l-126 129h133z" />
    <glyph glyph-name="zcaron" unicode="&#x17e;" horiz-adv-x="498" 
d="M27 512h458v-25q-107 -179 -238 -355h226v-132h-463v25q63 84 136 192t104 163h-223v132zM190 697q44 -48 66 -71q10 11 31 34.5t33 36.5h130q-21 -22 -61 -65t-61 -64h-147l-126 129h135z" />
    <glyph glyph-name="florin" unicode="&#x192;" horiz-adv-x="387" 
d="M309 528l-3 -17h165l-24 -131h-166l-73 -387q-18 -93 -86.5 -144t-151.5 -51q-112 0 -169 24l47 113q52 -18 101 -18q44 0 71.5 16t35.5 60l72 387h-91l25 131h90l5 27q19 98 80.5 143t151.5 45q91 0 154 -24l-54 -119q-39 14 -94 14q-73 0 -86 -69z" />
    <glyph glyph-name="Scommaaccent" unicode="&#x218;" horiz-adv-x="622" 
d="M571 681l-33 -138q-81 23 -191 23q-76 0 -105 -15.5t-29 -52.5q0 -34 26.5 -49t114.5 -24q120 -14 175 -63.5t55 -148.5q0 -127 -71.5 -177t-237.5 -50q-134 0 -226 33l33 138q86 -23 191 -23q79 0 108 14.5t29 53.5q0 24 -10 37.5t-43 24t-97 17.5q-115 12 -167 56
t-52 138q0 128 74.5 183.5t232.5 55.5q132 0 223 -33zM412 -51l-111 -167h-120l72 167h159z" />
    <glyph glyph-name="scommaaccent" unicode="&#x219;" horiz-adv-x="484" 
d="M439 498l-30 -114q-80 22 -151 22q-40 0 -56 -8t-16 -36q0 -20 17 -28.5t76 -15.5q92 -12 132 -46t40 -110q0 -97 -61 -136.5t-168 -39.5q-105 0 -182 28l30 116q73 -21 145 -21q49 0 68.5 8.5t19.5 36.5q0 22 -20 31.5t-82 15.5q-86 8 -125 40t-39 110q0 97 60 136
t167 39q96 0 175 -28zM342 -51l-111 -167h-120l72 167h159z" />
    <glyph glyph-name="circumflex" unicode="&#x2c6;" horiz-adv-x="651" 
d="M402 568q-22 23 -66 71q-12 -13 -33 -36.5t-31 -34.5h-131q21 21 61.5 64t60.5 65h147l126 -129h-134z" />
    <glyph glyph-name="caron" unicode="&#x2c7;" horiz-adv-x="647" 
d="M276 697q44 -48 66 -71q10 11 31 34.5t33 36.5h130q-20 -22 -60.5 -65t-61.5 -64h-147l-126 129h135z" />
    <glyph glyph-name="breve" unicode="&#x2d8;" horiz-adv-x="518" 
d="M91 697h101q0 -31 14 -41.5t46 -10.5t46 10.5t14 41.5h94q0 -143 -158 -143q-157 0 -157 143z" />
    <glyph glyph-name="dotaccent" unicode="&#x2d9;" horiz-adv-x="490" 
d="M225 694q40 0 54 -12t14 -52q0 -44 -14 -57.5t-54 -13.5t-54.5 13.5t-14.5 57.5q0 40 14 52t55 12z" />
    <glyph glyph-name="ring" unicode="&#x2da;" horiz-adv-x="708" 
d="M360 742q65 0 94 -22t29 -78t-29 -78t-94 -22q-66 0 -95.5 22t-29.5 78t28.5 78t96.5 22zM360 680q-28 0 -37.5 -8.5t-9.5 -30.5t9.5 -30t37.5 -8q27 0 36.5 8.5t9.5 29.5q0 22 -9 30.5t-37 8.5z" />
    <glyph glyph-name="ogonek" unicode="&#x2db;" horiz-adv-x="635" 
d="M445 12h43q-48 -29 -64 -49.5t-16 -48.5q0 -20 12 -29t45 -9q47 0 78 26l39 -70q-50 -35 -134 -35q-76 0 -105.5 21.5t-29.5 67.5q0 41 33.5 75t98.5 51z" />
    <glyph glyph-name="tilde" unicode="&#x2dc;" horiz-adv-x="709" 
d="M449 708l72 -58q-15 -41 -47 -67.5t-77 -26.5q-33 0 -76 23.5t-65 23.5q-28 0 -48 -46l-66 65q45 80 111 80q41 0 84 -23t62 -23q18 0 28.5 11t21.5 41z" />
    <glyph glyph-name="hungarumlaut" unicode="&#x2dd;" horiz-adv-x="509" 
d="M258 568h-102l94 129h126zM436 568h-102l93 129h127z" />
    <glyph glyph-name="Delta" unicode="&#x394;" horiz-adv-x="653" 
d="M674 0h-705q42 141 115 342.5t136 354.5h206q129 -425 248 -697zM312 523q-54 -136 -130 -382h259q-75 200 -129 382z" />
    <glyph glyph-name="Delta" unicode="&#x2206;" horiz-adv-x="653" 
d="M674 0h-705q42 141 115 342.5t136 354.5h206q129 -425 248 -697zM312 523q-54 -136 -130 -382h259q-75 200 -129 382z" />
    <glyph glyph-name="Omega" unicode="&#x3a9;" horiz-adv-x="810" 
d="M7 0v147h146q-33 24 -58 95.5t-25 153.5q0 176 81.5 247t252.5 71t252.5 -71t81.5 -247q0 -82 -24.5 -153t-58.5 -96h147v-147h-339v139q62 16 83 74t21 181q0 110 -30 141t-133 31t-132.5 -31t-29.5 -141q0 -122 20.5 -180.5t81.5 -74.5v-139h-337z" />
    <glyph glyph-name="Omega" unicode="&#x2126;" horiz-adv-x="810" 
d="M7 0v147h146q-33 24 -58 95.5t-25 153.5q0 176 81.5 247t252.5 71t252.5 -71t81.5 -247q0 -82 -24.5 -153t-58.5 -96h147v-147h-339v139q62 16 83 74t21 181q0 110 -30 141t-133 31t-132.5 -31t-29.5 -141q0 -122 20.5 -180.5t81.5 -74.5v-139h-337z" />
    <glyph glyph-name="pi" unicode="&#x3c0;" horiz-adv-x="654" 
d="M22 365v147h610v-147h-82v-365h-153v365h-143v-256q0 -112 -74 -161l-105 99q25 18 25 60v258h-78z" />
    <glyph glyph-name="afii10023" unicode="&#x401;" horiz-adv-x="626" 
d="M82 697h520v-141h-359v-125h257v-138h-257v-152h359v-141h-520v697zM224 872q41 0 55 -11.5t14 -51.5q0 -44 -14 -57.5t-55 -13.5q-40 0 -54 13.5t-14 57.5q0 40 13.5 51.5t54.5 11.5zM450 872q40 0 54 -11.5t14 -51.5q0 -44 -14 -57.5t-54 -13.5q-41 0 -55 13.5
t-14 57.5q0 40 14 51.5t55 11.5z" />
    <glyph glyph-name="afii10051" unicode="&#x402;" horiz-adv-x="767" 
d="M628 556h-232v-122q68 32 136 32q49 0 81 -10.5t58.5 -40t38.5 -86.5t12 -146q0 -290 -148 -372l-115 102q50 30 75 85t25 179q0 67 -9.5 100.5t-26.5 43t-51 9.5q-30 0 -52.5 -8t-23.5 -22v-300h-162v556h-233v141h627v-141z" />
    <glyph glyph-name="afii10052" unicode="&#x403;" horiz-adv-x="553" 
d="M243 0h-161v697h490v-141h-329v-556zM354 747h-129l126 129h160z" />
    <glyph glyph-name="afii10053" unicode="&#x404;" horiz-adv-x="620" 
d="M499 293h-274q8 -97 52 -127.5t143 -30.5q86 0 145 19q5 -24 15.5 -72.5t15.5 -72.5q-96 -23 -210 -23q-116 0 -188 32.5t-111 114.5t-39 222q0 106 21 176.5t65.5 110.5t104 56t147.5 16q115 0 210 -25q-5 -26 -16 -73.5t-15 -68.5q-59 19 -145 19q-97 0 -140 -25.5
t-54 -109.5h273v-138z" />
    <glyph glyph-name="afii10054" unicode="&#x405;" horiz-adv-x="622" 
d="M571 681l-33 -138q-81 23 -191 23q-76 0 -105 -15.5t-29 -52.5q0 -34 26.5 -49t114.5 -24q120 -14 175 -63.5t55 -148.5q0 -127 -71.5 -177t-237.5 -50q-134 0 -226 33l33 138q86 -23 191 -23q79 0 108 14.5t29 53.5q0 24 -10 37.5t-43 24t-97 17.5q-115 12 -167 56
t-52 138q0 128 74.5 183.5t232.5 55.5q132 0 223 -33z" />
    <glyph glyph-name="afii10055" unicode="&#x406;" horiz-adv-x="325" 
d="M82 697h161v-697h-161v697z" />
    <glyph glyph-name="afii10056" unicode="&#x407;" horiz-adv-x="325" 
d="M82 697h161v-697h-161v697zM50 872q41 0 55 -11.5t14 -51.5q0 -44 -14 -57.5t-55 -13.5q-40 0 -54 13.5t-14 57.5q0 40 13.5 51.5t54.5 11.5zM276 872q40 0 54 -11.5t14 -51.5q0 -44 -14 -57.5t-54 -13.5q-41 0 -55 13.5t-14 57.5q0 40 14 51.5t55 11.5z" />
    <glyph glyph-name="afii10057" unicode="&#x408;" horiz-adv-x="472" 
d="M394 697v-505q0 -58 -18.5 -100t-51.5 -64t-70.5 -32t-81.5 -10q-93 0 -169 26l27 144q57 -20 123 -20q78 0 78 82v479h163z" />
    <glyph glyph-name="afii10058" unicode="&#x409;" horiz-adv-x="1091" 
d="M483 548h-168q-27 -283 -119 -548h-171q128 389 141 697h478v-227h224q94 0 141 -64.5t47 -168.5q0 -237 -185 -237h-388v548zM814 339h-170v-202h172q64 0 64 101t-66 101z" />
    <glyph glyph-name="afii10059" unicode="&#x40a;" horiz-adv-x="1103" 
d="M243 328v-328h-161v697h161v-233h252v233h161v-233h224q94 0 141 -64t47 -167q0 -233 -185 -233h-388v328h-252zM826 328h-170v-191h172q33 0 48.5 22.5t15.5 73.5q0 95 -66 95z" />
    <glyph glyph-name="afii10060" unicode="&#x40b;" horiz-adv-x="774" 
d="M713 238v-238h-154v228q0 60 -22 81t-65 21q-30 0 -52.5 -8t-23.5 -22v-300h-162v556h-233v141h627v-141h-232v-122q68 32 136 32q45 0 75.5 -9t56 -32.5t37.5 -69.5t12 -117z" />
    <glyph glyph-name="afii10061" unicode="&#x40c;" horiz-adv-x="687" 
d="M699 0h-191q-44 126 -85 195.5t-81 96.5t-99 33v-325h-161v697h161v-334q125 139 246 334h192q-162 -251 -228 -313q32 -12 56.5 -30t55.5 -57.5t64.5 -113.5t69.5 -183zM410 747h-130l127 129h159z" />
    <glyph glyph-name="afii10062" unicode="&#x40e;" horiz-adv-x="627" 
d="M229 180q-4 8 -11.5 26.5t-11.5 29.5q-114 275 -226 461h194q86 -153 156 -340q96 196 145 340h186q-66 -169 -161.5 -361.5t-182.5 -335.5h-205q60 78 117 180zM172 871h101q0 -31 14 -41.5t46 -10.5q8 0 11 1q25 2 37 13t12 38h94q0 -143 -158 -143q-157 0 -157 143z
" />
    <glyph glyph-name="afii10145" unicode="&#x40f;" horiz-adv-x="748" 
d="M666 0h-217l-21 -190h-105l-21 190h-219v697h161v-549h262v549h160v-697z" />
    <glyph glyph-name="afii10017" unicode="&#x410;" horiz-adv-x="689" 
d="M543 0q-30 71 -59 154h-287q-20 -65 -45 -154h-172q101 339 247 697h249q117 -386 245 -697h-178zM355 557h-26q-36 -98 -91 -264h200q-51 152 -83 264z" />
    <glyph glyph-name="afii10018" unicode="&#x411;" horiz-adv-x="723" 
d="M243 137h195q51 0 51 77q0 83 -55 83h-191v-160zM613 697v-141h-370v-128h234q187 0 187 -215q0 -118 -46.5 -165.5t-137.5 -47.5h-398v697h531z" />
    <glyph glyph-name="afii10019" unicode="&#x412;" horiz-adv-x="723" 
d="M243 137h195q51 0 51 77q0 83 -55 83h-191v-160zM243 560v-132h190q24 0 34.5 15t10.5 51t-10.5 51t-34.5 15h-190zM502 367q94 -4 128 -47t34 -132q0 -101 -47 -144.5t-137 -43.5h-398v697h395q100 0 137 -40t37 -127q0 -79 -30.5 -117.5t-118.5 -45.5z" />
    <glyph glyph-name="afii10020" unicode="&#x413;" horiz-adv-x="550" 
d="M243 0h-161v697h490v-141h-329v-556z" />
    <glyph glyph-name="afii10021" unicode="&#x414;" horiz-adv-x="822" 
d="M699 697v-549h123l-22 -302h-143v154h-484v-154h-144l-22 302h112q86 265 98 549h482zM539 148v408h-174q-21 -237 -72 -408h246z" />
    <glyph glyph-name="afii10022" unicode="&#x415;" horiz-adv-x="626" 
d="M82 697h520v-141h-359v-125h257v-138h-257v-152h359v-141h-520v697z" />
    <glyph glyph-name="afii10024" unicode="&#x416;" horiz-adv-x="1007" 
d="M178 0h-190q46 144 89 228t73 112t71 44q-54 53 -215 313h190q117 -200 227 -331v331h161v-331q106 126 227 331h190q-161 -260 -215 -313q41 -16 71 -44t73 -112t89 -228h-190q-42 127 -79 196t-74.5 96t-91.5 33v-325h-161v325q-55 -6 -92.5 -33t-74.5 -96t-78 -196z
" />
    <glyph glyph-name="afii10025" unicode="&#x417;" horiz-adv-x="645" 
d="M186 293v138h117q53 0 74 14t21 55q0 39 -29.5 53t-115.5 14q-114 0 -176 -19l-30 141q113 25 244 25q155 0 217 -40.5t62 -140.5q0 -80 -30.5 -119.5t-118.5 -46.5q94 -4 129 -48t35 -132q0 -110 -69 -155.5t-225 -45.5q-137 0 -247 24l30 143q63 -19 179 -19
q91 0 123.5 16.5t32.5 62.5q0 45 -24 62.5t-78 17.5h-121z" />
    <glyph glyph-name="afii10026" unicode="&#x418;" horiz-adv-x="796" 
d="M714 697v-697h-159v459q-127 -240 -262 -459h-211v697h158v-478q160 262 277 478h197z" />
    <glyph glyph-name="afii10027" unicode="&#x419;" horiz-adv-x="796" 
d="M714 697v-697h-159v459q-127 -240 -262 -459h-211v697h158v-478q160 262 277 478h197zM238 871h101q0 -31 14 -41.5t46 -10.5t46 10.5t14 41.5h94q0 -143 -158 -143q-157 0 -157 143z" />
    <glyph glyph-name="afii10028" unicode="&#x41a;" horiz-adv-x="687" 
d="M699 0h-191q-44 126 -85 195.5t-81 96.5t-99 33v-325h-161v697h161v-334q125 139 246 334h192q-162 -251 -228 -313q32 -12 56.5 -30t55.5 -57.5t64.5 -113.5t69.5 -183z" />
    <glyph glyph-name="afii10029" unicode="&#x41b;" horiz-adv-x="736" 
d="M493 556h-178q-27 -294 -119 -556h-171q128 389 141 697h488v-697h-161v556z" />
    <glyph glyph-name="afii10030" unicode="&#x41c;" horiz-adv-x="939" 
d="M477 289q80 212 174 408h206v-697h-156v471q-79 -174 -172 -413h-128q-121 318 -163 413v-471h-156v697h216q83 -165 179 -408z" />
    <glyph glyph-name="afii10031" unicode="&#x41d;" horiz-adv-x="748" 
d="M243 294v-294h-161v697h161v-254h262v254h161v-697h-161v294h-262z" />
    <glyph glyph-name="afii10032" unicode="&#x41e;" horiz-adv-x="775" 
d="M388 714q88 0 148 -16.5t104.5 -56.5t65.5 -110t21 -175q0 -106 -21 -178.5t-65.5 -114.5t-105 -59.5t-147.5 -17.5t-148 17.5t-105 59.5t-65 114t-21 179q0 105 21 175t65.5 110t104.5 56.5t148 16.5zM388 133q56 0 86 7t50 32t25.5 65.5t5.5 116.5q0 60 -4.5 95.5
t-13.5 60.5t-30 36.5t-47 15.5t-72 4t-72 -4t-47 -15.5t-30 -36.5t-13.5 -60.5t-4.5 -95.5q0 -76 5.5 -116.5t25.5 -65.5t50 -32t86 -7z" />
    <glyph glyph-name="afii10033" unicode="&#x41f;" horiz-adv-x="748" 
d="M243 556v-556h-161v697h584v-697h-161v556h-262z" />
    <glyph glyph-name="afii10034" unicode="&#x420;" horiz-adv-x="684" 
d="M243 350h172q70 0 70 102q0 107 -68 107h-174v-209zM243 0h-161v697h389q191 0 191 -245q0 -101 -48.5 -168t-141.5 -67h-229v-217z" />
    <glyph glyph-name="afii10035" unicode="&#x421;" horiz-adv-x="588" 
d="M49 355q0 106 19.5 176t62 110.5t101.5 56.5t147 16q114 0 202 -25l-31 -142q-54 19 -137 19q-58 0 -90 -6t-57.5 -28t-35 -64.5t-9.5 -114.5t9.5 -115t34.5 -66t58 -30t90 -7q78 0 137 19l31 -145q-89 -23 -202 -23q-174 0 -252 81t-78 288z" />
    <glyph glyph-name="afii10036" unicode="&#x422;" horiz-adv-x="629" 
d="M396 0h-162v556h-233v141h627v-141h-232v-556z" />
    <glyph glyph-name="afii10037" unicode="&#x423;" horiz-adv-x="641" 
d="M331 358q94 194 144 339h187q-66 -167 -161.5 -359t-183.5 -338h-205q63 85 117 180q-39 104 -114 261.5t-135 255.5h194q88 -157 157 -339z" />
    <glyph glyph-name="afii10038" unicode="&#x424;" horiz-adv-x="829" 
d="M327 697h161v-80q172 -9 237.5 -69t65.5 -198t-65.5 -198t-237.5 -69v-83h-161v82q-116 6 -179.5 36t-88.5 84t-25 148q0 139 61.5 198.5t231.5 68.5v80zM625 350q0 79 -25 106t-112 29v-272q87 3 112 30.5t25 106.5zM197 350q0 -77 24.5 -105t105.5 -32v272
q-81 -3 -105.5 -30.5t-24.5 -104.5z" />
    <glyph glyph-name="afii10039" unicode="&#x425;" horiz-adv-x="688" 
d="M200 697q39 -51 151 -202q81 114 134 202h201q-83 -126 -234 -342q177 -252 246 -355h-203q-73 110 -145 212q-104 -140 -161 -212h-201q85 106 261 352q-176 241 -260 345h211z" />
    <glyph glyph-name="afii10040" unicode="&#x426;" horiz-adv-x="788" 
d="M243 697v-549h262v549h161v-549h122l-22 -302h-143v154h-541v697h161z" />
    <glyph glyph-name="afii10041" unicode="&#x427;" horiz-adv-x="701" 
d="M457 398v299h161v-697h-161v214q-58 -28 -169 -28q-57 0 -99 11t-78 37.5t-55 78t-19 125.5v259h162v-253q0 -64 26.5 -85.5t100.5 -21.5q131 0 131 61z" />
    <glyph glyph-name="afii10042" unicode="&#x428;" horiz-adv-x="1009" 
d="M927 697v-697h-845v697h161v-549h181v549h162v-549h181v549h160z" />
    <glyph glyph-name="afii10043" unicode="&#x429;" horiz-adv-x="1050" 
d="M243 697v-549h181v549h162v-549h181v549h160v-549h123l-23 -302h-142v154h-803v697h161z" />
    <glyph glyph-name="afii10044" unicode="&#x42a;" horiz-adv-x="742" 
d="M18 697h267v-225h234q93 0 140.5 -66t47.5 -169q0 -46 -8 -77q-24 -160 -177 -160h-398v556h-106v141zM285 137h182q64 0 64 100q0 99 -66 99h-180v-199z" />
    <glyph glyph-name="afii10045" unicode="&#x42b;" horiz-adv-x="969" 
d="M243 137h182q64 0 64 100q0 99 -66 99h-180v-199zM82 697h161v-225h234q93 0 140.5 -66t47.5 -169q0 -237 -185 -237h-398v697zM725 697h162v-697h-162v697z" />
    <glyph glyph-name="afii10046" unicode="&#x42c;" horiz-adv-x="700" 
d="M243 137h182q64 0 64 100q0 99 -66 99h-180v-199zM82 697h161v-225h234q93 0 140.5 -66t47.5 -169q0 -237 -185 -237h-398v697z" />
    <glyph glyph-name="afii10047" unicode="&#x42d;" horiz-adv-x="620" 
d="M395 293h-275v138h273q-10 84 -53.5 109.5t-140.5 25.5q-87 0 -144 -19q-6 26 -16.5 74t-15.5 68q96 25 210 25q88 0 148 -16t104.5 -56t65 -110.5t20.5 -176.5q0 -140 -39 -222t-110.5 -114.5t-188.5 -32.5q-114 0 -210 23q5 24 16 72.5t16 72.5q57 -19 144 -19
q100 0 144 30.5t52 127.5z" />
    <glyph glyph-name="afii10048" unicode="&#x42e;" horiz-adv-x="989" 
d="M659 714q70 0 119 -16.5t87 -55.5t56.5 -109.5t18.5 -174.5q0 -206 -70 -289t-211 -83q-130 0 -201.5 70t-80.5 238h-134v-294h-161v697h161v-254h135q14 151 84 211t197 60zM660 134q48 0 70.5 16t32 62.5t9.5 145.5q0 96 -10 139.5t-31.5 57t-70.5 13.5t-71.5 -13.5
t-33.5 -57.5t-11 -139q0 -98 11 -145t34 -63t71 -16z" />
    <glyph glyph-name="afii10049" unicode="&#x42f;" horiz-adv-x="722" 
d="M479 381v179h-181q-59 0 -59 -92q0 -87 61 -87h179zM234 300q-93 5 -133.5 57.5t-40.5 135.5q0 204 191 204h389v-697h-161v249h-101q-40 0 -64.5 -17.5t-49 -71t-54.5 -160.5h-187q42 125 76 189t62 85t73 26z" />
    <glyph glyph-name="afii10065" unicode="&#x430;" horiz-adv-x="569" 
d="M508 327v-301q-110 -40 -243 -40q-127 0 -173 35t-46 135t48.5 133.5t151.5 33.5q53 0 116 -13q0 54 -21 71t-95 17q-90 0 -159 -21l-24 122q106 27 220 27q119 0 172 -44t53 -155zM362 114v97q-27 7 -83 7q-44 0 -59.5 -10.5t-15.5 -46.5q0 -39 14 -50t59 -11
q48 0 85 14z" />
    <glyph glyph-name="afii10066" unicode="&#x431;" horiz-adv-x="580" 
d="M204 246q0 -83 18.5 -110.5t64.5 -27.5q29 0 44 3.5t27 18t16.5 42t4.5 75.5q0 78 -18.5 102.5t-70.5 24.5q-53 0 -69.5 -25.5t-16.5 -102.5zM204 449q40 54 126 54q51 0 86.5 -11t63.5 -38.5t41.5 -78t13.5 -125.5q0 -150 -59 -207t-194 -57q-59 0 -98.5 12t-71.5 45
t-47.5 97t-15.5 161q0 85 5.5 146t20 105t33 71.5t50 44.5t66 24t86.5 11q127 10 198 37v-132q-51 -22 -188 -34q-63 -5 -85.5 -33t-30.5 -92z" />
    <glyph glyph-name="afii10067" unicode="&#x432;" horiz-adv-x="594" 
d="M220 114h128q22 0 32 10t10 35q0 27 -11 38.5t-35 11.5h-124v-95zM220 398v-82h123q38 0 38 41q0 23 -9 32t-29 9h-123zM416 269q77 -3 105 -34.5t28 -96.5q0 -74 -39.5 -106t-114.5 -32h-329v512h326q84 0 115.5 -29.5t31.5 -93.5q0 -58 -25.5 -86.5t-97.5 -33.5z" />
    <glyph glyph-name="afii10068" unicode="&#x433;" horiz-adv-x="437" 
d="M220 380v-380h-154v512h370v-132h-216z" />
    <glyph glyph-name="afii10069" unicode="&#x434;" horiz-adv-x="683" 
d="M163 512h416v-380h101l-34 -280h-125v148h-359v-148h-126l-34 280h96q55 212 65 380zM426 380h-124q-8 -111 -44 -248h168v248z" />
    <glyph glyph-name="afii10070" unicode="&#x435;" horiz-adv-x="556" 
d="M459 131l23 -117q-84 -28 -185 -28q-118 0 -184.5 62.5t-66.5 210.5q0 147 61.5 207t179.5 60q68 0 110.5 -12.5t73 -46.5t41 -96t5.5 -160h-313q1 -58 27 -77.5t86 -19.5q77 0 142 17zM298 410q-47 0 -66.5 -18.5t-26.5 -67.5h178q-1 52 -19.5 69t-65.5 17z" />
    <glyph glyph-name="afii10072" unicode="&#x436;" horiz-adv-x="860" 
d="M178 0h-174q40 103 75.5 164.5t57 80.5t50.5 32q-24 22 -72 84.5t-102 150.5h175q96 -153 165 -243v243h154v-243q81 107 164 243h175q-53 -88 -101.5 -150.5t-72.5 -84.5q29 -13 50.5 -32t57.5 -80.5t76 -164.5h-174q-48 115 -90 166.5t-85 64.5v-231h-154v231
q-43 -13 -85 -64.5t-90 -166.5z" />
    <glyph glyph-name="afii10073" unicode="&#x437;" horiz-adv-x="525" 
d="M153 210v111h80q44 0 60.5 7.5t16.5 29.5q0 23 -17 31.5t-69 8.5q-89 0 -165 -23l-29 131q95 20 197 20q142 0 193 -28t51 -106q0 -60 -25.5 -89t-94.5 -34q72 -4 102 -37t30 -97q0 -86 -56 -117.5t-200 -31.5q-100 0 -200 19l30 136q71 -26 166 -26q59 0 78 10.5
t19 38.5q0 27 -20 36.5t-67 9.5h-80z" />
    <glyph glyph-name="afii10074" unicode="&#x438;" horiz-adv-x="613" 
d="M393 0v268q-74 -138 -174 -268h-153v511h153v-280q70 85 174 280h153v-511h-153z" />
    <glyph glyph-name="afii10075" unicode="&#x439;" horiz-adv-x="613" 
d="M393 0v268q-74 -138 -174 -268h-153v511h153v-280q70 85 174 280h153v-511h-153zM147 697h100q0 -31 14 -41.5t47 -10.5q8 0 11 1q25 2 36.5 13t11.5 38h94q0 -143 -157 -143t-157 143z" />
    <glyph glyph-name="afii10076" unicode="&#x43a;" horiz-adv-x="588" 
d="M584 0h-176q-52 121 -94.5 169.5t-93.5 61.5v-231h-154v512h154v-246q60 75 177 246h177q-125 -192 -177 -235q29 -12 51 -32t57.5 -80t78.5 -165z" />
    <glyph glyph-name="afii10077" unicode="&#x43b;" horiz-adv-x="595" 
d="M376 380h-118q-14 -203 -68 -380h-161q66 225 84 512h416v-512h-153v380z" />
    <glyph glyph-name="afii10078" unicode="&#x43c;" horiz-adv-x="788" 
d="M401 245q60 156 113 267h207v-512h-151v333q-67 -146 -124 -306h-110q-62 182 -118 306v-333h-152v512h216q39 -78 119 -267z" />
    <glyph glyph-name="afii10079" unicode="&#x43d;" horiz-adv-x="603" 
d="M383 201h-164v-201h-153v511h153v-179h164v179h153v-511h-153v201z" />
    <glyph glyph-name="afii10080" unicode="&#x43e;" horiz-adv-x="590" 
d="M294 -14q-129 0 -188.5 60.5t-59.5 212.5q0 151 59.5 209t188.5 58q131 0 190.5 -58t59.5 -209q0 -152 -60 -212.5t-190 -60.5zM294 406q-57 0 -75 -26.5t-18 -123.5q0 -94 18.5 -122t74.5 -28t75 28t19 122q0 67 -9 99t-27 41.5t-58 9.5z" />
    <glyph glyph-name="afii10081" unicode="&#x43f;" horiz-adv-x="603" 
d="M220 380v-380h-154v512h471v-512h-154v380h-163z" />
    <glyph glyph-name="afii10082" unicode="&#x440;" horiz-adv-x="596" 
d="M220 386v-235q0 -17 22.5 -28t56.5 -11q55 0 75.5 29.5t20.5 110.5q0 90 -20 118t-77 28q-47 0 -78 -12zM66 -192v682q94 36 232 36q135 0 193 -58.5t58 -211.5q0 -147 -57 -208.5t-160 -61.5q-58 0 -112 23v-201h-154z" />
    <glyph glyph-name="afii10083" unicode="&#x441;" horiz-adv-x="472" 
d="M430 141l32 -129q-63 -26 -161 -26q-124 0 -189.5 62t-65.5 211q0 147 65.5 207t189.5 60q98 0 161 -22l-32 -130q-55 21 -116 21q-63 0 -88 -25.5t-25 -113.5q0 -85 26 -111.5t87 -26.5q60 0 116 23z" />
    <glyph glyph-name="afii10084" unicode="&#x442;" horiz-adv-x="487" 
d="M320 380v-380h-153v380h-165v132h482v-132h-164z" />
    <glyph glyph-name="afii10085" unicode="&#x443;" horiz-adv-x="512" 
d="M165 -25q-72 260 -176 536h155q59 -154 112 -356q75 214 109 356h153q-78 -272 -195 -542q-46 -108 -73 -161h-169q37 63 84 167z" />
    <glyph glyph-name="afii10086" unicode="&#x444;" horiz-adv-x="836" 
d="M341 520v196h154v-196q23 6 63 6q129 0 180.5 -58t51.5 -212q0 -148 -50 -209t-147 -61q-54 0 -98 23v-201h-154v201q-42 -23 -98 -23q-97 0 -147 61t-50 209q0 154 51.5 212t180.5 58q40 0 63 -6zM276 112q31 0 48 10.5t17 26.5v240q-27 9 -63 9q-48 0 -66.5 -28.5
t-18.5 -117.5q0 -78 19.5 -109t63.5 -31zM560 112q44 0 63.5 30.5t19.5 109.5q0 89 -18.5 117.5t-66.5 28.5q-34 0 -63 -9v-241q2 -36 65 -36z" />
    <glyph glyph-name="afii10087" unicode="&#x445;" horiz-adv-x="520" 
d="M529 0h-169q-28 48 -92 140q-70 -96 -107 -140h-167q60 70 195 255q-114 160 -193 256h176q30 -37 100 -135q27 38 89 135h167q-54 -83 -174 -252q113 -161 175 -259z" />
    <glyph glyph-name="afii10088" unicode="&#x446;" horiz-adv-x="663" 
d="M537 132h124l-35 -280h-125v148h-435v512h154v-380h163v380h154v-380z" />
    <glyph glyph-name="afii10089" unicode="&#x447;" horiz-adv-x="571" 
d="M34 377v135h154v-125q0 -60 22 -81t65 -21q32 0 54 8.5t22 23.5v195h154v-512h-154v181q-68 -32 -136 -32q-45 0 -75.5 9t-56 32.5t-37.5 69.5t-12 117z" />
    <glyph glyph-name="afii10090" unicode="&#x448;" horiz-adv-x="893" 
d="M827 512v-512h-761v512h154v-380h150v380h153v-380h151v380h153z" />
    <glyph glyph-name="afii10091" unicode="&#x449;" horiz-adv-x="954" 
d="M791 -147v147h-725v511h153v-379h151v379h153v-379h150v379h154v-379h124l-35 -279h-125z" />
    <glyph glyph-name="afii10092" unicode="&#x44a;" horiz-adv-x="620" 
d="M247 336h171q76 0 117 -43.5t41 -125.5q0 -90 -40 -128.5t-118 -38.5h-325v380h-86v132h240v-176zM247 109h126q44 0 44 57q0 55 -47 55h-123v-112z" />
    <glyph glyph-name="afii10093" unicode="&#x44b;" horiz-adv-x="814" 
d="M346 108q44 0 44 57q0 56 -47 56h-124v-113h127zM219 336h171q76 0 117.5 -43.5t41.5 -125.5q0 -90 -40 -128.5t-119 -38.5h-324v511h153v-175zM748 511v-511h-154v511h154z" />
    <glyph glyph-name="afii10094" unicode="&#x44c;" horiz-adv-x="593" 
d="M346 108q44 0 44 57q0 56 -47 56h-124v-113h127zM219 336h171q76 0 117.5 -43.5t41.5 -125.5q0 -90 -40 -128.5t-119 -38.5h-324v511h153v-175z" />
    <glyph glyph-name="afii10095" unicode="&#x44d;" horiz-adv-x="480" 
d="M19 12l31 117q45 -17 119 -17q48 0 74.5 21t32.5 77h-188v114h186q-8 45 -34 61t-71 16q-70 0 -119 -17l-31 120q63 22 162 22q119 0 186 -60.5t67 -206.5q0 -148 -67 -210.5t-186 -62.5q-99 0 -162 26z" />
    <glyph glyph-name="afii10096" unicode="&#x44e;" horiz-adv-x="869" 
d="M575 -14q-114 0 -173 48t-70 167h-112v-201h-154v512h154v-180h113q14 108 72.5 151t169.5 43q129 0 188.5 -58t59.5 -209q0 -152 -59.5 -212.5t-188.5 -60.5zM575 406q-55 0 -73 -26.5t-18 -123.5q0 -94 18.5 -122t72.5 -28q55 0 73.5 28t18.5 122q0 97 -18 123.5
t-74 26.5z" />
    <glyph glyph-name="afii10097" unicode="&#x44f;" horiz-adv-x="615" 
d="M395 284v107h-124q-47 0 -47 -53q0 -54 48 -54h123zM202 217q-144 8 -144 145q0 68 38.5 109t124.5 41h328v-512h-154v166h-68q-46 0 -72.5 -32.5t-59.5 -133.5h-175q46 124 82.5 166.5t99.5 50.5z" />
    <glyph glyph-name="afii10071" unicode="&#x451;" horiz-adv-x="556" 
d="M459 131l23 -117q-84 -28 -185 -28q-118 0 -184.5 62.5t-66.5 210.5q0 147 61.5 207t179.5 60q68 0 110.5 -12.5t73 -46.5t41 -96t5.5 -160h-313q1 -58 27 -77.5t86 -19.5q77 0 142 17zM298 410q-47 0 -66.5 -18.5t-26.5 -67.5h178q-1 52 -19.5 69t-65.5 17zM176 694
q41 0 55 -12t14 -52q0 -44 -14.5 -57.5t-54.5 -13.5t-54 13.5t-14 57.5q0 40 14 52t54 12zM402 694q40 0 54 -12t14 -52q0 -44 -14 -57.5t-54 -13.5q-41 0 -55 13.5t-14 57.5q0 40 14 52t55 12z" />
    <glyph glyph-name="afii10099" unicode="&#x452;" horiz-adv-x="591" 
d="M220 574v-97q64 32 136 32q48 0 80.5 -11.5t58.5 -42.5t38 -89t12 -147q0 -161 -43 -267.5t-104 -140.5l-115 102q100 60 100 300q0 67 -9.5 100t-26.5 42.5t-51 9.5q-31 0 -53 -7.5t-23 -21.5v-336h-154v574h-45v104h45v44h154v-44h92v-104h-92z" />
    <glyph glyph-name="afii10100" unicode="&#x453;" horiz-adv-x="437" 
d="M220 380v-380h-154v512h370v-132h-216zM281 568h-130l123 129h157z" />
    <glyph glyph-name="afii10101" unicode="&#x454;" horiz-adv-x="480" 
d="M430 129l31 -117q-63 -26 -160 -26q-120 0 -187.5 62.5t-67.5 210.5q0 146 67 206.5t186 60.5q99 0 162 -22l-31 -120q-49 17 -119 17q-45 0 -71 -16t-34 -61h186v-114h-188q6 -56 32.5 -77t74.5 -21q74 0 119 17z" />
    <glyph glyph-name="afii10102" unicode="&#x455;" horiz-adv-x="484" 
d="M439 498l-30 -114q-80 22 -151 22q-40 0 -56 -8t-16 -36q0 -20 17 -28.5t76 -15.5q92 -12 132 -46t40 -110q0 -97 -61 -136.5t-168 -39.5q-105 0 -182 28l30 116q73 -21 145 -21q49 0 68.5 8.5t19.5 36.5q0 22 -20 31.5t-82 15.5q-86 8 -125 40t-39 110q0 97 60 136
t167 39q96 0 175 -28z" />
    <glyph glyph-name="afii10103" unicode="&#x456;" horiz-adv-x="284" 
d="M220 512v-512h-154v512h154zM143 734q51 0 69 -13.5t18 -59.5q0 -50 -18 -65.5t-69 -15.5t-69 15.5t-18 65.5q0 46 18 59.5t69 13.5z" />
    <glyph glyph-name="afii10104" unicode="&#x457;" horiz-adv-x="284" 
d="M220 512v-512h-154v512h154zM30 694q41 0 55 -12t14 -52q0 -44 -14.5 -57.5t-54.5 -13.5t-54 13.5t-14 57.5q0 40 14 52t54 12zM256 694q40 0 54 -12t14 -52q0 -44 -14 -57.5t-54 -13.5q-41 0 -55 13.5t-14 57.5q0 40 14 52t55 12z" />
    <glyph glyph-name="afii10105" unicode="&#x458;" horiz-adv-x="284" 
d="M143 734q51 0 69 -13.5t18 -59.5q0 -50 -18 -65.5t-69 -15.5t-69 15.5t-18 65.5q0 46 18 59.5t69 13.5zM220 512v-514q0 -112 -54 -156.5t-178 -44.5v124q78 0 78 73v518h154z" />
    <glyph glyph-name="afii10106" unicode="&#x459;" horiz-adv-x="903" 
d="M376 380h-118q-14 -203 -68 -380h-161q66 225 84 512h416v-176h171q76 0 117.5 -43.5t41.5 -125.5q0 -90 -40 -128.5t-119 -38.5h-324v380zM529 109h127q44 0 44 57q0 55 -47 55h-124v-112z" />
    <glyph glyph-name="afii10107" unicode="&#x45a;" horiz-adv-x="910" 
d="M537 336h171q76 0 117 -43.5t41 -125.5q0 -90 -40 -128.5t-118 -38.5h-325v221h-163v-221h-154v512h154v-176h163v176h154v-176zM537 109h126q44 0 44 57q0 55 -47 55h-123v-112z" />
    <glyph glyph-name="afii10108" unicode="&#x45b;" horiz-adv-x="597" 
d="M21 574v104h45v44h154v-44h92v-104h-92v-80q68 32 136 32q45 0 75.5 -9t56 -32.5t37.5 -69.5t12 -117v-298h-154v288q0 60 -22 81t-65 21q-32 0 -54 -8.5t-22 -23.5v-358h-154v574h-45z" />
    <glyph glyph-name="afii10109" unicode="&#x45c;" horiz-adv-x="588" 
d="M584 0h-176q-52 121 -94.5 169.5t-93.5 61.5v-231h-154v512h154v-246q60 75 177 246h177q-125 -192 -177 -235q29 -12 51 -32t57.5 -80t78.5 -165zM349 568h-130l123 129h157z" />
    <glyph glyph-name="afii10110" unicode="&#x45e;" horiz-adv-x="512" 
d="M165 -25q-72 260 -176 536h155q59 -154 112 -356q75 214 109 356h153q-78 -272 -195 -542q-46 -108 -73 -161h-169q37 63 84 167zM97 698h101q0 -31 14 -41.5t46 -10.5t46 10.5t14 41.5h94q0 -143 -158 -143q-157 0 -157 143z" />
    <glyph glyph-name="afii10193" unicode="&#x45f;" horiz-adv-x="603" 
d="M220 512v-380h163v380h154v-512h-160l-21 -185h-106l-21 185h-163v512h154z" />
    <glyph glyph-name="afii10050" unicode="&#x490;" horiz-adv-x="550" 
d="M82 0v697h347l37 185h106v-326h-329v-556h-161z" />
    <glyph glyph-name="afii10098" unicode="&#x491;" horiz-adv-x="437" 
d="M436 379h-217v-379h-153v511h243l36 174h91v-306z" />
    <glyph glyph-name="endash" unicode="&#x2013;" horiz-adv-x="596" 
d="M47 211v147h502v-147h-502z" />
    <glyph glyph-name="emdash" unicode="&#x2014;" horiz-adv-x="879" 
d="M47 211v147h785v-147h-785z" />
    <glyph glyph-name="quoteleft" unicode="&#x2018;" horiz-adv-x="275" 
d="M24 505l109 264h120l-78 -264h-151z" />
    <glyph glyph-name="quoteright" unicode="&#x2019;" horiz-adv-x="275" 
d="M252 762l-109 -265h-120l78 265h151z" />
    <glyph glyph-name="quotesinglbase" unicode="&#x201a;" horiz-adv-x="260" 
d="M244 105l-109 -264h-120l78 264h151z" />
    <glyph glyph-name="quotedblleft" unicode="&#x201c;" horiz-adv-x="486" 
d="M24 505l109 264h120l-78 -264h-151zM234 505l109 264h120l-78 -264h-151z" />
    <glyph glyph-name="quotedblright" unicode="&#x201d;" horiz-adv-x="486" 
d="M463 763l-109 -264h-120l78 264h151zM253 763l-109 -264h-120l78 264h151z" />
    <glyph glyph-name="quotedblbase" unicode="&#x201e;" horiz-adv-x="486" 
d="M463 98l-109 -265h-120l78 265h151zM253 98l-109 -265h-120l78 265h151z" />
    <glyph glyph-name="dagger" unicode="&#x2020;" horiz-adv-x="460" 
d="M30 459v124h137v138h124v-138h138v-124h-138v-215h-124v215h-137z" />
    <glyph glyph-name="daggerdbl" unicode="&#x2021;" horiz-adv-x="460" 
d="M30 459v124h137v138h124v-138h138v-124h-138v-79h138v-124h-138v-138h-124v138h-137v124h137v79h-137z" />
    <glyph glyph-name="bullet" unicode="&#x2022;" horiz-adv-x="590" 
d="M294 56q-129 0 -188.5 60.5t-59.5 212.5q0 151 59.5 209t188.5 58q131 0 190.5 -58t59.5 -209q0 -152 -60 -212.5t-190 -60.5z" />
    <glyph glyph-name="ellipsis" unicode="&#x2026;" horiz-adv-x="1106" 
d="M201 164q55 0 74 -15.5t19 -66.5q0 -55 -19 -72t-74 -17q-53 0 -72 17t-19 72q0 51 19 66.5t72 15.5zM551 164q55 0 74 -15.5t19 -66.5q0 -55 -19 -72t-74 -17q-53 0 -72 17t-19 72q0 51 19 66.5t72 15.5zM903 164q54 0 73 -15.5t19 -66.5q0 -55 -19 -72t-73 -17
q-53 0 -72 17t-19 72q0 51 19 66.5t72 15.5z" />
    <glyph glyph-name="perthousand" unicode="&#x2030;" horiz-adv-x="1427" 
d="M654 697h140l-446 -697h-139zM223 714q110 0 153.5 -47.5t43.5 -178.5q0 -134 -44 -185t-153 -51q-108 0 -152 51t-44 185q0 131 43.5 178.5t152.5 47.5zM223 359q39 0 51 23t12 105q0 79 -12 100t-51 21t-51 -21t-12 -100q0 -81 12 -104.5t51 -23.5zM784 448
q110 0 153.5 -47.5t43.5 -179.5q0 -134 -44 -184.5t-153 -50.5t-152.5 50.5t-43.5 184.5q0 132 43 179.5t153 47.5zM784 93q39 0 50.5 23t11.5 105q0 79 -11.5 100t-50.5 21t-51 -21.5t-12 -99.5q0 -81 12 -104.5t51 -23.5zM1203 448q110 0 153.5 -47.5t43.5 -179.5
q0 -134 -44 -184.5t-153 -50.5t-152.5 50.5t-43.5 184.5q0 132 43 179.5t153 47.5zM1203 93q39 0 50.5 23t11.5 105q0 79 -11.5 100t-50.5 21t-51 -21.5t-12 -99.5q0 -81 12 -104.5t51 -23.5z" />
    <glyph glyph-name="guilsinglleft" unicode="&#x2039;" horiz-adv-x="405" 
d="M382 516l-156 -195l156 -199l-86 -90l-273 286l271 286z" />
    <glyph glyph-name="guilsinglright" unicode="&#x203a;" horiz-adv-x="405" 
d="M24 121l156 195l-156 199l86 90l272 -287l-271 -285z" />
    <glyph glyph-name="fraction" unicode="&#x2044;" horiz-adv-x="625" 
d="M477 697h140l-460 -697h-140z" />
    <glyph glyph-name="fraction" unicode="&#x2215;" horiz-adv-x="625" 
d="M477 697h140l-460 -697h-140z" />
    <glyph glyph-name="franc" unicode="&#x20a3;" horiz-adv-x="575" 
d="M47 95v106h35v496h508v-141h-347v-162h210v-138h-210v-55h87v-106h-87v-95h-161v95h-35z" />
    <glyph glyph-name="Euro" unicode="&#x20ac;" horiz-adv-x="588" 
d="M49 355q0 106 19.5 176t62 110.5t101.5 56.5t147 16q114 0 202 -25l-31 -142q-54 19 -137 19q-78 0 -117 -15t-56 -64h212v-99h-231v-69h231v-98h-212q17 -52 56 -69t117 -17t137 19l31 -145q-89 -23 -202 -23q-174 0 -252 81t-78 288z" />
    <glyph glyph-name="afii61352" unicode="&#x2116;" horiz-adv-x="1212" 
d="M714 697v-697h-200q-118 218 -274 476v-476h-158v697h210q136 -222 262 -459v459h160zM793 92v117h353v-117h-353zM969 714q111 0 154.5 -46t43.5 -173q0 -130 -44 -178.5t-154 -48.5q-111 0 -154.5 48.5t-43.5 178.5q0 127 43.5 173t154.5 46zM969 375q40 0 52 21t12 99
q0 75 -11.5 94t-52.5 19q-42 0 -53.5 -19t-11.5 -94q0 -78 12 -99t53 -21z" />
    <glyph glyph-name="trademark" unicode="&#x2122;" horiz-adv-x="873" 
d="M227 333h-106v271h-117v93h340v-93h-117v-271zM514 697l91 -217l87 217h128v-364h-101v223l-85 -202h-73l-79 202v-223h-101v364h133z" />
    <glyph glyph-name="estimated" unicode="&#x212e;" horiz-adv-x="721" 
d="M681 285h-459q5 -93 42 -122.5t132 -29.5q35 0 91 6.5t80 14.5l31 -145q-96 -23 -202 -23q-87 0 -149.5 18t-108 60t-68 114.5t-22.5 177.5q0 104 21 175t64 110.5t99.5 56t135.5 16.5q162 0 238 -91.5t76 -293.5q0 -7 -0.5 -21.5t-0.5 -22.5zM368 566
q-76 0 -107.5 -25.5t-37.5 -108.5h286q-5 82 -35.5 108t-105.5 26z" />
    <glyph glyph-name="arrowleft" unicode="&#x2190;" horiz-adv-x="774" 
d="M401 -3l-389 365l389 365l111 -109l-198 -183h448v-146h-448l198 -182z" />
    <glyph glyph-name="arrowup" unicode="&#x2191;" horiz-adv-x="778" 
d="M24 347l365 389l365 -388l-109 -111l-183 198v-448h-146v448l-183 -198z" />
    <glyph glyph-name="arrowright" unicode="&#x2192;" horiz-adv-x="774" 
d="M373 726l389 -364l-389 -365l-111 109l198 182h-448v146h448l-198 183z" />
    <glyph glyph-name="arrowdown" unicode="&#x2193;" horiz-adv-x="778" 
d="M754 376l-365 -389l-365 389l109 111l183 -199v448h146v-448l182 199z" />
    <glyph glyph-name="partialdiff" unicode="&#x2202;" 
d="M307 435q29 0 62 -3q-54 107 -207 265h196q110 -112 169.5 -225t59.5 -249q0 -140 -54.5 -190t-217.5 -50q-151 0 -209.5 51t-58.5 186q0 120 56 167.5t204 47.5zM415 238q0 33 -5 57q-36 4 -82 4q-72 0 -92.5 -15.5t-20.5 -68.5q0 -49 19.5 -67t80.5 -18q62 0 81 19.5
t19 88.5z" />
    <glyph glyph-name="product" unicode="&#x220f;" horiz-adv-x="748" 
d="M243 548v-548h-161v697h584v-697h-161v548h-262z" />
    <glyph glyph-name="summation" unicode="&#x2211;" horiz-adv-x="629" 
d="M416 345q-84 -130 -141 -205h339v-140h-612q49 71 224 348q-134 211 -209 349h589v-141h-322q87 -140 132 -211z" />
    <glyph glyph-name="minus" unicode="&#x2212;" horiz-adv-x="563" 
d="M36 290v147h490v-147h-490z" />
    <glyph glyph-name="radical" unicode="&#x221a;" horiz-adv-x="597" 
d="M0 512h184q62 -164 112 -356q127 363 171 541h153q-38 -128 -116 -353.5t-126 -343.5h-183q-55 196 -113 359h-82v153z" />
    <glyph glyph-name="infinity" unicode="&#x221e;" horiz-adv-x="774" 
d="M327 351q0 43 -18.5 62t-65.5 19q-46 0 -62 -18t-16 -63t16 -63t62 -18q47 0 65.5 19t18.5 62zM387 258q-8 -77 -49 -104t-123 -27q-104 0 -146.5 46t-42.5 178t42.5 178t146.5 46q82 0 123 -27t49 -104q8 77 49 104t123 27q104 0 146.5 -46t42.5 -177
q0 -132 -42.5 -178.5t-146.5 -46.5q-82 0 -123 27t-49 104zM447 351q0 -43 18.5 -62t65.5 -19q46 0 62 18t16 63q0 46 -15.5 63.5t-62.5 17.5t-65.5 -19t-18.5 -62z" />
    <glyph glyph-name="integral" unicode="&#x222b;" horiz-adv-x="332" 
d="M398 583q-42 14 -97 14q-38 0 -55.5 -15t-17.5 -54v-535q-1 -55 -19 -95t-49.5 -61t-67.5 -30.5t-78 -9.5q-25 0 -49 3q-66 5 -115 22q2 9 27 113q56 -18 119 -18q7 0 11 2q67 5 67 74q0 90 0.5 272t0.5 273q0 34 8 60q25 129 187 129l48 -3q72 -7 113 -22
q-3 -12 -14.5 -54t-18.5 -65z" />
    <glyph glyph-name="approxequal" unicode="&#x2248;" horiz-adv-x="563" 
d="M446 323l96 -77q-20 -52 -62.5 -87t-101.5 -35q-44 0 -110 42t-96 42q-38 0 -62 -57l-87 85q60 102 145 102q41 0 81.5 -20.5t74 -41t57.5 -20.5q23 0 37 14t28 53zM446 549l96 -77q-19 -52 -62 -86.5t-102 -34.5q-44 0 -110 42t-96 42q-38 0 -62 -58l-87 85
q60 102 145 102q41 0 81.5 -20t74 -40.5t57.5 -20.5q23 0 37 14t28 52z" />
    <glyph glyph-name="notequal" unicode="&#x2260;" horiz-adv-x="563" 
d="M361 667h148l-42 -80h59v-147h-133l-77 -152h210v-147h-283l-44 -83h-147l43 83h-59v147h132l77 152h-209v147h283z" />
    <glyph glyph-name="lessequal" unicode="&#x2264;" horiz-adv-x="563" 
d="M36 8v147h490v-147h-490zM498 626l-238 -177l238 -179l-78 -99l-362 245v64l361 243z" />
    <glyph glyph-name="greaterequal" unicode="&#x2265;" horiz-adv-x="563" 
d="M527 155v-147h-490v147h490zM304 449l-239 177l79 97l361 -243v-64l-362 -245l-78 99z" />
    <glyph glyph-name="lozenge" unicode="&#x25ca;" horiz-adv-x="648" 
d="M636 258q-115 -256 -180 -438h-249q-104 215 -193 438q90 227 193 440h249q65 -183 180 -440zM467 259q-9 23 -64 155.5t-67 169.5h-26q-90 -206 -136 -325q46 -119 136 -325h26q12 37 67 169.5t64 155.5z" />
    <glyph glyph-name="caron.alt" unicode="&#xe01e;" horiz-adv-x="321" 
d="M320 722h130l-58 -192h-91z" />
    <glyph glyph-name="commaaccent" unicode="&#xf6c3;" horiz-adv-x="261" 
d="M291 -51l-111 -167h-120l72 167h159z" />
    <glyph glyph-name="Acute" unicode="&#xf6c9;" horiz-adv-x="439" 
d="M231 747h-130l127 129h159z" />
    <glyph glyph-name="Caron" unicode="&#xf6ca;" horiz-adv-x="647" 
d="M286 876l67 -72l65 72h130l-122 -129h-147l-126 129h133z" />
    <glyph glyph-name="Dieresis" unicode="&#xf6cb;" horiz-adv-x="478" 
d="M145 872q41 0 55 -11.5t14 -51.5q0 -44 -14 -57.5t-55 -13.5q-40 0 -54 13.5t-14 57.5q0 40 13.5 51.5t54.5 11.5zM371 872q40 0 54 -11.5t14 -51.5q0 -44 -14 -57.5t-54 -13.5q-41 0 -55 13.5t-14 57.5q0 40 14 51.5t55 11.5z" />
    <glyph glyph-name="Grave" unicode="&#xf6ce;" horiz-adv-x="439" 
d="M409 747h-132l-157 129h160z" />
    <glyph glyph-name="Hungarumlaut" unicode="&#xf6cf;" horiz-adv-x="612" 
d="M258 747h-102l94 129h126zM436 747h-102l93 129h127z" />
    <glyph glyph-name="Macron" unicode="&#xf6d0;" horiz-adv-x="320" 
d="M116 745v107h292v-107h-292z" />
    <glyph glyph-name="Lslashsmall" unicode="&#xf6f9;" horiz-adv-x="448" 
d="M220 243v-107h231v-136h-385v118l-39 -33v125l39 33v269h154v-142l89 76v-127z" />
    <glyph glyph-name="OEsmall" unicode="&#xf6fa;" horiz-adv-x="813" 
d="M779 512v-122h-255q14 -31 18 -70h172v-115h-172q-3 -51 -20 -84h257v-121h-372q-45 -14 -113 -14q-129 0 -188.5 60.5t-59.5 212.5q0 151 59.5 209t188.5 58q70 0 116 -14h369zM294 406q-57 0 -75 -26.5t-18 -123.5q0 -94 18.5 -122t74.5 -28t75 28t19 122q0 67 -9 99
t-27 41.5t-58 9.5z" />
    <glyph glyph-name="Scaronsmall" unicode="&#xf6fd;" horiz-adv-x="484" 
d="M439 498l-30 -114q-80 22 -151 22q-40 0 -56 -8t-16 -36q0 -20 17 -28.5t76 -15.5q92 -12 132 -46t40 -110q0 -97 -61 -136.5t-168 -39.5q-105 0 -182 28l30 116q73 -21 145 -21q49 0 68.5 8.5t19.5 36.5q0 22 -20 31.5t-82 15.5q-86 8 -125 40t-39 110q0 97 60 136
t167 39q96 0 175 -28zM187 697q44 -48 66 -71q10 11 31 34.5t33 36.5h130q-20 -22 -60.5 -65t-61.5 -64h-147l-126 129h135z" />
    <glyph glyph-name="Zcaronsmall" unicode="&#xf6ff;" horiz-adv-x="498" 
d="M27 512h458v-25q-107 -179 -238 -355h226v-132h-463v25q63 84 136 192t104 163h-223v132zM190 697q44 -48 66 -71q10 11 31 34.5t33 36.5h130q-21 -22 -61 -65t-61 -64h-147l-126 129h135z" />
    <glyph glyph-name="exclamsmall" unicode="&#xf721;" horiz-adv-x="326" 
d="M77 512h170l-31 -287h-111zM162 160q55 0 74 -15t19 -66q0 -55 -19.5 -72.5t-73.5 -17.5q-53 0 -72 17.5t-19 72.5q0 51 19 66t72 15z" />
    <glyph glyph-name="ampersandsmall" unicode="&#xf726;" horiz-adv-x="723" 
d="M705 0h-168q-7 10 -20 27.5t-17 22.5q-118 -64 -237 -64q-137 0 -184.5 30t-47.5 118q0 128 142 135q-68 5 -90.5 33.5t-22.5 89.5q0 80 42.5 107t182.5 27q96 0 143.5 -13t64 -40t16.5 -81q0 -59 -28.5 -88.5t-98.5 -35.5q55 -5 121 -56q33 42 38 87h167
q-7 -91 -99 -176q49 -53 96 -123zM269 100q41 0 82 13t66 34q-68 62 -147 62q-38 0 -57.5 -12t-19.5 -43q0 -32 16.5 -43t59.5 -11zM286 324q40 0 57.5 10t17.5 36t-15 35.5t-58 9.5q-44 0 -59.5 -9.5t-15.5 -35.5t16 -36t57 -10z" />
    <glyph glyph-name="zerooldstyle" unicode="&#xf730;" 
d="M314 -14q-117 0 -175 61t-58 212q0 149 58 208t175 59q119 0 176 -58.5t57 -208.5q0 -151 -57.5 -212t-175.5 -61zM314 406q-46 0 -62 -27t-16 -123q0 -93 16.5 -121.5t61.5 -28.5q47 0 62 27.5t15 122.5q0 67 -7.5 99t-22.5 41.5t-47 9.5z" />
    <glyph glyph-name="oneoldstyle" unicode="&#xf731;" 
d="M456 0h-154v330l-156 -64l-43 128l353 132v-526z" />
    <glyph glyph-name="twooldstyle" unicode="&#xf732;" 
d="M117 364l-35 138q98 24 227 24q131 0 180 -35.5t49 -123.5q0 -73 -51.5 -130.5t-183.5 -115.5h249v-121h-470v110q131 73 193 113.5t80 62t18 47.5q0 32 -19.5 44.5t-75.5 12.5q-35 0 -84.5 -8t-76.5 -18z" />
    <glyph glyph-name="threeoldstyle" unicode="&#xf733;" 
d="M186 106v139h104q51 0 70 13.5t19 53.5t-26 54t-109 14q-100 0 -167 -19l-30 141q116 24 235 24q152 0 210.5 -40t58.5 -141q0 -78 -31 -118t-119 -47q94 -4 129 -47.5t35 -131.5q0 -111 -65 -156t-219 -45q-127 0 -237 24l29 143q65 -19 169 -19q90 0 118.5 16t28.5 63
q0 46 -21 62.5t-74 16.5h-108z" />
    <glyph glyph-name="fouroldstyle" unicode="&#xf734;" 
d="M357 0h-342v52q175 303 290 460h205v-387h90v-125h-90v-192h-153v192zM357 125v244q-65 -89 -151 -244h151z" />
    <glyph glyph-name="fiveoldstyle" unicode="&#xf735;" 
d="M89 512h451v-141h-299v-120q33 3 68 3q147 0 202 -48.5t55 -169.5q0 -136 -60.5 -187.5t-214.5 -51.5q-138 0 -234 24l30 143q59 -19 166 -19q85 0 111 16.5t26 68.5q0 54 -24 70.5t-112 16.5q-94 0 -165 -11v406z" />
    <glyph glyph-name="sixoldstyle" unicode="&#xf736;" 
d="M566 688l-31 -142q-58 20 -168 20q-74 0 -107 -26.5t-37 -108.5q53 8 107 8q148 0 204 -49t56 -169q0 -136 -58 -185.5t-210 -49.5q-153 0 -213 78.5t-60 289.5q0 144 31 221t97.5 108t189.5 31q107 0 199 -26zM322 134q60 0 80 18t20 65q0 50 -20 67.5t-73 17.5
q-57 0 -109 -6q3 -101 25 -131.5t77 -30.5z" />
    <glyph glyph-name="sevenoldstyle" unicode="&#xf737;" 
d="M608 512v-47q-65 -106 -163 -313t-143 -344h-182q54 150 134.5 318t139.5 245h-341v141h555z" />
    <glyph glyph-name="eightoldstyle" unicode="&#xf738;" 
d="M315 117q58 0 79 18.5t21 68.5q0 52 -21.5 74t-78.5 22q-58 0 -80 -22t-22 -74q0 -50 21.5 -68.5t80.5 -18.5zM315 425q49 0 70.5 18t21.5 62t-20.5 59.5t-71.5 15.5q-53 0 -73.5 -15.5t-20.5 -59.5t22 -62t72 -18zM315 -14h-1q-151 0 -210 45t-59 156q0 88 34.5 132
t128.5 48q-88 7 -119 47t-31 119q0 67 20 104t76.5 57t159.5 20t159.5 -20t76.5 -57t20 -104q0 -79 -31 -119t-119 -47q94 -4 128.5 -48t34.5 -132q0 -111 -58.5 -156t-209.5 -45z" />
    <glyph glyph-name="nineoldstyle" unicode="&#xf739;" 
d="M158 -192q158 162 211 269q-18 -3 -62 -3q-148 0 -203.5 47.5t-55.5 167.5q0 135 58.5 186t209.5 51q111 0 168.5 -22.5t80 -72.5t22.5 -145q0 -136 -61 -251t-171 -227h-197zM328 210q46 0 82 4q5 24 5 57q0 69 -19 88.5t-80 19.5t-81 -18t-20 -67q0 -53 20.5 -68.5
t92.5 -15.5z" />
    <glyph glyph-name="questionsmall" unicode="&#xf73f;" horiz-adv-x="491" 
d="M231 163q55 0 74 -15t19 -66q0 -55 -19 -71.5t-74 -16.5q-53 0 -72 16.5t-19 71.5q0 51 19 66t72 15zM303 217h-145q12 10 34.5 27.5t31.5 25t23.5 21t20 23t10 22.5t4.5 27q0 23 -15.5 33t-61.5 10q-80 0 -152 -20l-20 126q111 20 187 20q126 0 180 -29.5t54 -100.5
q0 -57 -33.5 -98.5t-117.5 -86.5z" />
    <glyph glyph-name="Asmall" unicode="&#xf761;" horiz-adv-x="577" 
d="M423 0q-16 34 -41 108h-203q-20 -66 -31 -108h-156q63 221 181 511h231q88 -299 177 -511h-158zM292 391h-20q-24 -63 -59 -172h131q-22 67 -52 172z" />
    <glyph glyph-name="Bsmall" unicode="&#xf762;" horiz-adv-x="594" 
d="M220 114h128q22 0 32 10t10 35q0 27 -11 38.5t-35 11.5h-124v-95zM220 398v-82h123q38 0 38 41q0 23 -9 32t-29 9h-123zM416 269q77 -3 105 -34.5t28 -96.5q0 -74 -39.5 -106t-114.5 -32h-329v512h326q84 0 115.5 -29.5t31.5 -93.5q0 -58 -25.5 -86.5t-97.5 -33.5z" />
    <glyph glyph-name="Csmall" unicode="&#xf763;" horiz-adv-x="472" 
d="M430 141l32 -129q-63 -26 -161 -26q-124 0 -189.5 62t-65.5 211q0 147 65.5 207t189.5 60q98 0 161 -22l-32 -130q-55 21 -116 21q-63 0 -88 -25.5t-25 -113.5q0 -85 26 -111.5t87 -26.5q60 0 116 23z" />
    <glyph glyph-name="Dsmall" unicode="&#xf764;" horiz-adv-x="598" 
d="M66 512h238q130 0 189 -55t59 -199t-59 -201t-189 -57h-238v512zM286 398h-66v-284h66q59 0 84.5 28t25.5 114q0 89 -25 115.5t-85 26.5z" />
    <glyph glyph-name="Esmall" unicode="&#xf765;" horiz-adv-x="512" 
d="M478 512v-122h-258v-70h193v-115h-193v-84h258v-121h-412v512h412z" />
    <glyph glyph-name="Fsmall" unicode="&#xf766;" horiz-adv-x="484" 
d="M66 0v511h412v-121h-259v-96h193v-117h-193v-177h-153z" />
    <glyph glyph-name="Gsmall" unicode="&#xf767;" horiz-adv-x="578" 
d="M516 308v-287q-107 -35 -220 -35q-121 0 -185.5 62t-64.5 211q0 146 70 206.5t195 60.5q113 0 179 -22l-39 -124q-57 21 -134 21q-62 0 -89 -28t-27 -117q0 -85 26 -114.5t82 -29.5q43 0 74 13v65h-92v118h225z" />
    <glyph glyph-name="Hsmall" unicode="&#xf768;" horiz-adv-x="603" 
d="M383 201h-164v-201h-153v511h153v-179h164v179h153v-511h-153v201z" />
    <glyph glyph-name="Ismall" unicode="&#xf769;" horiz-adv-x="284" 
d="M220 512v-512h-154v512h154z" />
    <glyph glyph-name="Jsmall" unicode="&#xf76a;" horiz-adv-x="443" 
d="M378 512v-328q0 -107 -61 -152.5t-153 -45.5q-90 0 -164 24l27 129q54 -19 118 -19q79 0 79 77v315h154z" />
    <glyph glyph-name="Ksmall" unicode="&#xf76b;" horiz-adv-x="588" 
d="M589 0h-178q-160 255 -191 271v-271h-154v512h154v-241q44 40 177 241h177q-122 -187 -176 -232q20 -14 72 -88t119 -192z" />
    <glyph glyph-name="Lsmall" unicode="&#xf76c;" horiz-adv-x="448" 
d="M220 512v-376h231v-136h-385v512h154z" />
    <glyph glyph-name="Msmall" unicode="&#xf76d;" horiz-adv-x="788" 
d="M401 245q60 156 113 267h207v-512h-151v333q-67 -146 -124 -306h-110q-62 182 -118 306v-333h-152v512h216q39 -78 119 -267z" />
    <glyph glyph-name="Nsmall" unicode="&#xf76e;" horiz-adv-x="613" 
d="M393 243v268h153v-511h-153q-100 187 -174 276v-276h-153v511h150q110 -143 177 -268z" />
    <glyph glyph-name="Osmall" unicode="&#xf76f;" horiz-adv-x="590" 
d="M294 -14q-129 0 -188.5 60.5t-59.5 212.5q0 151 59.5 209t188.5 58q131 0 190.5 -58t59.5 -209q0 -152 -60 -212.5t-190 -60.5zM294 406q-57 0 -75 -26.5t-18 -123.5q0 -94 18.5 -122t74.5 -28t75 28t19 122q0 67 -9 99t-27 41.5t-58 9.5z" />
    <glyph glyph-name="Psmall" unicode="&#xf770;" horiz-adv-x="571" 
d="M342 397h-123v-112h123q41 0 41 55q0 57 -41 57zM394 176h-175v-176h-153v511h313q86 0 124.5 -41.5t38.5 -126.5q0 -77 -35.5 -122t-112.5 -45z" />
    <glyph glyph-name="Qsmall" unicode="&#xf771;" horiz-adv-x="590" 
d="M279 -14q-115 0 -174 61.5t-59 211.5q0 151 59.5 209t188.5 58q131 0 190.5 -58t59.5 -209q0 -193 -110 -246q34 -10 72.5 -52t105.5 -143h-166q-102 168 -167 168zM294 406q-57 0 -75 -26.5t-18 -123.5q0 -94 18.5 -122t74.5 -28t75 28t19 122q0 67 -9 99t-27 41.5
t-58 9.5z" />
    <glyph glyph-name="Rsmall" unicode="&#xf772;" horiz-adv-x="592" 
d="M391 511q156 0 156 -150q0 -138 -136 -145q43 -11 76.5 -50.5t101.5 -165.5h-176q-50 98 -79 131.5t-56 33.5h-59v-165h-153v511h325zM219 284h121q8 0 12 3q37 5 37 51q0 10 -3 18q-7 35 -44 35h-123v-107z" />
    <glyph glyph-name="Ssmall" unicode="&#xf773;" horiz-adv-x="484" 
d="M439 498l-30 -114q-80 22 -151 22q-40 0 -56 -8t-16 -36q0 -20 17 -28.5t76 -15.5q92 -12 132 -46t40 -110q0 -97 -61 -136.5t-168 -39.5q-105 0 -182 28l30 116q73 -21 145 -21q49 0 68.5 8.5t19.5 36.5q0 22 -20 31.5t-82 15.5q-86 8 -125 40t-39 110q0 97 60 136
t167 39q96 0 175 -28z" />
    <glyph glyph-name="Tsmall" unicode="&#xf774;" horiz-adv-x="487" 
d="M320 380v-380h-153v380h-165v132h482v-132h-164z" />
    <glyph glyph-name="Usmall" unicode="&#xf775;" horiz-adv-x="592" 
d="M297 122q48 0 64 20t16 69v301h153v-293q0 -130 -52 -181.5t-181 -51.5q-130 0 -182.5 51.5t-52.5 181.5v293h152v-301q0 -48 17.5 -68.5t65.5 -20.5z" />
    <glyph glyph-name="Vsmall" unicode="&#xf776;" horiz-adv-x="529" 
d="M269 156q71 198 110 355h153q-72 -244 -180 -511h-184q-76 274 -167 511h157q58 -152 111 -355z" />
    <glyph glyph-name="Wsmall" unicode="&#xf777;" horiz-adv-x="838" 
d="M418 297q-28 -131 -83 -297h-184q-69 255 -163 512h157q61 -164 107 -352q53 157 100 352h139q53 -165 95 -352q74 216 105 352h154q-86 -294 -176 -512h-184q-34 171 -67 297z" />
    <glyph glyph-name="Xsmall" unicode="&#xf778;" horiz-adv-x="520" 
d="M529 0h-169q-28 48 -92 140q-70 -96 -107 -140h-167q60 70 195 255q-114 160 -193 256h176q30 -37 100 -135q27 38 89 135h167q-54 -83 -174 -252q113 -161 175 -259z" />
    <glyph glyph-name="Ysmall" unicode="&#xf779;" horiz-adv-x="495" 
d="M256 353q56 71 108 159h165q-100 -158 -199 -283v-229h-153v229q-133 189 -211 283h174q55 -67 116 -159z" />
    <glyph glyph-name="Zsmall" unicode="&#xf77a;" horiz-adv-x="498" 
d="M27 512h458v-25q-107 -179 -238 -355h226v-132h-463v25q63 84 136 192t104 163h-223v132z" />
    <glyph glyph-name="exclamdownsmall" unicode="&#xf7a1;" horiz-adv-x="326" 
d="M248 0h-170l31 287h111zM163 352q-54 0 -73 15.5t-19 66.5q0 55 19 72t73 17q53 0 72 -17t19 -72q0 -51 -19 -66.5t-72 -15.5z" />
    <glyph glyph-name="questiondownsmall" unicode="&#xf7bf;" horiz-adv-x="491" 
d="M257 357q-55 0 -74 15t-19 66q0 55 19 71.5t74 16.5q53 0 72 -16.5t19 -71.5q0 -51 -19 -66t-72 -15zM185 303h145q-12 -10 -34.5 -27.5t-31.5 -25t-23.5 -21t-20 -23t-10 -22.5t-4.5 -27q0 -23 15.5 -33t61.5 -10q80 0 152 20l20 -126q-111 -20 -187 -20
q-126 0 -180 29.5t-54 100.5q0 57 33.5 98.5t117.5 86.5z" />
    <glyph glyph-name="Agravesmall" unicode="&#xf7e0;" horiz-adv-x="577" 
d="M423 0q-16 34 -41 108h-203q-20 -66 -31 -108h-156q63 221 181 511h231q88 -299 177 -511h-158zM292 391h-20q-24 -63 -59 -172h131q-22 67 -52 172zM402 568h-129l-151 129h158z" />
    <glyph glyph-name="Aacutesmall" unicode="&#xf7e1;" horiz-adv-x="577" 
d="M423 0q-16 34 -41 108h-203q-20 -66 -31 -108h-156q63 221 181 511h231q88 -299 177 -511h-158zM292 391h-20q-24 -63 -59 -172h131q-22 67 -52 172zM300 568h-130l123 129h157z" />
    <glyph glyph-name="Acircumflexsmall" unicode="&#xf7e2;" horiz-adv-x="577" 
d="M423 0q-16 34 -41 108h-203q-20 -66 -31 -108h-156q63 221 181 511h231q88 -299 177 -511h-158zM292 391h-20q-24 -63 -59 -172h131q-22 67 -52 172zM349 568q-22 23 -66 71q-12 -13 -33 -36.5t-31 -34.5h-131q20 21 61 64t61 65h147l126 -129h-134z" />
    <glyph glyph-name="Atildesmall" unicode="&#xf7e3;" horiz-adv-x="577" 
d="M423 0q-16 34 -41 108h-203q-20 -66 -31 -108h-156q63 221 181 511h231q88 -299 177 -511h-158zM292 391h-20q-24 -63 -59 -172h131q-22 67 -52 172zM402 708l72 -58q-15 -41 -47 -67.5t-77 -26.5q-33 0 -76 23.5t-65 23.5q-28 0 -48 -46l-66 65q45 80 111 80
q40 0 83 -23t63 -23q18 0 28.5 11t21.5 41z" />
    <glyph glyph-name="Adieresissmall" unicode="&#xf7e4;" horiz-adv-x="577" 
d="M423 0q-16 34 -41 108h-203q-20 -66 -31 -108h-156q63 221 181 511h231q88 -299 177 -511h-158zM292 391h-20q-24 -63 -59 -172h131q-22 67 -52 172zM172 694q41 0 55 -12t14 -52q0 -44 -14.5 -57.5t-54.5 -13.5t-54 13.5t-14 57.5q0 40 14 52t54 12zM398 694
q40 0 54 -12t14 -52q0 -44 -14 -57.5t-54 -13.5q-41 0 -55 13.5t-14 57.5q0 40 14 52t55 12z" />
    <glyph glyph-name="Aringsmall" unicode="&#xf7e5;" horiz-adv-x="577" 
d="M423 0q-16 34 -41 108h-203q-20 -66 -31 -108h-156q63 221 181 511h231q88 -299 177 -511h-158zM292 391h-20q-24 -63 -59 -172h131q-22 67 -52 172zM282 742q65 0 94 -22t29 -78t-29 -78t-94 -22q-66 0 -95.5 22t-29.5 78t28.5 78t96.5 22zM282 680q-28 0 -37.5 -8.5
t-9.5 -30.5t9.5 -30t37.5 -8q27 0 36.5 8.5t9.5 29.5q0 22 -9 30.5t-37 8.5z" />
    <glyph glyph-name="AEsmall" unicode="&#xf7e6;" horiz-adv-x="832" 
d="M732 320v-115h-193v-84h259v-121h-412v112h-218q-8 -12 -69 -112h-162q136 221 351 511h510v-121h-259v-70h193zM362 403q-61 -84 -122 -180h146v180h-24z" />
    <glyph glyph-name="Ccedillasmall" unicode="&#xf7e7;" horiz-adv-x="472" 
d="M430 141l32 -129q-56 -22 -148 -26v-25q54 0 79.5 -18.5t25.5 -60.5q0 -48 -31.5 -66.5t-111.5 -18.5q-59 0 -94 13l24 60q20 -9 62 -9q19 0 26.5 5t7.5 18q0 16 -18 21t-63 1l31 83q-100 10 -153 73t-53 197q0 147 65.5 207t189.5 60q98 0 161 -22l-32 -130
q-55 21 -116 21q-63 0 -88 -25.5t-25 -113.5q0 -85 26 -111.5t87 -26.5q60 0 116 23z" />
    <glyph glyph-name="Egravesmall" unicode="&#xf7e8;" horiz-adv-x="512" 
d="M478 512v-122h-258v-70h193v-115h-193v-84h258v-121h-412v512h412zM396 568h-129l-151 129h158z" />
    <glyph glyph-name="Eacutesmall" unicode="&#xf7e9;" horiz-adv-x="512" 
d="M478 512v-122h-258v-70h193v-115h-193v-84h258v-121h-412v512h412zM298 568h-130l123 129h157z" />
    <glyph glyph-name="Ecircumflexsmall" unicode="&#xf7ea;" horiz-adv-x="512" 
d="M478 512v-122h-258v-70h193v-115h-193v-84h258v-121h-412v512h412zM349 568q-22 23 -66 71q-12 -13 -33 -36.5t-31 -34.5h-131q20 21 61 64t61 65h147l126 -129h-134z" />
    <glyph glyph-name="Edieresissmall" unicode="&#xf7eb;" horiz-adv-x="512" 
d="M478 512v-122h-258v-70h193v-115h-193v-84h258v-121h-412v512h412zM170 694q41 0 55 -12t14 -52q0 -44 -14.5 -57.5t-54.5 -13.5t-54 13.5t-14 57.5q0 40 14 52t54 12zM396 694q40 0 54 -12t14 -52q0 -44 -14 -57.5t-54 -13.5q-41 0 -55 13.5t-14 57.5q0 40 14 52t55 12z
" />
    <glyph glyph-name="Igravesmall" unicode="&#xf7ec;" horiz-adv-x="284" 
d="M220 512v-512h-154v512h154zM240 568h-129l-151 129h158z" />
    <glyph glyph-name="Iacutesmall" unicode="&#xf7ed;" horiz-adv-x="284" 
d="M220 512v-512h-154v512h154zM170 568h-130l123 129h157z" />
    <glyph glyph-name="Icircumflexsmall" unicode="&#xf7ee;" horiz-adv-x="284" 
d="M220 512v-512h-154v512h154zM207 568q-22 23 -66 71q-12 -13 -33 -36.5t-31 -34.5h-131q20 21 61 64t61 65h147l126 -129h-134z" />
    <glyph glyph-name="Idieresissmall" unicode="&#xf7ef;" horiz-adv-x="284" 
d="M220 512v-512h-154v512h154zM31 694q41 0 55 -12t14 -52q0 -44 -14.5 -57.5t-54.5 -13.5t-54 13.5t-14 57.5q0 40 14 52t54 12zM257 694q40 0 54 -12t14 -52q0 -44 -14 -57.5t-54 -13.5q-41 0 -55 13.5t-14 57.5q0 40 14 52t55 12z" />
    <glyph glyph-name="Ethsmall" unicode="&#xf7f0;" horiz-adv-x="598" 
d="M24 210v106h42v196h238q130 0 189 -55t59 -199t-59 -201t-189 -57h-238v210h-42zM286 398h-66v-82h69v-106h-69v-96h66q59 0 84.5 28t25.5 114q0 89 -25 115.5t-85 26.5z" />
    <glyph glyph-name="Ntildesmall" unicode="&#xf7f1;" horiz-adv-x="613" 
d="M393 243v268h153v-511h-153q-100 187 -174 276v-276h-153v511h150q110 -143 177 -268zM431 708l72 -58q-15 -41 -47 -67.5t-77 -26.5q-33 0 -76 23.5t-65 23.5q-28 0 -48 -46l-66 65q45 80 111 80q41 0 84 -23t62 -23q18 0 28.5 11t21.5 41z" />
    <glyph glyph-name="Ogravesmall" unicode="&#xf7f2;" horiz-adv-x="590" 
d="M294 -14q-129 0 -188.5 60.5t-59.5 212.5q0 151 59.5 209t188.5 58q131 0 190.5 -58t59.5 -209q0 -152 -60 -212.5t-190 -60.5zM294 406q-57 0 -75 -26.5t-18 -123.5q0 -94 18.5 -122t74.5 -28t75 28t19 122q0 67 -9 99t-27 41.5t-58 9.5zM402 568h-129l-151 129h158z
" />
    <glyph glyph-name="Oacutesmall" unicode="&#xf7f3;" horiz-adv-x="590" 
d="M294 -14q-129 0 -188.5 60.5t-59.5 212.5q0 151 59.5 209t188.5 58q131 0 190.5 -58t59.5 -209q0 -152 -60 -212.5t-190 -60.5zM294 406q-57 0 -75 -26.5t-18 -123.5q0 -94 18.5 -122t74.5 -28t75 28t19 122q0 67 -9 99t-27 41.5t-58 9.5zM318 568h-130l123 129h157z" />
    <glyph glyph-name="Ocircumflexsmall" unicode="&#xf7f4;" horiz-adv-x="590" 
d="M294 -14q-129 0 -188.5 60.5t-59.5 212.5q0 151 59.5 209t188.5 58q131 0 190.5 -58t59.5 -209q0 -152 -60 -212.5t-190 -60.5zM294 406q-57 0 -75 -26.5t-18 -123.5q0 -94 18.5 -122t74.5 -28t75 28t19 122q0 67 -9 99t-27 41.5t-58 9.5zM356 568q-22 23 -66 71
q-12 -13 -33 -36.5t-31 -34.5h-131q21 21 61 64t61 65h147l126 -129h-134z" />
    <glyph glyph-name="Otildesmall" unicode="&#xf7f5;" horiz-adv-x="590" 
d="M294 -14q-129 0 -188.5 60.5t-59.5 212.5q0 151 59.5 209t188.5 58q131 0 190.5 -58t59.5 -209q0 -152 -60 -212.5t-190 -60.5zM294 406q-57 0 -75 -26.5t-18 -123.5q0 -94 18.5 -122t74.5 -28t75 28t19 122q0 67 -9 99t-27 41.5t-58 9.5zM411 708l72 -58
q-15 -41 -47 -67.5t-77 -26.5q-33 0 -76 23.5t-65 23.5q-28 0 -48 -46l-66 65q45 80 111 80q41 0 84 -23t62 -23q18 0 28.5 11t21.5 41z" />
    <glyph glyph-name="Odieresissmall" unicode="&#xf7f6;" horiz-adv-x="590" 
d="M294 -14q-129 0 -188.5 60.5t-59.5 212.5q0 151 59.5 209t188.5 58q131 0 190.5 -58t59.5 -209q0 -152 -60 -212.5t-190 -60.5zM294 406q-57 0 -75 -26.5t-18 -123.5q0 -94 18.5 -122t74.5 -28t75 28t19 122q0 67 -9 99t-27 41.5t-58 9.5zM181 694q41 0 55 -12t14 -52
q0 -44 -14.5 -57.5t-54.5 -13.5t-54 13.5t-14 57.5q0 40 14 52t54 12zM407 694q40 0 54 -12t14 -52q0 -44 -14 -57.5t-54 -13.5q-41 0 -55 13.5t-14 57.5q0 40 14 52t55 12z" />
    <glyph glyph-name="Oslashsmall" unicode="&#xf7f8;" horiz-adv-x="590" 
d="M453 511h136l-76 -85q31 -61 31 -168q0 -152 -59.5 -212t-190.5 -60q-88 0 -144 27l-12 -13h-136l75 85q-32 62 -32 173q0 151 60 209.5t189 58.5q94 0 147 -28zM294 406q-53 0 -73.5 -22t-20.5 -93q0 -35 3 -65l147 169q-19 11 -56 11zM294 106q56 0 74.5 31.5
t18.5 103.5q0 27 -1 41l-146 -167q17 -9 54 -9z" />
    <glyph glyph-name="Ugravesmall" unicode="&#xf7f9;" horiz-adv-x="592" 
d="M297 122q48 0 64 20t16 69v301h153v-293q0 -130 -52 -181.5t-181 -51.5q-130 0 -182.5 51.5t-52.5 181.5v293h152v-301q0 -48 17.5 -68.5t65.5 -20.5zM398 568h-129l-151 129h158z" />
    <glyph glyph-name="Uacutesmall" unicode="&#xf7fa;" horiz-adv-x="592" 
d="M297 122q48 0 64 20t16 69v301h153v-293q0 -130 -52 -181.5t-181 -51.5q-130 0 -182.5 51.5t-52.5 181.5v293h152v-301q0 -48 17.5 -68.5t65.5 -20.5zM312 568h-130l123 129h157z" />
    <glyph glyph-name="Ucircumflexsmall" unicode="&#xf7fb;" horiz-adv-x="592" 
d="M297 122q48 0 64 20t16 69v301h153v-293q0 -130 -52 -181.5t-181 -51.5q-130 0 -182.5 51.5t-52.5 181.5v293h152v-301q0 -48 17.5 -68.5t65.5 -20.5zM360 568q-22 23 -66 71q-12 -13 -33 -36.5t-31 -34.5h-131q21 21 61.5 64t60.5 65h147l126 -129h-134z" />
    <glyph glyph-name="Udieresissmall" unicode="&#xf7fc;" horiz-adv-x="592" 
d="M297 122q48 0 64 20t16 69v301h153v-293q0 -130 -52 -181.5t-181 -51.5q-130 0 -182.5 51.5t-52.5 181.5v293h152v-301q0 -48 17.5 -68.5t65.5 -20.5zM184 694q41 0 55 -12t14 -52q0 -44 -14.5 -57.5t-54.5 -13.5t-54 13.5t-14 57.5q0 40 14 52t54 12zM410 694
q40 0 54 -12t14 -52q0 -44 -14 -57.5t-54 -13.5q-41 0 -55 13.5t-14 57.5q0 40 14 52t55 12z" />
    <glyph glyph-name="Yacutesmall" unicode="&#xf7fd;" horiz-adv-x="495" 
d="M256 353q56 71 108 159h165q-100 -158 -199 -283v-229h-153v229q-133 189 -211 283h174q55 -67 116 -159zM274 568h-130l123 129h157z" />
    <glyph glyph-name="Thornsmall" unicode="&#xf7fe;" horiz-adv-x="571" 
d="M219 92v-92h-153v511h153v-84h160q86 0 124.5 -41.5t38.5 -126.5q0 -77 -35.5 -122t-112.5 -45h-175zM342 313h-123v-112h123q41 0 41 55q0 57 -41 57z" />
    <glyph glyph-name="Ydieresissmall" unicode="&#xf7ff;" horiz-adv-x="495" 
d="M256 353q56 71 108 159h165q-100 -158 -199 -283v-229h-153v229q-133 189 -211 283h174q55 -67 116 -159zM145 694q41 0 55 -12t14 -52q0 -44 -14.5 -57.5t-54.5 -13.5t-54 13.5t-14 57.5q0 40 14 52t54 12zM371 694q40 0 54 -12t14 -52q0 -44 -14 -57.5t-54 -13.5
q-41 0 -55 13.5t-14 57.5q0 40 14 52t55 12z" />
    <glyph glyph-name="Gcedilla" horiz-adv-x="712" 
d="M479 140v146h-138v138h303v-405q-84 -27 -226 -32v-26q54 0 79.5 -18.5t25.5 -60.5q0 -48 -31.5 -66.5t-111.5 -18.5q-59 0 -94 13l24 60q20 -9 62 -9q19 0 26.5 5t7.5 18q0 16 -18 21t-63 1l30 80q-108 3 -173 37.5t-99 115t-34 216.5q0 105 22.5 176t70 110.5t111 56
t154.5 16.5q130 0 218 -25l-29 -142q-24 8 -80 14t-93 6q-62 0 -96 -6.5t-60.5 -28.5t-36 -64t-9.5 -115q0 -72 9.5 -115t34.5 -66t58 -30t90 -7q21 0 66 5z" />
    <glyph glyph-name="Idot" horiz-adv-x="325" 
d="M82 697h161v-697h-161v697zM162 877q41 0 55 -12t14 -52q0 -44 -14.5 -57.5t-54.5 -13.5t-54 13.5t-14 57.5q0 40 14 52t54 12z" />
    <glyph glyph-name="Breve" horiz-adv-x="317" 
d="M114 871h101q0 -31 14 -41.5t46 -10.5t46 10.5t14 41.5h94q0 -143 -158 -143q-157 0 -157 143z" />
    <glyph glyph-name="Circumflex" horiz-adv-x="651" 
d="M414 747l-67 72l-64 -72h-130l122 129h147l126 -129h-134z" />
    <glyph glyph-name="Dotaccent" horiz-adv-x="285" 
d="M156 877q41 0 55 -12t14 -52q0 -44 -14.5 -57.5t-54.5 -13.5t-54 13.5t-14 57.5q0 40 14 52t54 12z" />
    <glyph glyph-name="gacute" horiz-adv-x="596" 
d="M376 154v236q-34 14 -78 14q-39 0 -58 -10t-29 -42t-10 -97q0 -81 19.5 -109t73.5 -28q35 0 58.5 10t23.5 26zM376 18q-58 -29 -124 -29q-105 0 -155.5 57.5t-50.5 205.5q0 153 59 213.5t193 60.5q136 0 232 -36v-449q0 -74 -20.5 -124t-61 -75.5t-88 -35.5t-113.5 -10
q-104 0 -187 30l27 120q87 -23 157 -23q66 0 99 21t33 74zM324 568h-130l123 129h157z" />
    <glyph glyph-name="ldotaccent" horiz-adv-x="292" 
d="M220 722v-573q0 -72 34 -124l-138 -50q-50 61 -50 170v577h154zM316 469q40 0 54 -12t14 -52q0 -44 -14 -57.5t-54 -13.5t-54.5 13.5t-14.5 57.5q0 40 14 52t55 12z" />
    <glyph glyph-name="Ring" horiz-adv-x="708" 
d="M360 899q65 0 94 -22t29 -78t-29 -78t-94 -22q-66 0 -95.5 22t-29.5 78t28.5 78t96.5 22zM360 837q-28 0 -37.5 -8.5t-9.5 -30.5t9.5 -30.5t37.5 -8.5q27 0 36.5 9t9.5 30q0 22 -9 30.5t-37 8.5z" />
    <glyph glyph-name="Tilde" horiz-adv-x="702" 
d="M522 885l72 -58q-14 -41 -47 -67.5t-78 -26.5q-33 0 -77 23.5t-66 23.5q-28 0 -48 -45l-65 64q45 79 110 79q40 0 84.5 -22.5t64.5 -22.5q18 0 28.5 11t21.5 41z" />
    <glyph glyph-name="Dmacron" horiz-adv-x="753" 
d="M82 697h291q87 0 146.5 -16t102 -54.5t62.5 -106t20 -168.5q0 -197 -78.5 -274.5t-252.5 -77.5h-291v697zM532 350q0 71 -7 111t-30 61.5t-53 27.5t-88 6h-111v-414h111q75 0 110.5 15t51.5 58.5t16 134.5zM215 745v107h292v-107h-292z" />
    <glyph glyph-name="zerop" horiz-adv-x="637" 
d="M318 714q70 0 117.5 -16t83 -56t52.5 -110t17 -174q0 -141 -31.5 -224t-89 -115.5t-149.5 -32.5t-149 32.5t-88.5 115.5t-31.5 224q0 104 17 174t52.5 110t83 56t116.5 16zM319 134q48 0 70 16.5t30.5 61.5t8.5 146q0 74 -3.5 113t-17 62.5t-32.5 29t-56 5.5
q-48 0 -69 -13.5t-30.5 -56.5t-9.5 -140q0 -100 9 -145.5t31 -62t69 -16.5z" />
    <glyph glyph-name="onep" horiz-adv-x="427" 
d="M345 0h-158v523l-156 -63l-43 136l357 133v-729z" />
    <glyph glyph-name="twop" horiz-adv-x="619" 
d="M94 542l-33 137q100 35 237 35q138 0 199.5 -44t61.5 -165q0 -75 -23 -123.5t-81 -99t-194 -141.5h301v-141h-523v131q93 69 141 105.5t94.5 75t63 55.5t31 41t16.5 39t2 41q0 47 -22.5 64t-83.5 17q-100 0 -187 -27z" />
    <glyph glyph-name="threep" horiz-adv-x="605" 
d="M180 293v138h105q51 0 69.5 14t18.5 55q0 39 -26 53t-109 14q-104 0 -166 -19l-30 141q113 25 235 25q152 0 210.5 -40t58.5 -141q0 -79 -31.5 -119t-119.5 -47q94 -4 129.5 -48t35.5 -132q0 -111 -65 -156t-220 -45q-126 0 -237 24l30 143q63 -19 169 -19q90 0 118.5 16
t28.5 63q0 46 -21.5 63t-73.5 17h-109z" />
    <glyph glyph-name="fourp" horiz-adv-x="618" 
d="M356 166h-344v55q165 297 292 476h207v-396h90v-135h-90v-166h-155v166zM356 301v247q-80 -110 -153 -247h153z" />
    <glyph glyph-name="fivep" horiz-adv-x="608" 
d="M84 697h451v-141h-299v-120q34 3 69 3q147 0 201.5 -48.5t54.5 -169.5q0 -135 -60 -185t-215 -50q-137 0 -233 24l30 143q59 -19 165 -19q87 0 112 15t25 66q0 54 -23.5 70t-112.5 16q-88 0 -165 -10v406z" />
    <glyph glyph-name="sixp" horiz-adv-x="629" 
d="M566 688l-31 -142q-58 20 -168 20q-74 0 -107 -26.5t-37 -108.5q53 8 107 8q148 0 204 -49t56 -169q0 -136 -58 -185.5t-210 -49.5q-153 0 -213 78.5t-60 289.5q0 144 31 221t97.5 108t189.5 31q107 0 199 -26zM322 134q60 0 80 18t20 65q0 50 -20 67.5t-73 17.5
q-57 0 -109 -6q3 -101 25 -131.5t77 -30.5z" />
    <glyph glyph-name="sevenp" horiz-adv-x="544" 
d="M567 697v-46q-63 -101 -157 -305.5t-140 -345.5h-183q58 158 133 319.5t132 236.5h-340v141h555z" />
    <glyph glyph-name="eightp" horiz-adv-x="635" 
d="M318 117q59 0 80 18.5t21 68.5q0 52 -22 74t-79 22t-79 -22t-22 -74q0 -50 21.5 -68.5t79.5 -18.5zM318 425q50 0 71 18t21 62t-20.5 59.5t-71.5 15.5q-52 0 -72.5 -15.5t-20.5 -59.5t21.5 -62t71.5 -18zM318 -14q-151 0 -210 45t-59 156q0 88 34.5 132t128.5 48
q-88 7 -119 47t-31 119q0 67 20 104t76.5 57t159.5 20t159.5 -20t76.5 -57t20 -104q0 -79 -31 -119t-119 -47q94 -4 128.5 -48t34.5 -132q0 -111 -58.5 -156t-210.5 -45z" />
    <glyph glyph-name="ninep" 
d="M161 0q151 154 207 264q-24 -2 -62 -2q-148 0 -204 47t-56 167q0 136 58 187t210 51q163 0 217.5 -50t54.5 -190q0 -136 -59.5 -249.5t-169.5 -224.5h-196zM327 398q46 0 82 4q5 22 5 57q0 69 -19 88.5t-81 19.5q-61 0 -80.5 -18t-19.5 -68q0 -52 20.5 -67.5t92.5 -15.5z
" />
    <glyph glyph-name="g.2" horiz-adv-x="596" 
d="M542 493v-112q0 -106 -69 -156t-188 -50q-37 0 -57 5q-4 -8 -4 -20q0 -19 30 -26.5t112 -10.5q99 -4 146 -39t47 -103q0 -102 -72.5 -143.5t-210.5 -41.5q-129 0 -214 27l30 132q82 -28 177 -28q133 0 133 42q0 20 -20 26t-94 8q-122 5 -165.5 28t-43.5 86q0 49 32 87
q-61 35 -61 142q0 87 59 133.5t193 46.5q143 0 240 -33zM388 364v29q-36 12 -93 12q-50 0 -70 -12.5t-20 -44.5q0 -31 19.5 -41.5t66.5 -10.5q97 0 97 68z" />
    <glyph glyph-name="ct" horiz-adv-x="853" 
d="M518 173v207q-56 0 -129 8.5t-84 8.5q-40 0 -60.5 -8.5t-32 -39.5t-11.5 -93q0 -86 23 -113t81 -27q63 0 108 18l30 -122q-63 -26 -150 -26q-118 0 -182.5 62t-64.5 211q0 147 64.5 207t182.5 60q25 0 99 -7t126 -7v76l153 62v-138h160v-132h-160v-191q0 -40 15.5 -56.5
t56.5 -16.5q37 0 79 14l26 -118q-63 -26 -153 -26q-91 0 -134 39.5t-43 147.5z" />
    <glyph glyph-name="arrowupleft" horiz-adv-x="682" 
d="M84 97l-16 532l532 -16l2 -156l-269 10l317 -316l-104 -104l-316 317l11 -269z" />
    <glyph glyph-name="arrowupright" horiz-adv-x="681" 
d="M87 612l532 17l-16 -533l-156 -2l10 269l-316 -317l-103 105l317 316l-270 -11z" />
    <glyph glyph-name="arrowdownleft" horiz-adv-x="682" 
d="M68 47l16 533l157 1l-11 -269l316 317l104 -103l-317 -317l269 10l-2 -156z" />
    <glyph glyph-name="arrowdownright" horiz-adv-x="681" 
d="M619 45l-532 18l-2 156l270 -11l-317 316l103 104l316 -317l-10 269l156 -1z" />
    <glyph glyph-name="dmacron" horiz-adv-x="596" 
d="M297 572v105h79v45h154v-45h50v-105h-50v-550q-96 -36 -232 -36q-135 0 -193.5 59.5t-58.5 212.5q0 146 57 207t160 61q60 0 113 -22v68h-79zM376 127v235q0 16 -23 27.5t-57 11.5q-54 0 -74.5 -30t-20.5 -111q0 -90 20 -117.5t77 -27.5q50 0 78 12z" />
    <glyph glyph-name="Ldotaccent" horiz-adv-x="553" 
d="M82 697h161v-555h314v-142h-475v697zM375 484q40 0 54 -12t14 -52q0 -44 -14 -57.5t-54 -13.5t-54.5 13.5t-14.5 57.5q0 40 14 52t55 12z" />
    <glyph glyph-name="st" horiz-adv-x="897" 
d="M562 173v207q-79 0 -184 13t-120 13q-40 0 -56 -8t-16 -36q0 -20 17 -28.5t76 -15.5q92 -12 132 -46t40 -110q0 -97 -61 -136.5t-168 -39.5q-105 0 -182 28l30 116q73 -21 145 -21q49 0 68.5 8.5t19.5 36.5q0 22 -20 31.5t-82 15.5q-86 8 -125 40t-39 110q0 97 60 136
t167 39q20 0 127 -7t171 -7v76l154 62v-138h160v-132h-160v-191q0 -40 15.5 -56.5t55.5 -16.5q38 0 80 14l25 -118q-63 -26 -152 -26q-92 0 -135 39.5t-43 147.5z" />
    <glyph glyph-name="orn1" horiz-adv-x="626" 
d="M311 -125q-11 25 -37 42t-55.5 25.5t-61.5 25t-58 39t-42.5 70t-16.5 115.5q0 107 38.5 163t112.5 56q54 0 120 -28q73 28 123 28q150 0 150 -216q0 -68 -17 -116t-42.5 -70.5t-58 -39.5t-62 -25.5t-56 -26t-37.5 -42.5zM311 262q-49 26 -70 26q-45 0 -45 -95
q0 -51 14 -79t31.5 -35t38.5 -19t31 -30q8 16 24 25.5t31 15.5t29.5 17t23.5 37.5t9 68.5q0 93 -43 93q-22 0 -74 -25zM312 392q10 31 10 60q0 50 -30.5 77t-85.5 27h-206v124h626v-124h-247q12 -15 12 -40q0 -34 -20.5 -69t-58.5 -55z" />
    <glyph glyph-name="orn2" horiz-adv-x="626" 
d="M315 -125q-11 25 -37 42.5t-55.5 26t-62 25.5t-58.5 39.5t-43 70.5t-17 116q0 216 150 216q51 0 123 -28q68 28 120 28q74 0 112.5 -56t38.5 -163q0 -68 -16.5 -115.5t-42 -70t-58 -39t-61.5 -25t-55 -25.5t-38 -42zM314 392q-38 20 -58 55t-20 69q0 26 11 40h-247v124
h626v-124h-206q-55 0 -85 -27t-30 -77q0 -32 9 -60z" />
    <glyph glyph-name="orn3" horiz-adv-x="626" 
d="M311 681q11 -25 37.5 -42.5t56 -26t62 -25.5t58 -39.5t42.5 -70.5t17 -116q0 -216 -150 -216q-50 0 -123 28q-69 -29 -120 -29q-74 0 -112.5 56.5t-38.5 163.5q0 68 16.5 115t42.5 69.5t58 39t61.5 25t55.5 26t37 42.5zM311 294q54 -26 74 -26q43 0 43 93q0 42 -9 68.5
t-23.5 37.5t-29.5 17.5t-31 16t-24 25.5q-8 -16 -24 -26t-30.5 -16t-29 -17t-23 -37t-8.5 -67q0 -95 45 -95q25 0 70 26zM312 163q38 -19 58.5 -54t20.5 -69q0 -25 -12 -40h247v-125h-626v125h206q55 0 85.5 27t30.5 77q0 29 -10 59z" />
    <glyph glyph-name="orn4" horiz-adv-x="626" 
d="M315 681q12 -25 38 -42.5t55 -26t61.5 -25t58 -39t42 -69.5t16.5 -115q0 -107 -38.5 -163.5t-112.5 -56.5q-50 0 -120 29q-72 -28 -123 -28q-150 0 -150 216q0 68 17 116t43 70.5t58.5 39.5t62 25.5t55.5 26t37 42.5zM314 163q-9 -27 -9 -59q0 -50 30 -77t85 -27h206
v-125h-626v125h247q-11 14 -11 40q0 34 20.5 69t57.5 54z" />
    <glyph glyph-name="orn5" horiz-adv-x="881" 
d="M12 280q25 11 42.5 37t26 55.5t25 61.5t39 58t69.5 42.5t115 16.5q107 0 163.5 -38.5t56.5 -112.5q0 -51 -29 -120q28 -73 28 -123q0 -150 -216 -150q-68 0 -116 17t-70.5 42.5t-39.5 58t-25.5 62t-26 56t-42.5 37.5zM399 280q26 46 26 70q0 45 -95 45q-41 0 -67 -8.5
t-37 -23t-17 -29t-16 -30.5t-26 -24q16 -8 25.5 -24t16 -31t17.5 -29.5t37.5 -23.5t68.5 -9q93 0 93 43q0 20 -26 74zM530 279q30 -10 59 -10q50 0 77 30.5t27 85.5v206h125v-626h-125v247q-15 -12 -40 -12q-34 0 -69 20.5t-54 58.5z" />
    <glyph glyph-name="orn6" horiz-adv-x="881" 
d="M12 276q25 11 42.5 37t26 55.5t25.5 62t39.5 58.5t70.5 43t116 17q216 0 216 -150q0 -51 -28 -123q29 -70 29 -120q0 -74 -56.5 -112.5t-163.5 -38.5q-68 0 -115 16.5t-69.5 42t-39 58t-25 61.5t-26 55t-42.5 38zM530 277q19 37 54 57.5t69 20.5q26 0 40 -11v247h125
v-626h-125v206q0 55 -27 85t-77 30q-32 0 -59 -9z" />
    <glyph glyph-name="orn7" horiz-adv-x="881" 
d="M869 280q-25 -11 -42.5 -37t-26 -55.5t-25.5 -62t-39.5 -58.5t-70.5 -43t-116 -17q-216 0 -216 150q0 51 28 123q-28 68 -28 120q0 74 56 112.5t163 38.5q68 0 115.5 -16.5t70 -42t39 -58t25 -61.5t25.5 -55t42 -38zM482 280q-25 -52 -25 -74q0 -43 93 -43
q52 0 80.5 14.5t35.5 32.5t18.5 39t29.5 31q-16 8 -25.5 24t-16 31t-17.5 29t-37 23t-67 9q-95 0 -95 -46q0 -21 26 -70zM352 279q-20 -38 -55 -58t-69 -20q-26 0 -40 11v-247h-124v626h124v-206q0 -55 27 -85t77 -30q32 0 60 9z" />
    <glyph glyph-name="orn8" horiz-adv-x="881" 
d="M869 276q-25 -11 -42 -37t-25.5 -55.5t-25 -61.5t-39 -58t-70 -42.5t-115.5 -16.5q-107 0 -163 38.5t-56 112.5q0 54 28 120q-28 73 -28 123q0 150 216 150q68 0 116 -17t70.5 -42.5t39.5 -58t25.5 -62t26 -56t42.5 -37.5zM352 277q-31 10 -60 10q-50 0 -77 -30.5
t-27 -85.5v-206h-124v626h124v-247q15 12 40 12q34 0 69 -20.5t55 -58.5z" />
    <glyph glyph-name="publish" horiz-adv-x="819" 
d="M767 356q0 -106 -23 -178.5t-70 -114.5t-111 -59.5t-154 -17.5t-153.5 17.5t-111 59.5t-70 114.5t-22.5 178.5q0 105 22.5 175.5t70 110t110.5 56t154 16.5t154 -16.5t110.5 -56t70.5 -110t23 -175.5zM478 403q0 24 -7.5 34.5t-26.5 10.5h-72v-89h71q19 0 27 10t8 34z
M598 400q0 -70 -28 -107.5t-83 -37.5h-115v-107h-122v401h236q112 0 112 -149zM409 604q-70 0 -109 -7.5t-68.5 -34t-40 -75t-10.5 -131.5q0 -86 10.5 -137t39.5 -79.5t69 -37t109 -8.5q70 0 109.5 8.5t69 37t40 79.5t10.5 137q0 83 -10.5 131.5t-40 75t-68.5 34t-110 7.5z
" />
    <glyph glyph-name="zerob" horiz-adv-x="775" 
d="M387 609q-100 0 -146 -54.5t-46 -198.5q0 -148 46.5 -207t145.5 -59t145.5 59t46.5 207q0 144 -46 198.5t-146 54.5zM388 195q-50 0 -64.5 29t-14.5 132q0 99 14 124.5t65 25.5q35 0 50 -10t21.5 -40t6.5 -100q0 -104 -14 -132.5t-64 -28.5zM388 714q88 0 148 -16.5
t104.5 -56.5t65.5 -110t21 -175q0 -106 -21 -178.5t-65.5 -114.5t-105 -59.5t-147.5 -17.5t-148 17.5t-105 59.5t-65 114t-21 179q0 105 21 175t65.5 110t104.5 56.5t148 16.5z" />
    <glyph glyph-name="oneb" horiz-adv-x="775" 
d="M348 105h112v519l-253 -95l30 -95l111 45v-374zM388 714q88 0 148 -16.5t104.5 -56.5t65.5 -110t21 -175q0 -106 -21 -178.5t-65.5 -114.5t-105 -59.5t-147.5 -17.5t-148 17.5t-105 59.5t-65 114t-21 179q0 105 21 175t65.5 110t104.5 56.5t148 16.5z" />
    <glyph glyph-name="twob" horiz-adv-x="775" 
d="M388 714q88 0 148 -16.5t104.5 -56.5t65.5 -110t21 -175q0 -106 -21 -178.5t-65.5 -114.5t-105 -59.5t-147.5 -17.5t-148 17.5t-105 59.5t-65 114t-21 179q0 105 21 175t65.5 110t104.5 56.5t148 16.5zM208 587l24 -97q56 18 133 18q43 0 59.5 -12t16.5 -45
q0 -36 -15.5 -60.5t-61 -62.5t-172.5 -133v-93h372v100h-216q140 94 177.5 138.5t37.5 121.5q0 87 -44 118t-143 31q-98 0 -168 -24z" />
    <glyph glyph-name="threeb" horiz-adv-x="775" 
d="M304 408v-98h76q38 0 53.5 -12t15.5 -46t-20 -45.5t-85 -11.5q-74 0 -121 13l-21 -100q83 -18 169 -18q110 0 156 32t46 112q0 62 -25 93.5t-91 34.5q62 5 83.5 33.5t21.5 84.5q0 72 -41.5 100.5t-149.5 28.5q-82 0 -167 -17l22 -100q49 14 118 14q60 0 78.5 -10
t18.5 -39t-13 -39t-50 -10h-74zM388 714q88 0 148 -16.5t104.5 -56.5t65.5 -110t21 -175q0 -106 -21 -178.5t-65.5 -114.5t-105 -59.5t-147.5 -17.5t-148 17.5t-105 59.5t-65 114t-21 179q0 105 21 175t65.5 110t104.5 56.5t148 16.5z" />
    <glyph glyph-name="fourb" horiz-adv-x="775" 
d="M158 219h246v-119h109v119h65v95h-65v283h-146q-85 -119 -209 -339v-39zM404 492v-178h-110q56 104 110 178zM388 714q88 0 148 -16.5t104.5 -56.5t65.5 -110t21 -175q0 -106 -21 -178.5t-65.5 -114.5t-105 -59.5t-147.5 -17.5t-148 17.5t-105 59.5t-65 114t-21 179
q0 105 21 175t65.5 110t104.5 56.5t148 16.5z" />
    <glyph glyph-name="fiveb" horiz-adv-x="775" 
d="M547 594h-321v-288q51 8 118 8q62 0 79.5 -12t17.5 -51q0 -37 -18 -47.5t-80 -10.5q-76 0 -118 13l-22 -101q68 -17 167 -17q109 0 152 35.5t43 131.5q0 87 -38.5 121.5t-143.5 34.5q-24 0 -50 -3v87h214v99zM388 714q88 0 148 -16.5t104.5 -56.5t65.5 -110t21 -175
q0 -106 -21 -178.5t-65.5 -114.5t-105 -59.5t-147.5 -17.5t-148 17.5t-105 59.5t-65 114t-21 179q0 105 21 175t65.5 110t104.5 56.5t148 16.5z" />
    <glyph glyph-name="sixb" horiz-adv-x="775" 
d="M540 491l22 100q-62 18 -142 18q-128 0 -177 -53t-49 -203t43 -206.5t151 -56.5t149.5 36t41.5 132q0 85 -40 120t-145 35q-49 0 -77 -6q4 62 26 80t77 18q78 0 120 -14zM461 253q0 -34 -14.5 -46t-58.5 -12q-40 0 -56 22.5t-17 94.5q32 5 64 5q50 0 66 -13.5t16 -50.5z
M388 714q88 0 148 -16.5t104.5 -56.5t65.5 -110t21 -175q0 -106 -21 -178.5t-65.5 -114.5t-105 -59.5t-147.5 -17.5t-148 17.5t-105 59.5t-65 114t-21 179q0 105 21 175t65.5 110t104.5 56.5t148 16.5z" />
    <glyph glyph-name="sevenb" horiz-adv-x="775" 
d="M264 100h126q82 235 215 497h-399v-100h232q-94 -175 -174 -397zM388 714q88 0 148 -16.5t104.5 -56.5t65.5 -110t21 -175q0 -106 -21 -178.5t-65.5 -114.5t-105 -59.5t-147.5 -17.5t-148 17.5t-105 59.5t-65 114t-21 179q0 105 21 175t65.5 110t104.5 56.5t148 16.5z
" />
    <glyph glyph-name="eightb" horiz-adv-x="775" 
d="M388 184q-43 0 -58 13t-15 49q0 38 15.5 53t57.5 15q41 0 57 -15.5t16 -52.5q0 -36 -15.5 -49t-57.5 -13zM388 403q-37 0 -52 12.5t-15 45.5q0 32 14.5 43t52.5 11q37 0 51.5 -11t14.5 -43t-15.5 -45t-50.5 -13zM387 90h1q107 0 148.5 32t41.5 112q0 63 -24.5 94
t-90.5 34q63 5 85 33.5t22 84.5q0 71 -37.5 100t-145.5 29q-107 0 -144.5 -29t-37.5 -100q0 -56 22 -84.5t85 -33.5q-67 -3 -91.5 -34t-24.5 -94q0 -80 41.5 -112t149.5 -32zM388 714q88 0 148 -16.5t104.5 -56.5t65.5 -110t21 -175q0 -106 -21 -178.5t-65.5 -114.5
t-105 -59.5t-147.5 -17.5t-148 17.5t-105 59.5t-65 114t-21 179q0 105 21 175t65.5 110t104.5 56.5t148 16.5z" />
    <glyph glyph-name="nineb" horiz-adv-x="775" 
d="M383 289q14 0 46 2q-40 -77 -149 -189h139q79 79 121.5 160t42.5 178q0 100 -39 135.5t-155 35.5q-107 0 -148.5 -36.5t-41.5 -132.5q0 -86 39.5 -119.5t144.5 -33.5zM462 429q0 -23 -5 -41q-28 -3 -59 -3q-52 0 -66.5 11t-14.5 50q0 36 14 49t58 13t58.5 -15t14.5 -64z
M388 -14q-87 0 -148 17.5t-105.5 59.5t-65.5 114.5t-21 178.5q0 105 21 175t65.5 110t105 56.5t148.5 16.5t148 -16.5t104 -56.5t65 -110t21 -175q0 -106 -21 -178.5t-65 -114.5t-104.5 -59.5t-147.5 -17.5z" />
    <glyph glyph-name="apple" horiz-adv-x="904" 
d="M263 -14q-103 0 -160 61.5t-57 207.5q0 68 17.5 117t47 77t66 47t77 33t77.5 28.5t70 40t51 61.5q18 -36 51 -61.5t69.5 -40t77 -28.5t77 -33t66 -47t47 -77t17.5 -117q0 -146 -57 -207.5t-160 -61.5q-52 0 -113 23v-201h-151v201q-61 -23 -113 -23zM527 442v-292
q0 -16 23 -27t57 -11q54 0 75 30t21 110q0 47 -11 76t-30.5 43t-40.5 22t-48 20t-46 29zM376 150v292q-19 -17 -46 -29t-47.5 -20t-40.5 -22t-30.5 -43t-10.5 -76q0 -81 20.5 -110.5t74.5 -29.5q34 0 57 11t23 27z" />
    <glyph glyph-name="sp" horiz-adv-x="1078" 
d="M548 -192v550q-183 48 -290 48q-40 0 -56 -8t-16 -36q0 -20 17 -28.5t76 -15.5q92 -12 132 -46t40 -110q0 -97 -61 -136.5t-168 -39.5q-105 0 -182 28l30 116q73 -21 145 -21q49 0 68.5 8.5t19.5 36.5q0 22 -20 31.5t-82 15.5q-86 8 -125 40t-39 110q0 97 60 136t167 39
q142 0 284 -36q94 36 232 36q135 0 193 -58.5t58 -211.5q0 -147 -57 -208.5t-160 -61.5q-58 0 -112 23v-201h-154zM702 386v-235q0 -17 22.5 -28t56.5 -11q55 0 75.5 29.5t20.5 110.5q0 90 -20 118t-77 28q-47 0 -78 -12z" />
    <glyph glyph-name="at.2" horiz-adv-x="949" 
d="M691 441v-306q-46 -18 -112.5 -29t-121.5 -11q-121 0 -164 34.5t-43 134.5t45.5 133t140.5 33q45 0 112 -13q0 55 -20 73t-93 18q-78 0 -121 -8t-72 -34.5t-38 -71t-9 -124.5q0 -83 11 -130.5t44.5 -77t85 -39t141.5 -9.5q121 0 182.5 24.5t83.5 77t22 154.5
q0 111 -20 163h129q19 -68 19 -167q0 -115 -21 -187t-72.5 -114.5t-126.5 -58.5t-195 -16q-116 0 -192.5 17t-130 60t-76.5 115.5t-23 183.5q0 109 25 181.5t77.5 112.5t122 56t171.5 16q129 0 184 -42t55 -149zM548 222v97q-32 7 -76 7q-41 0 -57 -10.5t-16 -46.5t14 -48.5
t55 -12.5q46 0 80 14z" />
    <glyph glyph-name="ampersand.2" horiz-adv-x="769" 
d="M645 294v-256q-137 -52 -315 -52q-138 0 -210 46.5t-72 154.5q0 88 35.5 132t129.5 48q-83 7 -112.5 46.5t-29.5 118.5q0 97 62 139.5t185 42.5q75 0 174 -24l-43 -141q-54 18 -105 18q-59 0 -79.5 -14t-20.5 -53q0 -40 18 -55t65 -15h163v74l155 62v-136h132v-136h-132z
M490 147v147h-174q-50 0 -71 -17.5t-21 -63.5t26 -62.5t103 -16.5q79 0 137 13z" />
    <glyph glyph-name="Abrevesmall" horiz-adv-x="577" 
d="M423 0q-16 34 -41 108h-203q-20 -66 -31 -108h-156q63 221 181 511h231q88 -299 177 -511h-158zM292 391h-20q-24 -63 -59 -172h131q-22 67 -52 172zM125 697h101q0 -31 14 -41.5t46 -10.5t46 10.5t14 41.5h94q0 -143 -158 -143q-157 0 -157 143z" />
    <glyph glyph-name="Amacronsmall" horiz-adv-x="577" 
d="M423 0q-16 34 -41 108h-203q-20 -66 -31 -108h-156q63 221 181 511h231q88 -299 177 -511h-158zM292 391h-20q-24 -63 -59 -172h131q-22 67 -52 172zM135 572v106h292v-106h-292z" />
    <glyph glyph-name="Aogoneksmall" horiz-adv-x="577" 
d="M423 0q-16 34 -41 108h-203q-20 -66 -31 -108h-156q63 221 181 511h231q88 -299 177 -511h-69q-35 -23 -47.5 -42t-12.5 -44q0 -20 12 -29t45 -9q47 0 78 26l39 -70q-50 -35 -134 -35q-76 0 -105.5 21.5t-29.5 67.5q0 76 95 114h-29zM292 391h-20q-24 -63 -59 -172h131
q-22 67 -52 172z" />
    <glyph glyph-name="bracketleftsmall" horiz-adv-x="406" 
d="M92 668h305v-133h-146v-560h146v-132h-305v825z" />
    <glyph glyph-name="braceleftsmall" horiz-adv-x="373" 
d="M42 190v121q47 0 74.5 32t27.5 121q0 166 159 209q11 -18 32.5 -54.5t31.5 -54.5q-32 -11 -49.5 -25.5t-28.5 -48t-11 -90.5q0 -134 -96 -149q96 -18 96 -153q0 -81 19.5 -112.5t69.5 -49.5q-10 -18 -31.5 -53.5t-32.5 -53.5q-159 43 -159 209q0 88 -27.5 120t-74.5 32z
" />
    <glyph glyph-name="Dcaronsmall" horiz-adv-x="598" 
d="M66 512h238q130 0 189 -55t59 -199t-59 -201t-189 -57h-238v512zM286 398h-66v-284h66q59 0 84.5 28t25.5 114q0 89 -25 115.5t-85 26.5zM226 697q44 -48 66 -71q10 11 31 34.5t33 36.5h130q-21 -22 -61 -65t-61 -64h-147l-126 129h135z" />
    <glyph glyph-name="Dcroatsmall" horiz-adv-x="598" 
d="M24 210v106h42v196h238q130 0 189 -55t59 -199t-59 -201t-189 -57h-238v210h-42zM286 398h-66v-82h69v-106h-69v-96h66q59 0 84.5 28t25.5 114q0 89 -25 115.5t-85 26.5z" />
    <glyph glyph-name="Dmacronsmall" horiz-adv-x="598" 
d="M66 512h238q130 0 189 -55t59 -199t-59 -201t-189 -57h-238v512zM286 398h-66v-284h66q59 0 84.5 28t25.5 114q0 89 -25 115.5t-85 26.5zM141 572v106h292v-106h-292z" />
    <glyph glyph-name="Emacronsmall" horiz-adv-x="512" 
d="M478 512v-122h-258v-70h193v-115h-193v-84h258v-121h-412v512h412zM132 572v106h292v-106h-292z" />
    <glyph glyph-name="Eurosmall" horiz-adv-x="465" 
d="M416 119l31 -107q-63 -26 -154 -26q-118 0 -182.5 62t-64.5 211q0 147 64.5 207t182.5 60q91 0 154 -22l-31 -109q-45 17 -109 17q-35 0 -57 -11.5t-34 -40.5h166v-74h-180q-1 -9 -1 -30q0 -18 1 -26h180v-73h-166q21 -56 91 -56q65 0 109 18z" />
    <glyph glyph-name="Eogoneksmall" horiz-adv-x="512" 
d="M478 512v-122h-258v-70h193v-115h-193v-84h258v-121h-66q-35 -23 -47.5 -42t-12.5 -44q0 -20 12 -29t45 -9q47 0 78 26l39 -70q-50 -35 -134 -35q-76 0 -105.5 21.5t-29.5 67.5q0 76 95 114h-286v512h412z" />
    <glyph glyph-name="Ecaronsmall" horiz-adv-x="512" 
d="M478 512v-122h-258v-70h193v-115h-193v-84h258v-121h-412v512h412zM229 697q44 -48 66 -71q10 11 31 34.5t33 36.5h130q-20 -22 -60.5 -65t-61.5 -64h-147l-126 129h135z" />
    <glyph glyph-name="Edotaccentsmall" horiz-adv-x="512" 
d="M478 512v-122h-258v-70h193v-115h-193v-84h258v-121h-412v512h412zM284 694q40 0 54 -12t14 -52q0 -44 -14 -57.5t-54 -13.5t-54.5 13.5t-14.5 57.5q0 40 14 52t55 12z" />
    <glyph glyph-name="Ebrevesmall" horiz-adv-x="512" 
d="M478 512v-122h-258v-70h193v-115h-193v-84h258v-121h-412v512h412zM126 697h101q0 -31 14 -41.5t46 -10.5t46 10.5t14 41.5h94q0 -143 -158 -143q-157 0 -157 143z" />
    <glyph glyph-name="Gacutesmall" horiz-adv-x="578" 
d="M516 308v-287q-107 -35 -220 -35q-121 0 -185.5 62t-64.5 211q0 146 70 206.5t195 60.5q113 0 179 -22l-39 -124q-57 21 -134 21q-62 0 -89 -28t-27 -117q0 -85 26 -114.5t82 -29.5q43 0 74 13v65h-92v118h225zM318 568h-130l123 129h157z" />
    <glyph glyph-name="Gbrevesmall" horiz-adv-x="578" 
d="M516 308v-287q-107 -35 -220 -35q-121 0 -185.5 62t-64.5 211q0 146 70 206.5t195 60.5q113 0 179 -22l-39 -124q-57 21 -134 21q-62 0 -89 -28t-27 -117q0 -85 26 -114.5t82 -29.5q43 0 74 13v65h-92v118h225zM155 697h101q0 -31 14 -41.5t46 -10.5t46 10.5t14 41.5h94
q0 -143 -158 -143q-157 0 -157 143z" />
    <glyph glyph-name="Gcircumflexsmall" horiz-adv-x="578" 
d="M516 308v-287q-107 -35 -220 -35q-121 0 -185.5 62t-64.5 211q0 146 70 206.5t195 60.5q113 0 179 -22l-39 -124q-57 21 -134 21q-62 0 -89 -28t-27 -117q0 -85 26 -114.5t82 -29.5q43 0 74 13v65h-92v118h225zM373 568q-22 23 -66 71q-12 -13 -33 -36.5t-31 -34.5h-131
q20 21 60.5 64t61.5 65h147l126 -129h-134z" />
    <glyph glyph-name="Gcommaaccentsmall" horiz-adv-x="578" 
d="M516 308v-287q-107 -35 -220 -35q-121 0 -185.5 62t-64.5 211q0 146 70 206.5t195 60.5q113 0 179 -22l-39 -124q-57 21 -134 21q-62 0 -89 -28t-27 -117q0 -85 26 -114.5t82 -29.5q43 0 74 13v65h-92v118h225zM394 -51l-111 -167h-120l72 167h159z" />
    <glyph glyph-name="Gdotaccentsmall" horiz-adv-x="578" 
d="M516 308v-287q-107 -35 -220 -35q-121 0 -185.5 62t-64.5 211q0 146 70 206.5t195 60.5q113 0 179 -22l-39 -124q-57 21 -134 21q-62 0 -89 -28t-27 -117q0 -85 26 -114.5t82 -29.5q43 0 74 13v65h-92v118h225zM309 694q40 0 54 -12t14 -52q0 -44 -14 -57.5t-54 -13.5
t-54.5 13.5t-14.5 57.5q0 40 14 52t55 12z" />
    <glyph glyph-name="Germandblssmall" horiz-adv-x="968" 
d="M923 498l-30 -114q-80 22 -151 22q-40 0 -56 -8t-16 -36q0 -20 17 -28.5t76 -15.5q92 -12 132 -46t40 -110q0 -97 -61 -136.5t-168 -39.5q-105 0 -182 28l30 116q73 -21 145 -21q49 0 68.5 8.5t19.5 36.5q0 22 -20 31.5t-82 15.5q-86 8 -125 40t-39 110q0 97 60 136
t167 39q96 0 175 -28zM439 498l-30 -114q-80 22 -151 22q-40 0 -56 -8t-16 -36q0 -20 17 -28.5t76 -15.5q92 -12 132 -46t40 -110q0 -97 -61 -136.5t-168 -39.5q-105 0 -182 28l30 116q73 -21 145 -21q49 0 68.5 8.5t19.5 36.5q0 22 -20 31.5t-82 15.5q-86 8 -125 40
t-39 110q0 97 60 136t167 39q96 0 175 -28z" />
    <glyph glyph-name="Hbarsmall" horiz-adv-x="603" 
d="M16 376v92h50v44h154v-44h163v44h154v-44h51v-92h-51v-376h-154v201h-163v-201h-154v376h-50zM220 332h163v44h-163v-44z" />
    <glyph glyph-name="Hcircumflexsmall" horiz-adv-x="603" 
d="M383 201h-164v-201h-153v511h153v-179h164v179h153v-511h-153v201zM365 568q-22 23 -66 71q-12 -13 -33 -36.5t-31 -34.5h-131q21 21 61.5 64t60.5 65h147l126 -129h-134z" />
    <glyph glyph-name="IJsmall" horiz-adv-x="726" 
d="M220 512v-512h-154v512h154zM661 512v-328q0 -107 -61 -152.5t-153 -45.5q-90 0 -164 24l27 129q54 -19 118 -19q79 0 79 77v315h154z" />
    <glyph glyph-name="Imacronsmall" horiz-adv-x="284" 
d="M220 512v-512h-154v512h154zM-3 572v106h292v-106h-292z" />
    <glyph glyph-name="Iogoneksmall" horiz-adv-x="284" 
d="M220 512v-512h-51q-35 -23 -47.5 -42t-12.5 -44q0 -20 12 -29t45 -9q47 0 78 26l39 -70q-50 -35 -134 -35q-76 0 -105.5 21.5t-29.5 67.5q0 76 95 114h-43v512h154z" />
    <glyph glyph-name="Itildesmall" horiz-adv-x="284" 
d="M220 512v-512h-154v512h154zM264 708l72 -58q-15 -41 -47 -67.5t-77 -26.5q-33 0 -76 23.5t-65 23.5q-28 0 -48 -46l-66 65q45 80 111 80q40 0 83 -23t63 -23q18 0 28.5 11t21.5 41z" />
    <glyph glyph-name="Jcircumflexsmall" horiz-adv-x="443" 
d="M378 512v-328q0 -107 -61 -152.5t-153 -45.5q-90 0 -164 24l27 129q54 -19 118 -19q79 0 79 77v315h154zM361 568q-22 23 -66 71q-12 -13 -33 -36.5t-31 -34.5h-131q21 21 61 64t61 65h147l126 -129h-134z" />
    <glyph glyph-name="Kcommaaccentsmall" horiz-adv-x="588" 
d="M589 0h-178q-160 255 -191 271v-271h-154v512h154v-241q44 40 177 241h177q-122 -187 -176 -232q20 -14 72 -88t119 -192zM404 -51l-111 -167h-120l72 167h159z" />
    <glyph glyph-name="Lacutesmall" horiz-adv-x="448" 
d="M220 512v-376h231v-136h-385v512h154zM222 568h-130l123 129h157z" />
    <glyph glyph-name="Lcaronsmall" horiz-adv-x="448" 
d="M220 512v-376h231v-136h-385v512h154zM289 536h130l-58 -192h-91z" />
    <glyph glyph-name="Lcommaaccentsmall" horiz-adv-x="448" 
d="M220 512v-376h231v-136h-385v512h154zM337 -51l-111 -167h-120l72 167h159z" />
    <glyph glyph-name="Ldotsmall" horiz-adv-x="448" 
d="M220 512v-376h231v-136h-385v512h154zM334 403q40 0 54 -12t14 -52q0 -44 -14 -57.5t-54 -13.5t-54.5 13.5t-14.5 57.5q0 40 14 52t55 12z" />
    <glyph glyph-name="Nacutesmall" horiz-adv-x="613" 
d="M393 243v268h153v-511h-153q-100 187 -174 276v-276h-153v511h150q110 -143 177 -268zM340 568h-130l123 129h157z" />
    <glyph glyph-name="Ncaronsmall" horiz-adv-x="613" 
d="M393 243v268h153v-511h-153q-100 187 -174 276v-276h-153v511h150q110 -143 177 -268zM245 697q44 -48 66 -71q10 11 31 34.5t33 36.5h130q-20 -22 -60.5 -65t-61.5 -64h-147l-126 129h135z" />
    <glyph glyph-name="Ncommaaccentsmall" horiz-adv-x="613" 
d="M393 243v268h153v-511h-153q-100 187 -174 276v-276h-153v511h150q110 -143 177 -268zM395 -51l-111 -167h-120l72 167h159z" />
    <glyph glyph-name="Obrevesmall" horiz-adv-x="590" 
d="M294 -14q-129 0 -188.5 60.5t-59.5 212.5q0 151 59.5 209t188.5 58q131 0 190.5 -58t59.5 -209q0 -152 -60 -212.5t-190 -60.5zM294 406q-57 0 -75 -26.5t-18 -123.5q0 -94 18.5 -122t74.5 -28t75 28t19 122q0 67 -9 99t-27 41.5t-58 9.5zM137 697h100q0 -31 14 -41.5
t46 -10.5t46 10.5t14 41.5h94q0 -143 -158 -143q-156 0 -156 143z" />
    <glyph glyph-name="Ohungarumlautsmall" horiz-adv-x="590" 
d="M294 -14q-129 0 -188.5 60.5t-59.5 212.5q0 151 59.5 209t188.5 58q131 0 190.5 -58t59.5 -209q0 -152 -60 -212.5t-190 -60.5zM294 406q-57 0 -75 -26.5t-18 -123.5q0 -94 18.5 -122t74.5 -28t75 28t19 122q0 67 -9 99t-27 41.5t-58 9.5zM230 568h-102l94 129h126z
M408 568h-102l93 129h127z" />
    <glyph glyph-name="Omacronsmall" horiz-adv-x="590" 
d="M294 -14q-129 0 -188.5 60.5t-59.5 212.5q0 151 59.5 209t188.5 58q131 0 190.5 -58t59.5 -209q0 -152 -60 -212.5t-190 -60.5zM294 406q-57 0 -75 -26.5t-18 -123.5q0 -94 18.5 -122t74.5 -28t75 28t19 122q0 67 -9 99t-27 41.5t-58 9.5zM149 572v106h292v-106h-292z
" />
    <glyph glyph-name="parenleftsmall" horiz-adv-x="369" 
d="M68 250q0 175 61.5 276.5t165.5 136.5l70 -113q-45 -19 -72 -45.5t-45.5 -89.5t-18.5 -165q0 -101 18.5 -164.5t45.5 -90t72 -45.5l-70 -113q-104 35 -165.5 136.5t-61.5 276.5z" />
    <glyph glyph-name="Racutesmall" horiz-adv-x="592" 
d="M391 511q156 0 156 -150q0 -138 -136 -145q43 -11 76.5 -50.5t101.5 -165.5h-176q-50 98 -79 131.5t-56 33.5h-59v-165h-153v511h325zM219 284h121q8 0 12 3q37 5 37 51q0 10 -3 18q-7 35 -44 35h-123v-107zM300 568h-130l123 129h157z" />
    <glyph glyph-name="Rcaronsmall" horiz-adv-x="592" 
d="M391 511q156 0 156 -150q0 -138 -136 -145q43 -11 76.5 -50.5t101.5 -165.5h-176q-50 98 -79 131.5t-56 33.5h-59v-165h-153v511h325zM219 284h121q8 0 12 3q37 5 37 51q0 10 -3 18q-7 35 -44 35h-123v-107zM237 697q44 -48 66 -71q10 11 31 34.5t33 36.5h130
q-20 -22 -60.5 -65t-61.5 -64h-147l-126 129h135z" />
    <glyph glyph-name="Rcommaaccentsmall" horiz-adv-x="592" 
d="M391 511q156 0 156 -150q0 -138 -136 -145q43 -11 76.5 -50.5t101.5 -165.5h-176q-50 98 -79 131.5t-56 33.5h-59v-165h-153v511h325zM219 284h121q8 0 12 3q37 5 37 51q0 10 -3 18q-7 35 -44 35h-123v-107zM394 -51l-111 -167h-120l72 167h159z" />
    <glyph glyph-name="sterlingsmall" horiz-adv-x="513" 
d="M25 196v105h46v35q0 94 59 142t187 48q96 0 174 -26l-30 -121q-67 19 -146 19q-57 0 -77.5 -16.5t-20.5 -49.5v-31h154v-105h-154v-70h253v-126h-399v196h-46z" />
    <glyph glyph-name="summationsmall" horiz-adv-x="498" 
d="M484 379h-223q16 -28 76 -119q-67 -97 -91 -128h227v-132h-464v24q68 90 162 235q-72 105 -145 227v25h458v-132z" />
    <glyph glyph-name="Tbarsmall" horiz-adv-x="487" 
d="M98 158v106h68v115h-164v132h482v-132h-164v-115h69v-106h-69v-158h-154v158h-68z" />
    <glyph glyph-name="Tcommaaccentsmall" horiz-adv-x="487" 
d="M320 380v-380h-153v380h-165v132h482v-132h-164zM341 -51l-111 -167h-120l72 167h159z" />
    <glyph glyph-name="Tcaronsmall" horiz-adv-x="487" 
d="M320 380v-380h-153v380h-165v132h482v-132h-164zM183 697q44 -48 66 -71q10 11 31 34.5t33 36.5h130q-21 -22 -61.5 -65t-60.5 -64h-147l-126 129h135z" />
    <glyph glyph-name="Utildesmall" horiz-adv-x="592" 
d="M297 122q48 0 64 20t16 69v301h153v-293q0 -130 -52 -181.5t-181 -51.5q-130 0 -182.5 51.5t-52.5 181.5v293h152v-301q0 -48 17.5 -68.5t65.5 -20.5zM414 708l72 -58q-15 -41 -47 -67.5t-77 -26.5q-33 0 -76 23.5t-65 23.5q-28 0 -48 -46l-66 65q45 80 111 80
q40 0 83 -23t63 -23q18 0 28.5 11t21.5 41z" />
    <glyph glyph-name="Uringsmall" horiz-adv-x="592" 
d="M297 122q48 0 64 20t16 69v301h153v-293q0 -130 -52 -181.5t-181 -51.5q-130 0 -182.5 51.5t-52.5 181.5v293h152v-301q0 -48 17.5 -68.5t65.5 -20.5zM297 742q65 0 94 -22t29 -78t-29 -78t-94 -22q-66 0 -95.5 22t-29.5 78t28.5 78t96.5 22zM297 680q-28 0 -37.5 -8.5
t-9.5 -30.5t9.5 -30t37.5 -8q27 0 36.5 8.5t9.5 29.5q0 22 -9 30.5t-37 8.5z" />
    <glyph glyph-name="Uogoneksmall" horiz-adv-x="592" 
d="M297 122q48 0 64 20t16 69v301h153v-293q0 -117 -41 -169.5t-139 -60.5q-44 -34 -44 -75q0 -20 12 -29t45 -9q47 0 78 26l39 -70q-50 -35 -134 -35q-76 0 -105.5 21.5t-29.5 67.5q0 61 67 100q-119 3 -167.5 55t-48.5 178v293h152v-301q0 -48 17.5 -68.5t65.5 -20.5z" />
    <glyph glyph-name="Umacronsmall" horiz-adv-x="592" 
d="M297 122q48 0 64 20t16 69v301h153v-293q0 -130 -52 -181.5t-181 -51.5q-130 0 -182.5 51.5t-52.5 181.5v293h152v-301q0 -48 17.5 -68.5t65.5 -20.5zM152 572v106h292v-106h-292z" />
    <glyph glyph-name="Ubrevesmall" horiz-adv-x="592" 
d="M297 122q48 0 64 20t16 69v301h153v-293q0 -130 -52 -181.5t-181 -51.5q-130 0 -182.5 51.5t-52.5 181.5v293h152v-301q0 -48 17.5 -68.5t65.5 -20.5zM140 697h101q0 -31 14 -41.5t46 -10.5t46 10.5t14 41.5h94q0 -143 -158 -143q-157 0 -157 143z" />
    <glyph glyph-name="Uhungarumlautsmall" horiz-adv-x="592" 
d="M297 122q48 0 64 20t16 69v301h153v-293q0 -130 -52 -181.5t-181 -51.5q-130 0 -182.5 51.5t-52.5 181.5v293h152v-301q0 -48 17.5 -68.5t65.5 -20.5zM229 568h-102l94 129h126zM407 568h-102l93 129h127z" />
    <glyph glyph-name="yensmall" horiz-adv-x="495" 
d="M47 217v69h90q-104 145 -171 226h174q45 -55 116 -159q56 71 108 159h164q-67 -108 -155 -226h77v-69h-120v-59h120v-68h-120v-90h-153v90h-130v68h130v59h-130z" />
    <glyph glyph-name="Ycircumflexsmall" horiz-adv-x="495" 
d="M256 353q56 71 108 159h165q-100 -158 -199 -283v-229h-153v229q-133 189 -211 283h174q55 -67 116 -159zM317 568q-22 23 -66 71q-12 -13 -33 -36.5t-31 -34.5h-131q20 21 61 64t61 65h147l126 -129h-134z" />
    <glyph glyph-name="zerosmall" horiz-adv-x="570" 
d="M284 -14q-115 0 -172 61t-57 212q0 149 57 208t172 59q116 0 173 -58.5t57 -208.5q0 -151 -57 -212t-173 -61zM284 406q-29 0 -43 -9.5t-22 -42t-8 -98.5q0 -64 8 -96.5t22.5 -43t42.5 -10.5q43 0 58.5 28.5t15.5 121.5q0 95 -15.5 122.5t-58.5 27.5z" />
    <glyph glyph-name="onesmall" horiz-adv-x="570" 
d="M417 0h-155v330l-156 -64l-42 128l353 132v-526z" />
    <glyph glyph-name="twosmall" horiz-adv-x="570" 
d="M87 364l-36 138q98 24 224 24q127 0 176 -35.5t49 -123.5q0 -73 -47.5 -128t-179.5 -118h240v-121h-461v110q132 78 190.5 117t75 59.5t16.5 46.5q0 32 -18.5 44.5t-71.5 12.5q-34 0 -82 -8t-75 -18z" />
    <glyph glyph-name="foursmall" horiz-adv-x="570" 
d="M315 112h-296v64q104 160 248 336h190v-282h87v-118h-87v-112h-142v112zM315 230v162q-76 -92 -120 -162h120z" />
    <glyph glyph-name="fivesmall" horiz-adv-x="570" 
d="M90 512h400v-126h-247v-66q25 3 61 3q113 0 158 -35t45 -124q0 -101 -59.5 -139.5t-197.5 -38.5q-122 0 -189 18l25 124q23 -7 72.5 -12.5t79.5 -5.5q65 0 90.5 10.5t25.5 39.5q0 33 -23 43.5t-90 10.5q-81 0 -151 -9v307z" />
    <glyph glyph-name="sixsmall" horiz-adv-x="570" 
d="M530 153q0 -94 -56 -130.5t-178 -36.5q-47 0 -80.5 5.5t-65 22t-50.5 46t-30 78.5t-11 118q0 150 67.5 210t201.5 60q98 0 191 -26l-34 -124q-88 25 -154 25q-72 0 -98 -20t-27 -73q63 12 119 12q108 0 156.5 -35t48.5 -132zM372 157q0 36 -16.5 47.5t-62.5 11.5
q-49 0 -87 -8q0 -65 22 -86.5t61 -21.5q48 0 65.5 12t17.5 45z" />
    <glyph glyph-name="sevensmall" horiz-adv-x="570" 
d="M45 512h504v-26q-144 -229 -245 -486h-178q94 210 207 380h-288v132z" />
    <glyph glyph-name="eightsmall" horiz-adv-x="570" 
d="M285 102q50 0 66.5 11t16.5 42q0 32 -17.5 42.5t-65.5 10.5q-47 0 -64.5 -10.5t-17.5 -42.5q0 -31 16.5 -42t65.5 -11zM285 -14q-141 0 -189.5 30.5t-48.5 118.5q0 64 30 97t102 37q-69 5 -94.5 34t-25.5 89q0 55 17 82t64.5 39.5t144.5 12.5q140 0 183 -27t43 -107
q0 -59 -26 -88.5t-95 -34.5q72 -4 102.5 -37t30.5 -97q0 -88 -48.5 -118.5t-189.5 -30.5zM285 325q44 0 60 9.5t16 35.5q0 27 -15 36t-61 9t-61 -9t-15 -36q0 -26 16 -35.5t60 -9.5z" />
    <glyph glyph-name="ninesmall" horiz-adv-x="570" 
d="M231 177q-96 0 -142.5 37.5t-46.5 134.5q0 96 57 136.5t178 40.5q137 0 193.5 -43.5t56.5 -171.5q0 -85 -46.5 -156t-141.5 -155h-197q171 138 191 187q-60 -10 -102 -10zM366 317q0 56 -18 76t-63 20q-48 0 -66.5 -14t-18.5 -49t16 -46t63 -11q38 0 73 5q9 11 14 19z
" />
    <glyph glyph-name="threesmall" horiz-adv-x="570" 
d="M179 210v111h79q45 0 62 8t17 29q0 23 -17.5 31.5t-69.5 8.5q-89 0 -165 -23l-29 131q95 20 197 20q143 0 194 -28t51 -106q0 -60 -26 -89t-96 -34q73 -4 103 -37t30 -97q0 -86 -56.5 -117.5t-200.5 -31.5q-99 0 -199 19l29 136q72 -26 167 -26q59 0 78 10.5t19 38.5
q0 27 -20 36.5t-68 9.5h-79z" />
    <glyph glyph-name="atsmall" horiz-adv-x="728" 
d="M334 431q-105 0 -140 -30.5t-35 -137.5q0 -112 40 -146t163 -34q122 0 164 41.5t42 165.5q0 81 -16 132h113q17 -60 17 -136q0 -171 -74.5 -237.5t-244.5 -66.5q-173 0 -245 59.5t-72 219.5q0 80 19.5 134t59 83t89 41t120.5 12q76 0 115 -15.5t58.5 -60.5t19.5 -134
q0 -121 -34 -155.5t-141 -34.5q-92 0 -123 25.5t-31 101.5q0 75 29.5 100.5t109.5 25.5q42 0 75 -5q-2 30 -17.5 41t-60.5 11zM363 299q-27 0 -36.5 -7t-9.5 -30q0 -24 9.5 -31t39.5 -7q26 0 36 9t10 35v28q-45 3 -49 3z" />
    <glyph glyph-name="backslashsmall" horiz-adv-x="427" 
d="M-10 512h164l286 -512h-164z" />
    <glyph glyph-name="slashsmall" horiz-adv-x="427" 
d="M276 512h165l-287 -512h-164z" />
    <glyph glyph-name="barsmall" horiz-adv-x="401" 
d="M120 678h161v-851h-161v851z" />
    <glyph glyph-name="bracketrightsmall" horiz-adv-x="406" 
d="M9 668h305v-825h-305v132h146v560h-146v133z" />
    <glyph glyph-name="bracerightsmall" horiz-adv-x="373" 
d="M331 311v-121q-47 0 -74.5 -32t-27.5 -120q0 -167 -159 -210l-64 110q32 11 49.5 25.5t28.5 47.5t11 90q0 43 9 73.5t25.5 45.5t30 21.5t31.5 9.5q-96 15 -96 152q0 82 -19.5 113.5t-69.5 49.5l64 107q159 -43 159 -209q0 -89 27.5 -121t74.5 -32z" />
    <glyph glyph-name="Cdotaccentsmall" horiz-adv-x="472" 
d="M430 141l32 -129q-63 -26 -161 -26q-124 0 -189.5 62t-65.5 211q0 147 65.5 207t189.5 60q98 0 161 -22l-32 -130q-55 21 -116 21q-63 0 -88 -25.5t-25 -113.5q0 -85 26 -111.5t87 -26.5q60 0 116 23zM292 694q40 0 54 -12t14 -52q0 -44 -14 -57.5t-54 -13.5t-54.5 13.5
t-14.5 57.5q0 40 14 52t55 12z" />
    <glyph glyph-name="Cacutesmall" horiz-adv-x="472" 
d="M430 141l32 -129q-63 -26 -161 -26q-124 0 -189.5 62t-65.5 211q0 147 65.5 207t189.5 60q98 0 161 -22l-32 -130q-55 21 -116 21q-63 0 -88 -25.5t-25 -113.5q0 -85 26 -111.5t87 -26.5q60 0 116 23zM318 568h-130l123 129h157z" />
    <glyph glyph-name="Ccaronsmall" horiz-adv-x="472" 
d="M430 141l32 -129q-63 -26 -161 -26q-124 0 -189.5 62t-65.5 211q0 147 65.5 207t189.5 60q98 0 161 -22l-32 -130q-55 21 -116 21q-63 0 -88 -25.5t-25 -113.5q0 -85 26 -111.5t87 -26.5q60 0 116 23zM227 697q44 -48 66 -71q10 11 31 34.5t33 36.5h130q-20 -22 -61 -65
t-61 -64h-147l-126 129h135z" />
    <glyph glyph-name="centsmall" horiz-adv-x="402" 
d="M203 526h73v-75q52 -4 82 -14l-26 -85q-11 5 -56 10v-201q34 2 56 10l26 -84q-30 -11 -82 -17v-84h-73v85q-156 20 -156 192q0 91 41 134.5t115 53.5v75zM163 261q0 -38 11 -62t29 -27v179q-18 -2 -29 -26.5t-11 -63.5z" />
    <glyph glyph-name="daggersmall" horiz-adv-x="460" 
d="M30 388v123h137v138h124v-138h138v-123h-138v-216h-124v216h-137z" />
    <glyph glyph-name="degreesmall" horiz-adv-x="343" 
d="M171 526q80 0 114 -32t34 -120q0 -90 -34.5 -124.5t-113.5 -34.5t-112.5 34t-33.5 125q0 88 33.5 120t112.5 32zM171 293q26 0 33 14.5t7 66.5q0 49 -7 62.5t-33 13.5q-24 0 -32 -14t-8 -62q0 -51 8 -66t32 -15z" />
    <glyph glyph-name="dollarsmall" horiz-adv-x="502" 
d="M213 623h75v-100q84 -2 157 -26l-29 -113q-53 15 -128 18v-87q86 -14 128 -48.5t42 -105.5q0 -150 -170 -169v-113h-75v109q-106 4 -166 25l30 116q57 -15 136 -19v92q-84 9 -126.5 42t-42.5 108q0 149 169 168v103zM177 361q0 -15 7.5 -23t28.5 -12v75q-36 -5 -36 -40z
M326 154q0 28 -38 37v-78q38 8 38 41z" />
    <glyph glyph-name="numbersignsmall" horiz-adv-x="616" 
d="M42 307l6 101h97l8 104h126l-8 -104h86l8 104h125l-8 -104h105l-6 -101h-105l-7 -95h106l-7 -100h-105l-8 -112h-126l8 112h-86l-8 -112h-125l7 112h-96l7 100h96l7 95h-97zM265 307l-8 -95h86l8 95h-86z" />
    <glyph glyph-name="parenrightsmall" horiz-adv-x="369" 
d="M301 250q0 -175 -62 -276.5t-166 -136.5l-70 112q45 19 72 45.5t46 90t19 165.5q0 101 -19 164.5t-46 90t-72 45.5l70 113q104 -35 166 -136.5t62 -276.5z" />
    <glyph glyph-name="percentsmall" horiz-adv-x="752" 
d="M507 512h120l-384 -512h-121zM171 526q80 0 114 -32t34 -120q0 -90 -34.5 -124.5t-113.5 -34.5t-112.5 34t-33.5 125q0 88 33.5 120t112.5 32zM171 293q26 0 33 14.5t7 66.5q0 49 -7 62.5t-33 13.5q-24 0 -32 -14t-8 -62q0 -51 8 -66t32 -15zM580 297q80 0 114 -32.5
t34 -119.5q0 -90 -34.5 -124.5t-113.5 -34.5t-112.5 34t-33.5 125q0 87 33.5 119.5t112.5 32.5zM580 64q26 0 33 14.5t7 65.5q0 49 -7 63t-33 14q-24 0 -32 -14t-8 -63q0 -50 8 -65t32 -15z" />
    <glyph glyph-name="sectionsmall" horiz-adv-x="481" 
d="M427 505l-27 -91q-65 19 -133 19q-46 0 -64 -7.5t-18 -23.5t15 -20.5t73 -9.5q86 -7 129 -34t43 -82q0 -40 -34 -76q22 -23 22 -62q0 -71 -55 -101.5t-166 -30.5q-86 0 -159 20l28 92q52 -19 132 -19q47 0 65 7t18 24q0 15 -15.5 20.5t-73.5 10.5q-86 8 -128.5 34.5
t-42.5 81.5q0 46 31 77q-20 27 -20 60q0 71 55 101.5t167 30.5q93 0 158 -21zM175 290q-11 -8 -11 -20q0 -14 18 -21t58 -13q19 -3 69 -13q10 8 10 20q0 13 -18.5 20.5t-64.5 14.5q-30 4 -61 12z" />
    <glyph glyph-name="Sacutesmall" horiz-adv-x="484" 
d="M439 498l-30 -114q-80 22 -151 22q-40 0 -56 -8t-16 -36q0 -20 17 -28.5t76 -15.5q92 -12 132 -46t40 -110q0 -97 -61 -136.5t-168 -39.5q-105 0 -182 28l30 116q73 -21 145 -21q49 0 68.5 8.5t19.5 36.5q0 22 -20 31.5t-82 15.5q-86 8 -125 40t-39 110q0 97 60 136
t167 39q96 0 175 -28zM267 568h-130l123 129h157z" />
    <glyph glyph-name="Scedillasmall" horiz-adv-x="484" 
d="M439 498l-30 -114q-80 22 -151 22q-40 0 -56 -8t-16 -36q0 -20 17 -28.5t76 -15.5q92 -12 132 -46t40 -110q0 -160 -185 -174v-27q54 0 79.5 -18.5t25.5 -60.5q0 -48 -31.5 -66.5t-111.5 -18.5q-59 0 -94 13l24 60q20 -9 62 -9q19 0 26.5 5t7.5 18q0 16 -18 21t-63 1
l30 80q-95 4 -163 28l30 116q73 -21 145 -21q49 0 68.5 8.5t19.5 36.5q0 22 -20 31.5t-82 15.5q-86 8 -125 40t-39 110q0 97 60 136t167 39q96 0 175 -28z" />
    <glyph glyph-name="Scircumflexsmall" horiz-adv-x="484" 
d="M439 498l-30 -114q-80 22 -151 22q-40 0 -56 -8t-16 -36q0 -20 17 -28.5t76 -15.5q92 -12 132 -46t40 -110q0 -97 -61 -136.5t-168 -39.5q-105 0 -182 28l30 116q73 -21 145 -21q49 0 68.5 8.5t19.5 36.5q0 22 -20 31.5t-82 15.5q-86 8 -125 40t-39 110q0 97 60 136
t167 39q96 0 175 -28zM321 568q-22 23 -66 71q-12 -13 -33 -36.5t-31 -34.5h-131q20 21 61 64t61 65h147l126 -129h-134z" />
    <glyph glyph-name="Scommaaccentsmall" horiz-adv-x="484" 
d="M439 498l-30 -114q-80 22 -151 22q-40 0 -56 -8t-16 -36q0 -20 17 -28.5t76 -15.5q92 -12 132 -46t40 -110q0 -97 -61 -136.5t-168 -39.5q-105 0 -182 28l30 116q73 -21 145 -21q49 0 68.5 8.5t19.5 36.5q0 22 -20 31.5t-82 15.5q-86 8 -125 40t-39 110q0 97 60 136
t167 39q96 0 175 -28zM342 -51l-111 -167h-120l72 167h159z" />
    <glyph glyph-name="Wcircumflexsmall" horiz-adv-x="838" 
d="M418 297q-28 -131 -83 -297h-184q-69 255 -163 512h157q61 -164 107 -352q53 157 100 352h139q53 -165 95 -352q74 216 105 352h154q-86 -294 -176 -512h-184q-34 171 -67 297zM483 568q-22 23 -66 71q-12 -13 -33 -36.5t-31 -34.5h-131q20 21 61 64t61 65h147l126 -129
h-134z" />
    <glyph glyph-name="Zacutesmall" horiz-adv-x="498" 
d="M27 512h458v-25q-107 -179 -238 -355h226v-132h-463v25q63 84 136 192t104 163h-223v132zM294 568h-130l123 129h157z" />
    <glyph glyph-name="Zdotaccentsmall" horiz-adv-x="498" 
d="M27 512h458v-25q-107 -179 -238 -355h226v-132h-463v25q63 84 136 192t104 163h-223v132zM254 694q40 0 54 -12t14 -52q0 -44 -14 -57.5t-54 -13.5t-54.5 13.5t-14.5 57.5q0 40 14 52t55 12z" />
    <glyph glyph-name="zeroop" horiz-adv-x="558" 
d="M279 -14q-117 0 -175 61t-58 212q0 149 58 208t175 59q119 0 176 -58.5t57 -208.5q0 -151 -57.5 -212t-175.5 -61zM279 406q-46 0 -62 -27t-16 -123q0 -93 16.5 -121.5t61.5 -28.5q47 0 62 27.5t15 122.5q0 67 -8 99t-22.5 41.5t-46.5 9.5z" />
    <glyph glyph-name="oneop" horiz-adv-x="408" 
d="M341 0h-154v330l-156 -64l-43 128l353 132v-526z" />
    <glyph glyph-name="twoop" horiz-adv-x="583" 
d="M96 364l-36 138q100 24 228 24q131 0 180 -35.5t49 -123.5q0 -73 -51.5 -130.5t-183.5 -115.5h248v-121h-469v110q131 73 192.5 113.5t79.5 62t18 47.5q0 32 -19 44.5t-75 12.5q-35 0 -85 -8t-76 -18z" />
    <glyph glyph-name="threeop" horiz-adv-x="587" 
d="M162 106v139h105q51 0 69.5 13.5t18.5 53.5t-26 54t-109 14q-99 0 -166 -19l-30 141q116 24 235 24q152 0 210.5 -40t58.5 -141q0 -79 -31.5 -118.5t-119.5 -46.5q94 -4 129.5 -47.5t35.5 -131.5q0 -111 -65 -156t-220 -45q-126 0 -237 24l30 143q63 -19 169 -19
q90 0 118.5 16t28.5 63q0 46 -21 62.5t-74 16.5h-109z" />
    <glyph glyph-name="fourop" horiz-adv-x="610" 
d="M352 0h-343v52q175 303 290 460h205v-387h90v-125h-90v-192h-152v192zM352 125v244q-62 -83 -151 -244h151z" />
    <glyph glyph-name="fiveop" horiz-adv-x="604" 
d="M81 512h451v-141h-299v-120q35 3 69 3q146 0 201 -48.5t55 -169.5q0 -136 -60.5 -187.5t-214.5 -51.5q-139 0 -233 24l30 143q59 -19 165 -19q85 0 111 16.5t26 68.5q0 54 -24 70.5t-112 16.5q-94 0 -165 -11v406z" />
    <glyph glyph-name="sixop" horiz-adv-x="632" 
d="M563 688q-4 -21 -15 -68.5t-16 -73.5q-58 20 -168 20q-18 0 -26 -2q-62 -4 -87 -30t-32 -103q54 8 108 8q147 0 203 -49t56 -169q0 -136 -58 -185.5t-210 -49.5q-153 0 -213 79t-60 289q0 108 16 176.5t55 110t97 57.5t150 16q108 0 200 -26zM318 134q60 0 80.5 17
t20.5 64q0 45 -17 64t-66 22q-14 1 -46 1q-7 0 -73 -6q3 -101 24.5 -131.5t76.5 -30.5z" />
    <glyph glyph-name="sevenop" horiz-adv-x="547" 
d="M555 512v-47q-65 -104 -163 -311.5t-143 -345.5h-183q56 152 136 319t138 244h-340v141h555z" />
    <glyph glyph-name="eightop" horiz-adv-x="629" 
d="M315 117q59 0 80 18.5t21 68.5q0 52 -22 74t-79 22t-79 -22t-22 -74q0 -50 21.5 -68.5t79.5 -18.5zM315 425q50 0 71 18t21 62t-20.5 59.5t-71.5 15.5q-52 0 -72.5 -15.5t-20.5 -59.5t21.5 -62t71.5 -18zM315 -14q-151 0 -210 45t-59 156q0 88 34.5 132t128.5 48
q-88 7 -119 47t-31 119q0 67 20 104t76.5 57t159.5 20t159.5 -20t76.5 -57t20 -104q0 -79 -31 -119t-119 -47q94 -4 128.5 -48t34.5 -132q0 -111 -58.5 -156t-210.5 -45z" />
    <glyph glyph-name="nineop" horiz-adv-x="631" 
d="M156 -192q158 162 211 269q-18 -3 -62 -3q-148 0 -203.5 47.5t-55.5 167.5q0 135 58.5 186t209.5 51q111 0 168.5 -22.5t80 -72.5t22.5 -145q0 -136 -61 -251t-171 -227h-197zM326 210q46 0 82 4q5 24 5 57q0 69 -19 88.5t-80 19.5t-81 -18t-20 -67q0 -53 20.5 -68.5
t92.5 -15.5z" />
    <glyph glyph-name="two.alt" horiz-adv-x="619" 
d="M89 542l-33 137q100 35 242 35q140 0 200.5 -42.5t60.5 -164.5q0 -75 -34.5 -128t-122.5 -95q-77 -37 -110.5 -67t-42.5 -76h310v-141h-521q5 77 21.5 133.5t48.5 97.5t65.5 68t89.5 61q5 3 22 13t22 13t18.5 11.5t18 13t14 12.5t13 14.5t8.5 15t6.5 18t1.5 19.5
q0 49 -21.5 64t-84.5 15q-105 0 -192 -27z" />
    <glyph glyph-name="Ccircumflexsmall" horiz-adv-x="472" 
d="M430 141l32 -129q-63 -26 -161 -26q-124 0 -189.5 62t-65.5 211q0 147 65.5 207t189.5 60q98 0 161 -22l-32 -130q-55 21 -116 21q-63 0 -88 -25.5t-25 -113.5q0 -85 26 -111.5t87 -26.5q60 0 116 23zM357 568q-22 23 -66 71q-12 -13 -33 -36.5t-31 -34.5h-131
q21 21 61.5 64t60.5 65h147l126 -129h-134z" />
    <glyph glyph-name="ccaront" horiz-adv-x="853" 
d="M518 173v207q-56 0 -129 8.5t-84 8.5q-40 0 -60.5 -8.5t-32 -39.5t-11.5 -93q0 -86 23 -113t81 -27q63 0 108 18l30 -122q-63 -26 -150 -26q-118 0 -182.5 62t-64.5 211q0 147 64.5 207t182.5 60q25 0 99 -7t126 -7v76l153 62v-138h160v-132h-160v-191q0 -40 15.5 -56.5
t56.5 -16.5q37 0 79 14l26 -118q-63 -26 -153 -26q-91 0 -134 39.5t-43 147.5zM231 697q44 -48 66 -71q10 11 31 34.5t33 36.5h130q-21 -22 -61 -65t-61 -64h-147l-126 129h135z" />
    <glyph glyph-name="scaront" horiz-adv-x="897" 
d="M562 173v207q-79 0 -184 13t-120 13q-40 0 -56 -8t-16 -36q0 -20 17 -28.5t76 -15.5q92 -12 132 -46t40 -110q0 -97 -61 -136.5t-168 -39.5q-105 0 -182 28l30 116q73 -21 145 -21q49 0 68.5 8.5t19.5 36.5q0 22 -20 31.5t-82 15.5q-86 8 -125 40t-39 110q0 97 60 136
t167 39q20 0 127 -7t171 -7v76l154 62v-138h160v-132h-160v-191q0 -40 15.5 -56.5t55.5 -16.5q38 0 80 14l25 -118q-63 -26 -152 -26q-92 0 -135 39.5t-43 147.5zM194 697q44 -48 66 -71q10 11 31 34.5t33 36.5h130q-21 -22 -61 -65t-61 -64h-147l-126 129h135z" />
    <glyph glyph-name="ampersandsmall.2" horiz-adv-x="676" 
d="M671 210h-116v-191q-160 -33 -262 -33q-144 0 -200.5 31.5t-56.5 117.5q0 64 30 97t102 37q-69 5 -95 33.5t-26 87.5q0 78 51.5 107t193.5 29q102 0 197 -20l-29 -131q-76 23 -165 23q-53 0 -70 -8.5t-17 -31.5q0 -21 17 -29t62 -8h384v-111zM199 165q0 -29 19.5 -39.5
t77.5 -10.5q62 0 120 13v82h-131q-47 0 -66.5 -9.5t-19.5 -35.5z" />
    <glyph glyph-name="man" horiz-adv-x="524" 
d="M345 419v-611h-76v372h-13v-372h-76v611q-22 -1 -29 -10.5t-7 -37.5v-191h-94v194q0 83 41 109t171 26q129 0 170.5 -26t41.5 -109v-194h-94v191q0 28 -6.5 37.5t-28.5 10.5zM262 721q61 0 82 -16.5t21 -72.5q0 -63 -21 -82t-82 -19q-63 0 -84.5 19t-21.5 82
q0 56 21.5 72.5t84.5 16.5z" />
    <glyph glyph-name="woman" horiz-adv-x="524" 
d="M324 419v-239q104 -241 180 -372h-484q130 284 180 372v239q-36 -1 -46 -10t-10 -38v-191h-74v194q0 83 38 109t154 26q115 0 153.5 -26.5t38.5 -108.5v-194h-74v191q0 29 -10 38t-46 10zM262 721q61 0 82 -16.5t21 -72.5q0 -63 -21 -82t-82 -19q-63 0 -84.5 19t-21.5 82
q0 56 21.5 72.5t84.5 16.5z" />
    <glyph glyph-name="escaperight" horiz-adv-x="1267" 
d="M446 509q13 -60 73 -118t137 -58l-14 -80q-73 0 -133.5 36.5t-88.5 99.5l-49 -229q107 -2 154.5 -72t11.5 -220h-84q32 120 0 170.5t-152 50.5q-37 -128 -102 -182.5t-177 -54.5l18 77q68 0 111.5 41t66.5 149l65 308q-39 0 -74.5 -41.5t-52.5 -132.5h-82
q31 127 80.5 191.5t144.5 64.5h147zM1245 293l-273 -256l-54 57l163 159h-388l13 80h375l-163 159l54 57zM530 531h-74q-63 0 -84.5 19t-21.5 82q0 56 21.5 72.5t84.5 16.5t85 -18t11 -71z" />
    <glyph glyph-name="noentry" horiz-adv-x="853" 
d="M838 0h-124l-215 215v-407h-66v372h-13v-372h-66v407l-215 -215h-124l199 202v172q0 71 28 99l-223 224h133l187 -191q38 3 87 3q54 0 86 -4l189 192h133l-224 -225q28 -27 28 -98v-171zM426 721q61 0 82 -16.5t21 -72.5q0 -63 -21 -82t-82 -19q-63 0 -84.5 19t-21.5 82
q0 56 21.5 72.5t84.5 16.5zM308 371v-73l46 47v16l-42 41q-4 -7 -4 -31zM544 371q0 22 -4 31l-41 -41v-16l45 -46v72z" />
    <glyph glyph-name="escapeleft" horiz-adv-x="1267" 
d="M821 509q-13 -60 -73 -118t-137 -58l14 -80q73 0 133.5 36.5t88.5 99.5l49 -229q-107 -2 -154.5 -72t-11.5 -220h84q-32 120 0 170.5t152 50.5q37 -128 102 -182.5t177 -54.5l-18 77q-68 0 -111.5 41t-66.5 149l-65 308q39 0 74.5 -41.5t52.5 -132.5h82
q-31 127 -80.5 191.5t-144.5 64.5h-147zM22 293l273 -256l54 57l-163 159h388l-13 80h-375l163 159l-54 57zM737 531h74q63 0 84.5 19t21.5 82q0 56 -21.5 72.5t-84.5 16.5t-85 -18t-11 -71z" />
    <glyph glyph-name="manneg" horiz-adv-x="684" 
d="M426 -192v611q22 -1 28.5 -10.5t6.5 -37.5v-191h94v194q0 83 -41.5 109t-170.5 26q-130 0 -171 -26t-41 -109v-194h94v191q0 28 7 37.5t29 10.5v-611h76v372h13v-372h76zM343 721q-63 0 -84.5 -16.5t-21.5 -72.5q0 -63 21.5 -82t84.5 -19q61 0 82 19t21 82q0 56 -21 72.5
t-82 16.5zM551 -232h-418q-61 0 -82 19t-21 82v803q0 56 21 72.5t82 16.5h418q61 0 82 -16.5t21 -72.5v-803q0 -63 -21 -82t-82 -19z" />
    <glyph glyph-name="womanneg" horiz-adv-x="684" 
d="M405 180v239q36 -1 46 -10t10 -38v-191h74v194q0 82 -38.5 108.5t-153.5 26.5q-116 0 -154 -26t-38 -109v-194h74v191q0 29 10 38t46 10v-239q-50 -88 -180 -372h484q-76 131 -180 372zM343 721q-63 0 -84.5 -16.5t-21.5 -72.5q0 -63 21.5 -82t84.5 -19q61 0 82 19t21 82
q0 56 -21 72.5t-82 16.5zM551 -232h-418q-61 0 -82 19t-21 82v803q0 56 21 72.5t82 16.5h418q61 0 82 -16.5t21 -72.5v-803q0 -63 -21 -82t-82 -19z" />
    <glyph glyph-name="escaperightneg" horiz-adv-x="1373" 
d="M1240 -232h-1107q-61 0 -82 19t-21 82v803q0 56 21 72.5t82 16.5h1107q61 0 82 -16.5t21 -72.5v-803q0 -63 -21 -82t-82 -19zM505 509h-147q-95 0 -144.5 -64.5t-80.5 -191.5h82q17 91 52.5 132.5t74.5 41.5l-65 -308q-23 -108 -66.5 -149t-111.5 -41l-18 -77
q112 0 177 54.5t102 182.5q120 0 152 -50.5t0 -170.5h84q36 150 -11.5 220t-154.5 72l49 229q28 -63 88.5 -99.5t133.5 -36.5l14 80q-77 0 -137 58t-73 118zM1031 37l273 256l-273 256l-54 -57l163 -159h-375l-13 -80h388l-163 -159zM515 531h74l22 101q11 53 -11 71t-85 18
t-84.5 -16.5t-21.5 -72.5q0 -63 21.5 -82t84.5 -19z" />
    </font>
</defs>
</svg>
